solid CATIASTL
 facet normal 0 0 1
  outer loop
   vertex -0.00433779 0.0133503 0
   vertex 0.00433779 0.0133503 0
   vertex 1.67654e-17 0.0140374 0
  endloop
 endfacet
 facet normal 0 0 1
  outer loop
   vertex 0.00433779 0.0133503 0
   vertex -0.00433779 0.0133503 0
   vertex 0.00825096 0.0113565 0
  endloop
 endfacet
 facet normal 0 0 1
  outer loop
   vertex 0.00825096 0.0113565 0
   vertex -0.00433779 0.0133503 0
   vertex -0.00825096 0.0113565 0
  endloop
 endfacet
 facet normal 0 0 1
  outer loop
   vertex 0.00825096 0.0113565 0
   vertex -0.00825096 0.0113565 0
   vertex 0.0113565 0.00825096 0
  endloop
 endfacet
 facet normal 0 0 1
  outer loop
   vertex 0.0113565 0.00825096 0
   vertex -0.00825096 0.0113565 0
   vertex -0.0113565 0.00825096 0
  endloop
 endfacet
 facet normal 0 0 1
  outer loop
   vertex 0.0113565 0.00825096 0
   vertex -0.0113565 0.00825096 0
   vertex 0.0133503 0.00433779 0
  endloop
 endfacet
 facet normal 0 0 1
  outer loop
   vertex 0.0133503 0.00433779 0
   vertex -0.0113565 0.00825096 0
   vertex -0.0133503 0.00433779 0
  endloop
 endfacet
 facet normal 0 0 1
  outer loop
   vertex 0.0133503 0.00433779 0
   vertex -0.0133503 0.00433779 0
   vertex 0.0140374 -1.59059e-17 0
  endloop
 endfacet
 facet normal 0 0 1
  outer loop
   vertex 0.0140374 -1.59059e-17 0
   vertex -0.0133503 0.00433779 0
   vertex -0.0140374 -4.51476e-18 0
  endloop
 endfacet
 facet normal 0 0 1
  outer loop
   vertex 0.0140374 -1.59059e-17 0
   vertex -0.0140374 -4.51476e-18 0
   vertex 0.0133503 -0.00433779 0
  endloop
 endfacet
 facet normal 0 0 1
  outer loop
   vertex 0.0133503 -0.00433779 0
   vertex -0.0140374 -4.51476e-18 0
   vertex -0.0133503 -0.00433779 0
  endloop
 endfacet
 facet normal 0 0 1
  outer loop
   vertex 0.0133503 -0.00433779 0
   vertex -0.0133503 -0.00433779 0
   vertex 0.0113565 -0.00825096 0
  endloop
 endfacet
 facet normal 0 0 1
  outer loop
   vertex 0.0113565 -0.00825096 0
   vertex -0.0133503 -0.00433779 0
   vertex -0.0113565 -0.00825096 0
  endloop
 endfacet
 facet normal 0 0 1
  outer loop
   vertex 0.0113565 -0.00825096 0
   vertex -0.0113565 -0.00825096 0
   vertex 0.00825096 -0.0113565 0
  endloop
 endfacet
 facet normal 0 0 1
  outer loop
   vertex 0.00825096 -0.0113565 0
   vertex -0.0113565 -0.00825096 0
   vertex -0.00825096 -0.0113565 0
  endloop
 endfacet
 facet normal 0 0 1
  outer loop
   vertex 0.00825096 -0.0113565 0
   vertex -0.00825096 -0.0113565 0
   vertex 0.00433779 -0.0133503 0
  endloop
 endfacet
 facet normal 0 0 1
  outer loop
   vertex 0.00433779 -0.0133503 0
   vertex -0.00825096 -0.0113565 0
   vertex -0.00433779 -0.0133503 0
  endloop
 endfacet
 facet normal 0 0 1
  outer loop
   vertex 0.00433779 -0.0133503 0
   vertex -0.00433779 -0.0133503 0
   vertex -2.57862e-18 -0.0140374 0
  endloop
 endfacet
 facet normal -0.1113 -0.702719 0.702708
  outer loop
   vertex 3.04111e-17 0.0146031 0.000565686
   vertex 0.00433779 0.0133503 0
   vertex 0.00451259 0.0138883 0.000565686
  endloop
 endfacet
 facet normal -0.323005 -0.633931 0.702708
  outer loop
   vertex 0.00451259 0.0138883 0.000565686
   vertex 0.00433779 0.0133503 0
   vertex 0.00825096 0.0113565 0
  endloop
 endfacet
 facet normal -0.323002 -0.633927 0.702714
  outer loop
   vertex 0.00451259 0.0138883 0.000565686
   vertex 0.00825096 0.0113565 0
   vertex 0.00858346 0.0118141 0.000565686
  endloop
 endfacet
 facet normal -0.503087 -0.503087 0.702714
  outer loop
   vertex 0.00858346 0.0118141 0.000565686
   vertex 0.00825096 0.0113565 0
   vertex 0.0113565 0.00825096 0
  endloop
 endfacet
 facet normal -0.503087 -0.503087 0.702714
  outer loop
   vertex 0.00858346 0.0118141 0.000565686
   vertex 0.0113565 0.00825096 0
   vertex 0.0118141 0.00858346 0.000565686
  endloop
 endfacet
 facet normal -0.633926 -0.323003 0.702714
  outer loop
   vertex 0.0118141 0.00858346 0.000565686
   vertex 0.0113565 0.00825096 0
   vertex 0.0133503 0.00433779 0
  endloop
 endfacet
 facet normal -0.633931 -0.323004 0.702709
  outer loop
   vertex 0.0118141 0.00858346 0.000565686
   vertex 0.0133503 0.00433779 0
   vertex 0.0138883 0.00451259 0.000565686
  endloop
 endfacet
 facet normal -0.702719 -0.111298 0.702708
  outer loop
   vertex 0.0138883 0.00451259 0.000565686
   vertex 0.0133503 0.00433779 0
   vertex 0.0140374 -1.59059e-17 0
  endloop
 endfacet
 facet normal -0.702711 -0.111299 0.702716
  outer loop
   vertex 0.0138883 0.00451259 0.000565686
   vertex 0.0140374 -1.59059e-17 0
   vertex 0.0146031 -1.65468e-17 0.000565686
  endloop
 endfacet
 facet normal -0.111297 -0.702711 0.702716
  outer loop
   vertex 0.00433779 0.0133503 0
   vertex 3.04111e-17 0.0146031 0.000565686
   vertex 1.67654e-17 0.0140374 0
  endloop
 endfacet
 facet normal 0.111299 -0.702711 0.702716
  outer loop
   vertex 1.67654e-17 0.0140374 0
   vertex 3.04111e-17 0.0146031 0.000565686
   vertex -0.00451259 0.0138883 0.000565686
  endloop
 endfacet
 facet normal 0.111298 -0.702719 0.702708
  outer loop
   vertex 1.67654e-17 0.0140374 0
   vertex -0.00451259 0.0138883 0.000565686
   vertex -0.00433779 0.0133503 0
  endloop
 endfacet
 facet normal 0.323004 -0.633931 0.702709
  outer loop
   vertex -0.00433779 0.0133503 0
   vertex -0.00451259 0.0138883 0.000565686
   vertex -0.00858346 0.0118141 0.000565686
  endloop
 endfacet
 facet normal 0.323003 -0.633926 0.702714
  outer loop
   vertex -0.00433779 0.0133503 0
   vertex -0.00858346 0.0118141 0.000565686
   vertex -0.00825096 0.0113565 0
  endloop
 endfacet
 facet normal 0.503087 -0.503087 0.702714
  outer loop
   vertex -0.00825096 0.0113565 0
   vertex -0.00858346 0.0118141 0.000565686
   vertex -0.0118141 0.00858346 0.000565686
  endloop
 endfacet
 facet normal 0.503087 -0.503087 0.702714
  outer loop
   vertex -0.00825096 0.0113565 0
   vertex -0.0118141 0.00858346 0.000565686
   vertex -0.0113565 0.00825096 0
  endloop
 endfacet
 facet normal 0.633927 -0.323002 0.702714
  outer loop
   vertex -0.0113565 0.00825096 0
   vertex -0.0118141 0.00858346 0.000565686
   vertex -0.0138883 0.00451259 0.000565686
  endloop
 endfacet
 facet normal 0.633931 -0.323005 0.702708
  outer loop
   vertex -0.0113565 0.00825096 0
   vertex -0.0138883 0.00451259 0.000565686
   vertex -0.0133503 0.00433779 0
  endloop
 endfacet
 facet normal 0.702719 -0.1113 0.702708
  outer loop
   vertex -0.0133503 0.00433779 0
   vertex -0.0138883 0.00451259 0.000565686
   vertex -0.0146031 1.78836e-18 0.000565686
  endloop
 endfacet
 facet normal 0.702711 -0.111297 0.702716
  outer loop
   vertex -0.0133503 0.00433779 0
   vertex -0.0146031 1.78836e-18 0.000565686
   vertex -0.0140374 -4.51476e-18 0
  endloop
 endfacet
 facet normal 0.156435 -0.987688 0
  outer loop
   vertex 3.04111e-17 0.0146031 0.000565686
   vertex -0.00451259 0.0138883 0.00134
   vertex -0.00451259 0.0138883 0.000565686
  endloop
 endfacet
 facet normal 0.45399 -0.891007 0
  outer loop
   vertex -0.00451259 0.0138883 0.000565686
   vertex -0.00451259 0.0138883 0.00134
   vertex -0.00858346 0.0118141 0.00134
  endloop
 endfacet
 facet normal 0.45399 -0.891007 0
  outer loop
   vertex -0.00451259 0.0138883 0.000565686
   vertex -0.00858346 0.0118141 0.00134
   vertex -0.00858346 0.0118141 0.000565686
  endloop
 endfacet
 facet normal 0.707107 -0.707107 0
  outer loop
   vertex -0.00858346 0.0118141 0.000565686
   vertex -0.00858346 0.0118141 0.00134
   vertex -0.0118141 0.00858346 0.00134
  endloop
 endfacet
 facet normal 0.707107 -0.707107 0
  outer loop
   vertex -0.00858346 0.0118141 0.000565686
   vertex -0.0118141 0.00858346 0.00134
   vertex -0.0118141 0.00858346 0.000565686
  endloop
 endfacet
 facet normal 0.891007 -0.45399 0
  outer loop
   vertex -0.0118141 0.00858346 0.000565686
   vertex -0.0118141 0.00858346 0.00134
   vertex -0.0138883 0.00451259 0.00134
  endloop
 endfacet
 facet normal 0.891007 -0.45399 0
  outer loop
   vertex -0.0118141 0.00858346 0.000565686
   vertex -0.0138883 0.00451259 0.00134
   vertex -0.0138883 0.00451259 0.000565686
  endloop
 endfacet
 facet normal 0.987688 -0.156435 0
  outer loop
   vertex -0.0138883 0.00451259 0.000565686
   vertex -0.0138883 0.00451259 0.00134
   vertex -0.0146031 -3.13053e-17 0.00134
  endloop
 endfacet
 facet normal 0.987688 -0.156435 -6.70402e-15
  outer loop
   vertex -0.0138883 0.00451259 0.000565686
   vertex -0.0146031 -3.13053e-17 0.00134
   vertex -0.0146031 1.78836e-18 0.000565686
  endloop
 endfacet
 facet normal 0.156435 -0.987688 9.21803e-15
  outer loop
   vertex -0.00451259 0.0138883 0.00134
   vertex 3.04111e-17 0.0146031 0.000565686
   vertex -1.56527e-17 0.0146031 0.00134
  endloop
 endfacet
 facet normal -0.156435 -0.987688 -9.30633e-15
  outer loop
   vertex -1.56527e-17 0.0146031 0.00134
   vertex 3.04111e-17 0.0146031 0.000565686
   vertex 0.00451259 0.0138883 0.000565686
  endloop
 endfacet
 facet normal -0.156435 -0.987688 0
  outer loop
   vertex -1.56527e-17 0.0146031 0.00134
   vertex 0.00451259 0.0138883 0.000565686
   vertex 0.00451259 0.0138883 0.00134
  endloop
 endfacet
 facet normal -0.45399 -0.891007 -0
  outer loop
   vertex 0.00451259 0.0138883 0.00134
   vertex 0.00451259 0.0138883 0.000565686
   vertex 0.00858346 0.0118141 0.000565686
  endloop
 endfacet
 facet normal -0.45399 -0.891007 0
  outer loop
   vertex 0.00451259 0.0138883 0.00134
   vertex 0.00858346 0.0118141 0.000565686
   vertex 0.00858346 0.0118141 0.00134
  endloop
 endfacet
 facet normal -0.707107 -0.707107 -0
  outer loop
   vertex 0.00858346 0.0118141 0.00134
   vertex 0.00858346 0.0118141 0.000565686
   vertex 0.0118141 0.00858346 0.000565686
  endloop
 endfacet
 facet normal -0.707107 -0.707107 0
  outer loop
   vertex 0.00858346 0.0118141 0.00134
   vertex 0.0118141 0.00858346 0.000565686
   vertex 0.0118141 0.00858346 0.00134
  endloop
 endfacet
 facet normal -0.891007 -0.45399 -0
  outer loop
   vertex 0.0118141 0.00858346 0.00134
   vertex 0.0118141 0.00858346 0.000565686
   vertex 0.0138883 0.00451259 0.000565686
  endloop
 endfacet
 facet normal -0.891007 -0.45399 0
  outer loop
   vertex 0.0118141 0.00858346 0.00134
   vertex 0.0138883 0.00451259 0.000565686
   vertex 0.0138883 0.00451259 0.00134
  endloop
 endfacet
 facet normal -0.987688 -0.156435 -0
  outer loop
   vertex 0.0138883 0.00451259 0.00134
   vertex 0.0138883 0.00451259 0.000565686
   vertex 0.0146031 -1.65468e-17 0.000565686
  endloop
 endfacet
 facet normal -0.987688 -0.156435 6.70402e-15
  outer loop
   vertex 0.0138883 0.00451259 0.00134
   vertex 0.0146031 -1.65468e-17 0.000565686
   vertex 0.0146031 1.65468e-17 0.00134
  endloop
 endfacet
 facet normal 0.109016 -0.688294 -0.717194
  outer loop
   vertex -1.56527e-17 0.0146031 0.00134
   vertex -0.004138 0.0127354 0.00250336
   vertex -0.00451259 0.0138883 0.00134
  endloop
 endfacet
 facet normal 0.316374 -0.620919 -0.717194
  outer loop
   vertex -0.00451259 0.0138883 0.00134
   vertex -0.004138 0.0127354 0.00250336
   vertex -0.00787094 0.0108334 0.00250336
  endloop
 endfacet
 facet normal 0.316373 -0.620918 -0.717195
  outer loop
   vertex -0.00451259 0.0138883 0.00134
   vertex -0.00787094 0.0108334 0.00250336
   vertex -0.00858346 0.0118141 0.00134
  endloop
 endfacet
 facet normal 0.492763 -0.492763 -0.717195
  outer loop
   vertex -0.00858346 0.0118141 0.00134
   vertex -0.00787094 0.0108334 0.00250336
   vertex -0.0108334 0.00787094 0.00250336
  endloop
 endfacet
 facet normal 0.492763 -0.492763 -0.717195
  outer loop
   vertex -0.00858346 0.0118141 0.00134
   vertex -0.0108334 0.00787094 0.00250336
   vertex -0.0118141 0.00858346 0.00134
  endloop
 endfacet
 facet normal 0.620918 -0.316374 -0.717195
  outer loop
   vertex -0.0118141 0.00858346 0.00134
   vertex -0.0108334 0.00787094 0.00250336
   vertex -0.0127354 0.004138 0.00250336
  endloop
 endfacet
 facet normal 0.620919 -0.316374 -0.717194
  outer loop
   vertex -0.0118141 0.00858346 0.00134
   vertex -0.0127354 0.004138 0.00250336
   vertex -0.0138883 0.00451259 0.00134
  endloop
 endfacet
 facet normal 0.688294 -0.109014 -0.717194
  outer loop
   vertex -0.0138883 0.00451259 0.00134
   vertex -0.0127354 0.004138 0.00250336
   vertex -0.0133908 -4.91972e-18 0.00250336
  endloop
 endfacet
 facet normal 0.688291 -0.109015 -0.717196
  outer loop
   vertex -0.0138883 0.00451259 0.00134
   vertex -0.0133908 -4.91972e-18 0.00250336
   vertex -0.0146031 -3.13053e-17 0.00134
  endloop
 endfacet
 facet normal 0.109014 -0.688291 -0.717197
  outer loop
   vertex -0.004138 0.0127354 0.00250336
   vertex -1.56527e-17 0.0146031 0.00134
   vertex -2.45986e-18 0.0133908 0.00250336
  endloop
 endfacet
 facet normal -0.109015 -0.688291 -0.717196
  outer loop
   vertex -2.45986e-18 0.0133908 0.00250336
   vertex -1.56527e-17 0.0146031 0.00134
   vertex 0.00451259 0.0138883 0.00134
  endloop
 endfacet
 facet normal -0.109014 -0.688294 -0.717194
  outer loop
   vertex -2.45986e-18 0.0133908 0.00250336
   vertex 0.00451259 0.0138883 0.00134
   vertex 0.004138 0.0127354 0.00250336
  endloop
 endfacet
 facet normal -0.316374 -0.620919 -0.717194
  outer loop
   vertex 0.004138 0.0127354 0.00250336
   vertex 0.00451259 0.0138883 0.00134
   vertex 0.00858346 0.0118141 0.00134
  endloop
 endfacet
 facet normal -0.316374 -0.620918 -0.717195
  outer loop
   vertex 0.004138 0.0127354 0.00250336
   vertex 0.00858346 0.0118141 0.00134
   vertex 0.00787094 0.0108334 0.00250336
  endloop
 endfacet
 facet normal -0.492763 -0.492763 -0.717195
  outer loop
   vertex 0.00787094 0.0108334 0.00250336
   vertex 0.00858346 0.0118141 0.00134
   vertex 0.0118141 0.00858346 0.00134
  endloop
 endfacet
 facet normal -0.492763 -0.492763 -0.717195
  outer loop
   vertex 0.00787094 0.0108334 0.00250336
   vertex 0.0118141 0.00858346 0.00134
   vertex 0.0108334 0.00787094 0.00250336
  endloop
 endfacet
 facet normal -0.620918 -0.316373 -0.717195
  outer loop
   vertex 0.0108334 0.00787094 0.00250336
   vertex 0.0118141 0.00858346 0.00134
   vertex 0.0138883 0.00451259 0.00134
  endloop
 endfacet
 facet normal -0.620919 -0.316374 -0.717194
  outer loop
   vertex 0.0108334 0.00787094 0.00250336
   vertex 0.0138883 0.00451259 0.00134
   vertex 0.0127354 0.004138 0.00250336
  endloop
 endfacet
 facet normal -0.688294 -0.109016 -0.717194
  outer loop
   vertex 0.0127354 0.004138 0.00250336
   vertex 0.0138883 0.00451259 0.00134
   vertex 0.0146031 1.65468e-17 0.00134
  endloop
 endfacet
 facet normal -0.688291 -0.109014 -0.717197
  outer loop
   vertex 0.0127354 0.004138 0.00250336
   vertex 0.0146031 1.65468e-17 0.00134
   vertex 0.0133908 1.51733e-17 0.00250336
  endloop
 endfacet
 facet normal -0.33071 -0.0657824 -0.941437
  outer loop
   vertex 0.0082303 0.0034091 0.00413687
   vertex 0.0127354 0.004138 0.00250336
   vertex 0.00890841 -2.18193e-18 0.00413687
  endloop
 endfacet
 facet normal -0.341896 -0.0541506 -0.938176
  outer loop
   vertex 0.0127354 0.004138 0.00250336
   vertex 0.0133908 1.51733e-17 0.00250336
   vertex 0.00890841 -2.18193e-18 0.00413687
  endloop
 endfacet
 facet normal 0.341896 -0.0541506 -0.938176
  outer loop
   vertex -0.0133908 -4.91972e-18 0.00250336
   vertex -0.0127354 0.004138 0.00250336
   vertex -0.00890841 1.09097e-18 0.00413687
  endloop
 endfacet
 facet normal 0.33071 -0.0657824 -0.941437
  outer loop
   vertex -0.0127354 0.004138 0.00250336
   vertex -0.0082303 0.0034091 0.00413687
   vertex -0.00890841 1.09097e-18 0.00413687
  endloop
 endfacet
 facet normal 0.313547 -0.159761 -0.936037
  outer loop
   vertex -0.0127354 0.004138 0.00250336
   vertex -0.0108334 0.00787094 0.00250336
   vertex -0.0082303 0.0034091 0.00413687
  endloop
 endfacet
 facet normal 0.250218 -0.250218 -0.935298
  outer loop
   vertex -0.0108334 0.00787094 0.00250336
   vertex -0.00787094 0.0108334 0.00250336
   vertex -0.0062992 0.0062992 0.00413687
  endloop
 endfacet
 facet normal 0.275935 -0.184374 -0.943327
  outer loop
   vertex -0.0082303 0.0034091 0.00413687
   vertex -0.0108334 0.00787094 0.00250336
   vertex -0.0062992 0.0062992 0.00413687
  endloop
 endfacet
 facet normal 0.159761 -0.313547 -0.936037
  outer loop
   vertex -0.00787094 0.0108334 0.00250336
   vertex -0.004138 0.0127354 0.00250336
   vertex -0.0034091 0.0082303 0.00413687
  endloop
 endfacet
 facet normal 0.184374 -0.275935 -0.943327
  outer loop
   vertex -0.0062992 0.0062992 0.00413687
   vertex -0.00787094 0.0108334 0.00250336
   vertex -0.0034091 0.0082303 0.00413687
  endloop
 endfacet
 facet normal 0.0541506 -0.341896 -0.938176
  outer loop
   vertex -0.004138 0.0127354 0.00250336
   vertex -2.45986e-18 0.0133908 0.00250336
   vertex 2.72741e-18 0.00890841 0.00413687
  endloop
 endfacet
 facet normal 0.0657824 -0.33071 -0.941437
  outer loop
   vertex -0.0034091 0.0082303 0.00413687
   vertex -0.004138 0.0127354 0.00250336
   vertex 2.72741e-18 0.00890841 0.00413687
  endloop
 endfacet
 facet normal -0.159761 -0.313547 -0.936037
  outer loop
   vertex 0.004138 0.0127354 0.00250336
   vertex 0.00787094 0.0108334 0.00250336
   vertex 0.0034091 0.0082303 0.00413687
  endloop
 endfacet
 facet normal -0.0657824 -0.33071 -0.941437
  outer loop
   vertex 2.72741e-18 0.00890841 0.00413687
   vertex 0.004138 0.0127354 0.00250336
   vertex 0.0034091 0.0082303 0.00413687
  endloop
 endfacet
 facet normal -0.250218 -0.250218 -0.935298
  outer loop
   vertex 0.00787094 0.0108334 0.00250336
   vertex 0.0108334 0.00787094 0.00250336
   vertex 0.0062992 0.0062992 0.00413687
  endloop
 endfacet
 facet normal -0.184374 -0.275935 -0.943327
  outer loop
   vertex 0.0034091 0.0082303 0.00413687
   vertex 0.00787094 0.0108334 0.00250336
   vertex 0.0062992 0.0062992 0.00413687
  endloop
 endfacet
 facet normal -0.313547 -0.159761 -0.936037
  outer loop
   vertex 0.0108334 0.00787094 0.00250336
   vertex 0.0127354 0.004138 0.00250336
   vertex 0.0082303 0.0034091 0.00413687
  endloop
 endfacet
 facet normal -0.275935 -0.184374 -0.943327
  outer loop
   vertex 0.0062992 0.0062992 0.00413687
   vertex 0.0108334 0.00787094 0.00250336
   vertex 0.0082303 0.0034091 0.00413687
  endloop
 endfacet
 facet normal -0.0541506 -0.341896 -0.938176
  outer loop
   vertex -2.45986e-18 0.0133908 0.00250336
   vertex 0.004138 0.0127354 0.00250336
   vertex 2.72741e-18 0.00890841 0.00413687
  endloop
 endfacet
 facet normal 0.52401 -0.0689872 -0.848913
  outer loop
   vertex -0.00890841 1.09097e-18 0.00413687
   vertex -0.00581342 0.0015577 0.00592074
   vertex -0.00601849 7.37053e-19 0.00592074
  endloop
 endfacet
 facet normal 0.53627 -0.106671 -0.837279
  outer loop
   vertex -0.00890841 1.09097e-18 0.00413687
   vertex -0.0082303 0.0034091 0.00413687
   vertex -0.00581342 0.0015577 0.00592074
  endloop
 endfacet
 facet normal -0.53627 -0.106671 -0.837279
  outer loop
   vertex 0.00890841 -2.18193e-18 0.00413687
   vertex 0.00581342 0.0015577 0.00592074
   vertex 0.0082303 0.0034091 0.00413687
  endloop
 endfacet
 facet normal -0.52401 -0.0689872 -0.848913
  outer loop
   vertex 0.00890841 -2.18193e-18 0.00413687
   vertex 0.00601849 -1.4741e-18 0.00592074
   vertex 0.00581342 0.0015577 0.00592074
  endloop
 endfacet
 facet normal 0.921667 -0.299468 -0.246675
  outer loop
   vertex -0.00338456 1.91753e-18 0.0120291
   vertex -0.00393238 0.00105368 0.0087031
   vertex -0.00273817 0.00198939 0.0120291
  endloop
 endfacet
 facet normal 0.971314 -0.127875 -0.200492
  outer loop
   vertex -0.00338456 1.91753e-18 0.0120291
   vertex -0.0040711 4.98566e-19 0.0087031
   vertex -0.00393238 0.00105368 0.0087031
  endloop
 endfacet
 facet normal -0.778497 -0.597362 -0.192615
  outer loop
   vertex 0.00273817 0.00198939 0.0120291
   vertex 0.0028787 0.0028787 0.0087031
   vertex 0.00352567 0.00203555 0.0087031
  endloop
 endfacet
 facet normal -0.454628 -0.303773 -0.837279
  outer loop
   vertex 0.00521217 0.00300924 0.00592074
   vertex 0.0062992 0.0062992 0.00413687
   vertex 0.0082303 0.0034091 0.00413687
  endloop
 endfacet
 facet normal -0.479083 -0.198443 -0.855044
  outer loop
   vertex 0.00521217 0.00300924 0.00592074
   vertex 0.0082303 0.0034091 0.00413687
   vertex 0.00581342 0.0015577 0.00592074
  endloop
 endfacet
 facet normal -0.375319 -0.906098 -0.195247
  outer loop
   vertex 0.00104589 0.00321891 0.0120291
   vertex 0.00105368 0.00393238 0.0087031
   vertex 0.00203555 0.00352567 0.0087031
  endloop
 endfacet
 facet normal -0.570301 -0.784952 -0.24209
  outer loop
   vertex 0.00104589 0.00321891 0.0120291
   vertex 0.00203555 0.00352567 0.0087031
   vertex 0.00273817 0.00198939 0.0120291
  endloop
 endfacet
 facet normal -0.59224 -0.771822 -0.231391
  outer loop
   vertex 0.00273817 0.00198939 0.0120291
   vertex 0.00203555 0.00352567 0.0087031
   vertex 0.0028787 0.0028787 0.0087031
  endloop
 endfacet
 facet normal -0.303773 -0.454628 -0.837279
  outer loop
   vertex 0.00300924 0.00521217 0.00592074
   vertex 0.0034091 0.0082303 0.00413687
   vertex 0.0062992 0.0062992 0.00413687
  endloop
 endfacet
 facet normal -0.32175 -0.419313 -0.848913
  outer loop
   vertex 0.00300924 0.00521217 0.00592074
   vertex 0.0062992 0.0062992 0.00413687
   vertex 0.00425572 0.00425572 0.00592074
  endloop
 endfacet
 facet normal -0.106671 -0.53627 -0.837279
  outer loop
   vertex 0.0015577 0.00581342 0.00592074
   vertex 2.72741e-18 0.00890841 0.00413687
   vertex 0.0034091 0.0082303 0.00413687
  endloop
 endfacet
 facet normal -0.198443 -0.479083 -0.855044
  outer loop
   vertex 0.0015577 0.00581342 0.00592074
   vertex 0.0034091 0.0082303 0.00413687
   vertex 0.00300924 0.00521217 0.00592074
  endloop
 endfacet
 facet normal 0.375319 -0.906098 -0.195247
  outer loop
   vertex -0.00104589 0.00321891 0.0120291
   vertex -0.00203555 0.00352567 0.0087031
   vertex -0.00105368 0.00393238 0.0087031
  endloop
 endfacet
 facet normal 0 -0.977757 -0.20974
  outer loop
   vertex -0.00104589 0.00321891 0.0120291
   vertex -0.00105368 0.00393238 0.0087031
   vertex 0.00104589 0.00321891 0.0120291
  endloop
 endfacet
 facet normal 0.12519 -0.950913 -0.283007
  outer loop
   vertex 0.00104589 0.00321891 0.0120291
   vertex -0.00105368 0.00393238 0.0087031
   vertex 1.24641e-18 0.0040711 0.0087031
  endloop
 endfacet
 facet normal -0.127662 -0.969696 -0.208309
  outer loop
   vertex 0.00104589 0.00321891 0.0120291
   vertex 1.24641e-18 0.0040711 0.0087031
   vertex 0.00105368 0.00393238 0.0087031
  endloop
 endfacet
 facet normal 0.106671 -0.53627 -0.837279
  outer loop
   vertex -0.0015577 0.00581342 0.00592074
   vertex -0.0034091 0.0082303 0.00413687
   vertex 2.72741e-18 0.00890841 0.00413687
  endloop
 endfacet
 facet normal 0.0689872 -0.52401 -0.848913
  outer loop
   vertex -0.0015577 0.00581342 0.00592074
   vertex 2.72741e-18 0.00890841 0.00413687
   vertex 1.84263e-18 0.00601849 0.00592074
  endloop
 endfacet
 facet normal 0.303773 -0.454628 -0.837279
  outer loop
   vertex -0.00300924 0.00521217 0.00592074
   vertex -0.0062992 0.0062992 0.00413687
   vertex -0.0034091 0.0082303 0.00413687
  endloop
 endfacet
 facet normal 0.198443 -0.479083 -0.855044
  outer loop
   vertex -0.00300924 0.00521217 0.00592074
   vertex -0.0034091 0.0082303 0.00413687
   vertex -0.0015577 0.00581342 0.00592074
  endloop
 endfacet
 facet normal 0.778497 -0.597362 -0.192615
  outer loop
   vertex -0.00273817 0.00198939 0.0120291
   vertex -0.00352567 0.00203555 0.0087031
   vertex -0.0028787 0.0028787 0.0087031
  endloop
 endfacet
 facet normal 0.571406 -0.786473 -0.234428
  outer loop
   vertex -0.00273817 0.00198939 0.0120291
   vertex -0.0028787 0.0028787 0.0087031
   vertex -0.00104589 0.00321891 0.0120291
  endloop
 endfacet
 facet normal 0.589982 -0.76888 -0.246464
  outer loop
   vertex -0.00104589 0.00321891 0.0120291
   vertex -0.0028787 0.0028787 0.0087031
   vertex -0.00203555 0.00352567 0.0087031
  endloop
 endfacet
 facet normal 0.454628 -0.303773 -0.837279
  outer loop
   vertex -0.00521217 0.00300924 0.00592074
   vertex -0.0082303 0.0034091 0.00413687
   vertex -0.0062992 0.0062992 0.00413687
  endloop
 endfacet
 facet normal 0.419313 -0.32175 -0.848913
  outer loop
   vertex -0.00521217 0.00300924 0.00592074
   vertex -0.0062992 0.0062992 0.00413687
   vertex -0.00425572 0.00425572 0.00592074
  endloop
 endfacet
 facet normal 0.901527 -0.373425 -0.218637
  outer loop
   vertex -0.00273817 0.00198939 0.0120291
   vertex -0.00393238 0.00105368 0.0087031
   vertex -0.00352567 0.00203555 0.0087031
  endloop
 endfacet
 facet normal 0.479083 -0.198443 -0.855044
  outer loop
   vertex -0.00581342 0.0015577 0.00592074
   vertex -0.0082303 0.0034091 0.00413687
   vertex -0.00521217 0.00300924 0.00592074
  endloop
 endfacet
 facet normal -0.419313 -0.32175 -0.848913
  outer loop
   vertex 0.0062992 0.0062992 0.00413687
   vertex 0.00521217 0.00300924 0.00592074
   vertex 0.00425572 0.00425572 0.00592074
  endloop
 endfacet
 facet normal -0.0689872 -0.52401 -0.848913
  outer loop
   vertex 2.72741e-18 0.00890841 0.00413687
   vertex 0.0015577 0.00581342 0.00592074
   vertex 1.84263e-18 0.00601849 0.00592074
  endloop
 endfacet
 facet normal 0.32175 -0.419313 -0.848913
  outer loop
   vertex -0.0062992 0.0062992 0.00413687
   vertex -0.00300924 0.00521217 0.00592074
   vertex -0.00425572 0.00425572 0.00592074
  endloop
 endfacet
 facet normal -0.926964 -0.301189 -0.223657
  outer loop
   vertex 0.00338456 -3.83507e-18 0.0120291
   vertex 0.00273817 0.00198939 0.0120291
   vertex 0.00352567 0.00203555 0.0087031
  endloop
 endfacet
 facet normal -0.891173 -0.369136 -0.263723
  outer loop
   vertex 0.00338456 -3.83507e-18 0.0120291
   vertex 0.00352567 0.00203555 0.0087031
   vertex 0.00393238 0.00105368 0.0087031
  endloop
 endfacet
 facet normal -0.971314 -0.127875 -0.200492
  outer loop
   vertex 0.00338456 -3.83507e-18 0.0120291
   vertex 0.00393238 0.00105368 0.0087031
   vertex 0.0040711 -9.97131e-19 0.0087031
  endloop
 endfacet
 facet normal -0.814543 -0.107236 -0.570105
  outer loop
   vertex 0.00601849 -1.4741e-18 0.00592074
   vertex 0.0040711 -9.97131e-19 0.0087031
   vertex 0.00581342 0.0015577 0.00592074
  endloop
 endfacet
 facet normal -0.814543 -0.107236 -0.570105
  outer loop
   vertex 0.00581342 0.0015577 0.00592074
   vertex 0.0040711 -9.97131e-19 0.0087031
   vertex 0.00393238 0.00105368 0.0087031
  endloop
 endfacet
 facet normal -0.759033 -0.314402 -0.570105
  outer loop
   vertex 0.00581342 0.0015577 0.00592074
   vertex 0.00393238 0.00105368 0.0087031
   vertex 0.00521217 0.00300924 0.00592074
  endloop
 endfacet
 facet normal -0.759033 -0.314402 -0.570105
  outer loop
   vertex 0.00521217 0.00300924 0.00592074
   vertex 0.00393238 0.00105368 0.0087031
   vertex 0.00352567 0.00203555 0.0087031
  endloop
 endfacet
 facet normal -0.651797 -0.500141 -0.570105
  outer loop
   vertex 0.00521217 0.00300924 0.00592074
   vertex 0.00352567 0.00203555 0.0087031
   vertex 0.00425572 0.00425572 0.00592074
  endloop
 endfacet
 facet normal -0.651797 -0.500141 -0.570105
  outer loop
   vertex 0.00425572 0.00425572 0.00592074
   vertex 0.00352567 0.00203555 0.0087031
   vertex 0.0028787 0.0028787 0.0087031
  endloop
 endfacet
 facet normal -0.500141 -0.651797 -0.570105
  outer loop
   vertex 0.00425572 0.00425572 0.00592074
   vertex 0.0028787 0.0028787 0.0087031
   vertex 0.00300924 0.00521217 0.00592074
  endloop
 endfacet
 facet normal -0.500141 -0.651797 -0.570105
  outer loop
   vertex 0.00300924 0.00521217 0.00592074
   vertex 0.0028787 0.0028787 0.0087031
   vertex 0.00203555 0.00352567 0.0087031
  endloop
 endfacet
 facet normal -0.314402 -0.759033 -0.570105
  outer loop
   vertex 0.00300924 0.00521217 0.00592074
   vertex 0.00203555 0.00352567 0.0087031
   vertex 0.0015577 0.00581342 0.00592074
  endloop
 endfacet
 facet normal -0.314402 -0.759033 -0.570105
  outer loop
   vertex 0.0015577 0.00581342 0.00592074
   vertex 0.00203555 0.00352567 0.0087031
   vertex 0.00105368 0.00393238 0.0087031
  endloop
 endfacet
 facet normal -0.107236 -0.814543 -0.570105
  outer loop
   vertex 0.0015577 0.00581342 0.00592074
   vertex 0.00105368 0.00393238 0.0087031
   vertex 1.84263e-18 0.00601849 0.00592074
  endloop
 endfacet
 facet normal -0.107236 -0.814543 -0.570105
  outer loop
   vertex 1.84263e-18 0.00601849 0.00592074
   vertex 0.00105368 0.00393238 0.0087031
   vertex 1.24641e-18 0.0040711 0.0087031
  endloop
 endfacet
 facet normal 0.107236 -0.814543 -0.570105
  outer loop
   vertex 1.84263e-18 0.00601849 0.00592074
   vertex 1.24641e-18 0.0040711 0.0087031
   vertex -0.0015577 0.00581342 0.00592074
  endloop
 endfacet
 facet normal 0.107236 -0.814543 -0.570105
  outer loop
   vertex -0.0015577 0.00581342 0.00592074
   vertex 1.24641e-18 0.0040711 0.0087031
   vertex -0.00105368 0.00393238 0.0087031
  endloop
 endfacet
 facet normal 0.314402 -0.759033 -0.570105
  outer loop
   vertex -0.0015577 0.00581342 0.00592074
   vertex -0.00105368 0.00393238 0.0087031
   vertex -0.00300924 0.00521217 0.00592074
  endloop
 endfacet
 facet normal 0.314402 -0.759033 -0.570105
  outer loop
   vertex -0.00300924 0.00521217 0.00592074
   vertex -0.00105368 0.00393238 0.0087031
   vertex -0.00203555 0.00352567 0.0087031
  endloop
 endfacet
 facet normal 0.500141 -0.651797 -0.570105
  outer loop
   vertex -0.00300924 0.00521217 0.00592074
   vertex -0.00203555 0.00352567 0.0087031
   vertex -0.00425572 0.00425572 0.00592074
  endloop
 endfacet
 facet normal 0.500141 -0.651797 -0.570105
  outer loop
   vertex -0.00425572 0.00425572 0.00592074
   vertex -0.00203555 0.00352567 0.0087031
   vertex -0.0028787 0.0028787 0.0087031
  endloop
 endfacet
 facet normal 0.651797 -0.500141 -0.570105
  outer loop
   vertex -0.00425572 0.00425572 0.00592074
   vertex -0.0028787 0.0028787 0.0087031
   vertex -0.00521217 0.00300924 0.00592074
  endloop
 endfacet
 facet normal 0.651797 -0.500141 -0.570105
  outer loop
   vertex -0.00521217 0.00300924 0.00592074
   vertex -0.0028787 0.0028787 0.0087031
   vertex -0.00352567 0.00203555 0.0087031
  endloop
 endfacet
 facet normal 0.759033 -0.314402 -0.570105
  outer loop
   vertex -0.00521217 0.00300924 0.00592074
   vertex -0.00352567 0.00203555 0.0087031
   vertex -0.00581342 0.0015577 0.00592074
  endloop
 endfacet
 facet normal 0.759033 -0.314402 -0.570105
  outer loop
   vertex -0.00581342 0.0015577 0.00592074
   vertex -0.00352567 0.00203555 0.0087031
   vertex -0.00393238 0.00105368 0.0087031
  endloop
 endfacet
 facet normal 0.814543 -0.107236 -0.570105
  outer loop
   vertex -0.00581342 0.0015577 0.00592074
   vertex -0.00393238 0.00105368 0.0087031
   vertex -0.00601849 7.37053e-19 0.00592074
  endloop
 endfacet
 facet normal 0.814543 -0.107236 -0.570105
  outer loop
   vertex -0.00601849 7.37053e-19 0.00592074
   vertex -0.00393238 0.00105368 0.0087031
   vertex -0.0040711 4.98566e-19 0.0087031
  endloop
 endfacet
 facet normal 0.587785 -0.809017 0
  outer loop
   vertex -0.00104589 0.00321891 0.0120291
   vertex -0.00273817 0.00198939 0.055
   vertex -0.00273817 0.00198939 0.0120291
  endloop
 endfacet
 facet normal 0.951057 -0.309017 0
  outer loop
   vertex -0.00273817 0.00198939 0.0120291
   vertex -0.00273817 0.00198939 0.055
   vertex -0.00338456 1.91753e-18 0.055
  endloop
 endfacet
 facet normal 0.951057 -0.309017 0
  outer loop
   vertex -0.00273817 0.00198939 0.0120291
   vertex -0.00338456 1.91753e-18 0.055
   vertex -0.00338456 1.91753e-18 0.0120291
  endloop
 endfacet
 facet normal 0.587785 -0.809017 0
  outer loop
   vertex -0.00273817 0.00198939 0.055
   vertex -0.00104589 0.00321891 0.0120291
   vertex -0.00104589 0.00321891 0.055
  endloop
 endfacet
 facet normal 0 -1 0
  outer loop
   vertex -0.00104589 0.00321891 0.055
   vertex -0.00104589 0.00321891 0.0120291
   vertex 0.00104589 0.00321891 0.0120291
  endloop
 endfacet
 facet normal 0 -1 0
  outer loop
   vertex -0.00104589 0.00321891 0.055
   vertex 0.00104589 0.00321891 0.0120291
   vertex 0.00104589 0.00321891 0.055
  endloop
 endfacet
 facet normal -0.587785 -0.809017 -0
  outer loop
   vertex 0.00104589 0.00321891 0.055
   vertex 0.00104589 0.00321891 0.0120291
   vertex 0.00273817 0.00198939 0.0120291
  endloop
 endfacet
 facet normal -0.587785 -0.809017 0
  outer loop
   vertex 0.00104589 0.00321891 0.055
   vertex 0.00273817 0.00198939 0.0120291
   vertex 0.00273817 0.00198939 0.055
  endloop
 endfacet
 facet normal -0.951057 -0.309017 -0
  outer loop
   vertex 0.00273817 0.00198939 0.055
   vertex 0.00273817 0.00198939 0.0120291
   vertex 0.00338456 -3.83507e-18 0.0120291
  endloop
 endfacet
 facet normal -0.951057 -0.309017 0
  outer loop
   vertex 0.00273817 0.00198939 0.055
   vertex 0.00338456 -3.83507e-18 0.0120291
   vertex 0.00338456 -3.83507e-18 0.055
  endloop
 endfacet
 facet normal 0.1113 0.702719 0.702708
  outer loop
   vertex -2.86228e-17 -0.0146031 0.000565686
   vertex -0.00433779 -0.0133503 0
   vertex -0.00451259 -0.0138883 0.000565686
  endloop
 endfacet
 facet normal 0.323005 0.633931 0.702708
  outer loop
   vertex -0.00451259 -0.0138883 0.000565686
   vertex -0.00433779 -0.0133503 0
   vertex -0.00825096 -0.0113565 0
  endloop
 endfacet
 facet normal 0.323002 0.633927 0.702714
  outer loop
   vertex -0.00451259 -0.0138883 0.000565686
   vertex -0.00825096 -0.0113565 0
   vertex -0.00858346 -0.0118141 0.000565686
  endloop
 endfacet
 facet normal 0.503087 0.503087 0.702714
  outer loop
   vertex -0.00858346 -0.0118141 0.000565686
   vertex -0.00825096 -0.0113565 0
   vertex -0.0113565 -0.00825096 0
  endloop
 endfacet
 facet normal 0.503087 0.503087 0.702714
  outer loop
   vertex -0.00858346 -0.0118141 0.000565686
   vertex -0.0113565 -0.00825096 0
   vertex -0.0118141 -0.00858346 0.000565686
  endloop
 endfacet
 facet normal 0.633926 0.323003 0.702714
  outer loop
   vertex -0.0118141 -0.00858346 0.000565686
   vertex -0.0113565 -0.00825096 0
   vertex -0.0133503 -0.00433779 0
  endloop
 endfacet
 facet normal 0.633931 0.323004 0.702709
  outer loop
   vertex -0.0118141 -0.00858346 0.000565686
   vertex -0.0133503 -0.00433779 0
   vertex -0.0138883 -0.00451259 0.000565686
  endloop
 endfacet
 facet normal 0.702719 0.111298 0.702708
  outer loop
   vertex -0.0138883 -0.00451259 0.000565686
   vertex -0.0133503 -0.00433779 0
   vertex -0.0140374 -4.51476e-18 0
  endloop
 endfacet
 facet normal 0.702711 0.111299 0.702716
  outer loop
   vertex -0.0138883 -0.00451259 0.000565686
   vertex -0.0140374 -4.51476e-18 0
   vertex -0.0146031 1.78836e-18 0.000565686
  endloop
 endfacet
 facet normal 0.111297 0.702711 0.702716
  outer loop
   vertex -0.00433779 -0.0133503 0
   vertex -2.86228e-17 -0.0146031 0.000565686
   vertex -2.57862e-18 -0.0140374 0
  endloop
 endfacet
 facet normal -0.111299 0.702711 0.702716
  outer loop
   vertex -2.57862e-18 -0.0140374 0
   vertex -2.86228e-17 -0.0146031 0.000565686
   vertex 0.00451259 -0.0138883 0.000565686
  endloop
 endfacet
 facet normal -0.111298 0.702719 0.702708
  outer loop
   vertex -2.57862e-18 -0.0140374 0
   vertex 0.00451259 -0.0138883 0.000565686
   vertex 0.00433779 -0.0133503 0
  endloop
 endfacet
 facet normal -0.323004 0.633931 0.702709
  outer loop
   vertex 0.00433779 -0.0133503 0
   vertex 0.00451259 -0.0138883 0.000565686
   vertex 0.00858346 -0.0118141 0.000565686
  endloop
 endfacet
 facet normal -0.323003 0.633926 0.702714
  outer loop
   vertex 0.00433779 -0.0133503 0
   vertex 0.00858346 -0.0118141 0.000565686
   vertex 0.00825096 -0.0113565 0
  endloop
 endfacet
 facet normal -0.503087 0.503087 0.702714
  outer loop
   vertex 0.00825096 -0.0113565 0
   vertex 0.00858346 -0.0118141 0.000565686
   vertex 0.0118141 -0.00858346 0.000565686
  endloop
 endfacet
 facet normal -0.503087 0.503087 0.702714
  outer loop
   vertex 0.00825096 -0.0113565 0
   vertex 0.0118141 -0.00858346 0.000565686
   vertex 0.0113565 -0.00825096 0
  endloop
 endfacet
 facet normal -0.633927 0.323002 0.702714
  outer loop
   vertex 0.0113565 -0.00825096 0
   vertex 0.0118141 -0.00858346 0.000565686
   vertex 0.0138883 -0.00451259 0.000565686
  endloop
 endfacet
 facet normal -0.633931 0.323005 0.702708
  outer loop
   vertex 0.0113565 -0.00825096 0
   vertex 0.0138883 -0.00451259 0.000565686
   vertex 0.0133503 -0.00433779 0
  endloop
 endfacet
 facet normal -0.702719 0.1113 0.702708
  outer loop
   vertex 0.0133503 -0.00433779 0
   vertex 0.0138883 -0.00451259 0.000565686
   vertex 0.0146031 -1.65468e-17 0.000565686
  endloop
 endfacet
 facet normal -0.702711 0.111297 0.702716
  outer loop
   vertex 0.0133503 -0.00433779 0
   vertex 0.0146031 -1.65468e-17 0.000565686
   vertex 0.0140374 -1.59059e-17 0
  endloop
 endfacet
 facet normal -0.156435 0.987688 0
  outer loop
   vertex -2.86228e-17 -0.0146031 0.000565686
   vertex 0.00451259 -0.0138883 0.00134
   vertex 0.00451259 -0.0138883 0.000565686
  endloop
 endfacet
 facet normal -0.45399 0.891007 0
  outer loop
   vertex 0.00451259 -0.0138883 0.000565686
   vertex 0.00451259 -0.0138883 0.00134
   vertex 0.00858346 -0.0118141 0.00134
  endloop
 endfacet
 facet normal -0.45399 0.891007 0
  outer loop
   vertex 0.00451259 -0.0138883 0.000565686
   vertex 0.00858346 -0.0118141 0.00134
   vertex 0.00858346 -0.0118141 0.000565686
  endloop
 endfacet
 facet normal -0.707107 0.707107 0
  outer loop
   vertex 0.00858346 -0.0118141 0.000565686
   vertex 0.00858346 -0.0118141 0.00134
   vertex 0.0118141 -0.00858346 0.00134
  endloop
 endfacet
 facet normal -0.707107 0.707107 0
  outer loop
   vertex 0.00858346 -0.0118141 0.000565686
   vertex 0.0118141 -0.00858346 0.00134
   vertex 0.0118141 -0.00858346 0.000565686
  endloop
 endfacet
 facet normal -0.891007 0.45399 0
  outer loop
   vertex 0.0118141 -0.00858346 0.000565686
   vertex 0.0118141 -0.00858346 0.00134
   vertex 0.0138883 -0.00451259 0.00134
  endloop
 endfacet
 facet normal -0.891007 0.45399 0
  outer loop
   vertex 0.0118141 -0.00858346 0.000565686
   vertex 0.0138883 -0.00451259 0.00134
   vertex 0.0138883 -0.00451259 0.000565686
  endloop
 endfacet
 facet normal -0.987688 0.156435 0
  outer loop
   vertex 0.0138883 -0.00451259 0.000565686
   vertex 0.0138883 -0.00451259 0.00134
   vertex 0.0146031 1.65468e-17 0.00134
  endloop
 endfacet
 facet normal -0.987688 0.156435 -6.70402e-15
  outer loop
   vertex 0.0138883 -0.00451259 0.000565686
   vertex 0.0146031 1.65468e-17 0.00134
   vertex 0.0146031 -1.65468e-17 0.000565686
  endloop
 endfacet
 facet normal -0.156435 0.987688 1.18517e-14
  outer loop
   vertex 0.00451259 -0.0138883 0.00134
   vertex -2.86228e-17 -0.0146031 0.000565686
   vertex 3.04111e-17 -0.0146031 0.00134
  endloop
 endfacet
 facet normal 0.156435 0.987688 -1.19267e-14
  outer loop
   vertex 3.04111e-17 -0.0146031 0.00134
   vertex -2.86228e-17 -0.0146031 0.000565686
   vertex -0.00451259 -0.0138883 0.000565686
  endloop
 endfacet
 facet normal 0.156435 0.987688 0
  outer loop
   vertex 3.04111e-17 -0.0146031 0.00134
   vertex -0.00451259 -0.0138883 0.000565686
   vertex -0.00451259 -0.0138883 0.00134
  endloop
 endfacet
 facet normal 0.45399 0.891007 0
  outer loop
   vertex -0.00451259 -0.0138883 0.00134
   vertex -0.00451259 -0.0138883 0.000565686
   vertex -0.00858346 -0.0118141 0.000565686
  endloop
 endfacet
 facet normal 0.45399 0.891007 0
  outer loop
   vertex -0.00451259 -0.0138883 0.00134
   vertex -0.00858346 -0.0118141 0.000565686
   vertex -0.00858346 -0.0118141 0.00134
  endloop
 endfacet
 facet normal 0.707107 0.707107 0
  outer loop
   vertex -0.00858346 -0.0118141 0.00134
   vertex -0.00858346 -0.0118141 0.000565686
   vertex -0.0118141 -0.00858346 0.000565686
  endloop
 endfacet
 facet normal 0.707107 0.707107 0
  outer loop
   vertex -0.00858346 -0.0118141 0.00134
   vertex -0.0118141 -0.00858346 0.000565686
   vertex -0.0118141 -0.00858346 0.00134
  endloop
 endfacet
 facet normal 0.891007 0.45399 0
  outer loop
   vertex -0.0118141 -0.00858346 0.00134
   vertex -0.0118141 -0.00858346 0.000565686
   vertex -0.0138883 -0.00451259 0.000565686
  endloop
 endfacet
 facet normal 0.891007 0.45399 0
  outer loop
   vertex -0.0118141 -0.00858346 0.00134
   vertex -0.0138883 -0.00451259 0.000565686
   vertex -0.0138883 -0.00451259 0.00134
  endloop
 endfacet
 facet normal 0.987688 0.156435 0
  outer loop
   vertex -0.0138883 -0.00451259 0.00134
   vertex -0.0138883 -0.00451259 0.000565686
   vertex -0.0146031 1.78836e-18 0.000565686
  endloop
 endfacet
 facet normal 0.987688 0.156435 6.70402e-15
  outer loop
   vertex -0.0138883 -0.00451259 0.00134
   vertex -0.0146031 1.78836e-18 0.000565686
   vertex -0.0146031 -3.13053e-17 0.00134
  endloop
 endfacet
 facet normal -0.109016 0.688294 -0.717194
  outer loop
   vertex 3.04111e-17 -0.0146031 0.00134
   vertex 0.004138 -0.0127354 0.00250336
   vertex 0.00451259 -0.0138883 0.00134
  endloop
 endfacet
 facet normal -0.316374 0.620919 -0.717194
  outer loop
   vertex 0.00451259 -0.0138883 0.00134
   vertex 0.004138 -0.0127354 0.00250336
   vertex 0.00787094 -0.0108334 0.00250336
  endloop
 endfacet
 facet normal -0.316373 0.620918 -0.717195
  outer loop
   vertex 0.00451259 -0.0138883 0.00134
   vertex 0.00787094 -0.0108334 0.00250336
   vertex 0.00858346 -0.0118141 0.00134
  endloop
 endfacet
 facet normal -0.492763 0.492763 -0.717195
  outer loop
   vertex 0.00858346 -0.0118141 0.00134
   vertex 0.00787094 -0.0108334 0.00250336
   vertex 0.0108334 -0.00787094 0.00250336
  endloop
 endfacet
 facet normal -0.492763 0.492763 -0.717195
  outer loop
   vertex 0.00858346 -0.0118141 0.00134
   vertex 0.0108334 -0.00787094 0.00250336
   vertex 0.0118141 -0.00858346 0.00134
  endloop
 endfacet
 facet normal -0.620918 0.316374 -0.717195
  outer loop
   vertex 0.0118141 -0.00858346 0.00134
   vertex 0.0108334 -0.00787094 0.00250336
   vertex 0.0127354 -0.004138 0.00250336
  endloop
 endfacet
 facet normal -0.620919 0.316374 -0.717194
  outer loop
   vertex 0.0118141 -0.00858346 0.00134
   vertex 0.0127354 -0.004138 0.00250336
   vertex 0.0138883 -0.00451259 0.00134
  endloop
 endfacet
 facet normal -0.688294 0.109014 -0.717194
  outer loop
   vertex 0.0138883 -0.00451259 0.00134
   vertex 0.0127354 -0.004138 0.00250336
   vertex 0.0133908 1.51733e-17 0.00250336
  endloop
 endfacet
 facet normal -0.688291 0.109015 -0.717196
  outer loop
   vertex 0.0138883 -0.00451259 0.00134
   vertex 0.0133908 1.51733e-17 0.00250336
   vertex 0.0146031 1.65468e-17 0.00134
  endloop
 endfacet
 facet normal -0.109014 0.688291 -0.717197
  outer loop
   vertex 0.004138 -0.0127354 0.00250336
   vertex 3.04111e-17 -0.0146031 0.00134
   vertex 4.09976e-18 -0.0133908 0.00250336
  endloop
 endfacet
 facet normal 0.109015 0.688291 -0.717196
  outer loop
   vertex 4.09976e-18 -0.0133908 0.00250336
   vertex 3.04111e-17 -0.0146031 0.00134
   vertex -0.00451259 -0.0138883 0.00134
  endloop
 endfacet
 facet normal 0.109014 0.688294 -0.717194
  outer loop
   vertex 4.09976e-18 -0.0133908 0.00250336
   vertex -0.00451259 -0.0138883 0.00134
   vertex -0.004138 -0.0127354 0.00250336
  endloop
 endfacet
 facet normal 0.316374 0.620919 -0.717194
  outer loop
   vertex -0.004138 -0.0127354 0.00250336
   vertex -0.00451259 -0.0138883 0.00134
   vertex -0.00858346 -0.0118141 0.00134
  endloop
 endfacet
 facet normal 0.316374 0.620918 -0.717195
  outer loop
   vertex -0.004138 -0.0127354 0.00250336
   vertex -0.00858346 -0.0118141 0.00134
   vertex -0.00787094 -0.0108334 0.00250336
  endloop
 endfacet
 facet normal 0.492763 0.492763 -0.717195
  outer loop
   vertex -0.00787094 -0.0108334 0.00250336
   vertex -0.00858346 -0.0118141 0.00134
   vertex -0.0118141 -0.00858346 0.00134
  endloop
 endfacet
 facet normal 0.492763 0.492763 -0.717195
  outer loop
   vertex -0.00787094 -0.0108334 0.00250336
   vertex -0.0118141 -0.00858346 0.00134
   vertex -0.0108334 -0.00787094 0.00250336
  endloop
 endfacet
 facet normal 0.620918 0.316373 -0.717195
  outer loop
   vertex -0.0108334 -0.00787094 0.00250336
   vertex -0.0118141 -0.00858346 0.00134
   vertex -0.0138883 -0.00451259 0.00134
  endloop
 endfacet
 facet normal 0.620919 0.316374 -0.717194
  outer loop
   vertex -0.0108334 -0.00787094 0.00250336
   vertex -0.0138883 -0.00451259 0.00134
   vertex -0.0127354 -0.004138 0.00250336
  endloop
 endfacet
 facet normal 0.688294 0.109016 -0.717194
  outer loop
   vertex -0.0127354 -0.004138 0.00250336
   vertex -0.0138883 -0.00451259 0.00134
   vertex -0.0146031 -3.13053e-17 0.00134
  endloop
 endfacet
 facet normal 0.688291 0.109014 -0.717197
  outer loop
   vertex -0.0127354 -0.004138 0.00250336
   vertex -0.0146031 -3.13053e-17 0.00134
   vertex -0.0133908 -4.91972e-18 0.00250336
  endloop
 endfacet
 facet normal 0.33071 0.0657824 -0.941437
  outer loop
   vertex -0.0082303 -0.0034091 0.00413687
   vertex -0.0127354 -0.004138 0.00250336
   vertex -0.00890841 1.09097e-18 0.00413687
  endloop
 endfacet
 facet normal 0.341896 0.0541506 -0.938176
  outer loop
   vertex -0.0127354 -0.004138 0.00250336
   vertex -0.0133908 -4.91972e-18 0.00250336
   vertex -0.00890841 1.09097e-18 0.00413687
  endloop
 endfacet
 facet normal -0.341896 0.0541506 -0.938176
  outer loop
   vertex 0.0133908 1.51733e-17 0.00250336
   vertex 0.0127354 -0.004138 0.00250336
   vertex 0.00890841 -2.18193e-18 0.00413687
  endloop
 endfacet
 facet normal -0.33071 0.0657824 -0.941437
  outer loop
   vertex 0.0127354 -0.004138 0.00250336
   vertex 0.0082303 -0.0034091 0.00413687
   vertex 0.00890841 -2.18193e-18 0.00413687
  endloop
 endfacet
 facet normal -0.313547 0.159761 -0.936037
  outer loop
   vertex 0.0127354 -0.004138 0.00250336
   vertex 0.0108334 -0.00787094 0.00250336
   vertex 0.0082303 -0.0034091 0.00413687
  endloop
 endfacet
 facet normal -0.250218 0.250218 -0.935298
  outer loop
   vertex 0.0108334 -0.00787094 0.00250336
   vertex 0.00787094 -0.0108334 0.00250336
   vertex 0.0062992 -0.0062992 0.00413687
  endloop
 endfacet
 facet normal -0.275935 0.184374 -0.943327
  outer loop
   vertex 0.0082303 -0.0034091 0.00413687
   vertex 0.0108334 -0.00787094 0.00250336
   vertex 0.0062992 -0.0062992 0.00413687
  endloop
 endfacet
 facet normal -0.159761 0.313547 -0.936037
  outer loop
   vertex 0.00787094 -0.0108334 0.00250336
   vertex 0.004138 -0.0127354 0.00250336
   vertex 0.0034091 -0.0082303 0.00413687
  endloop
 endfacet
 facet normal -0.184374 0.275935 -0.943327
  outer loop
   vertex 0.0062992 -0.0062992 0.00413687
   vertex 0.00787094 -0.0108334 0.00250336
   vertex 0.0034091 -0.0082303 0.00413687
  endloop
 endfacet
 facet normal -0.0541506 0.341896 -0.938176
  outer loop
   vertex 0.004138 -0.0127354 0.00250336
   vertex 4.09976e-18 -0.0133908 0.00250336
   vertex -1.63645e-18 -0.00890841 0.00413687
  endloop
 endfacet
 facet normal -0.0657824 0.33071 -0.941437
  outer loop
   vertex 0.0034091 -0.0082303 0.00413687
   vertex 0.004138 -0.0127354 0.00250336
   vertex -1.63645e-18 -0.00890841 0.00413687
  endloop
 endfacet
 facet normal 0.159761 0.313547 -0.936037
  outer loop
   vertex -0.004138 -0.0127354 0.00250336
   vertex -0.00787094 -0.0108334 0.00250336
   vertex -0.0034091 -0.0082303 0.00413687
  endloop
 endfacet
 facet normal 0.0657824 0.33071 -0.941437
  outer loop
   vertex -1.63645e-18 -0.00890841 0.00413687
   vertex -0.004138 -0.0127354 0.00250336
   vertex -0.0034091 -0.0082303 0.00413687
  endloop
 endfacet
 facet normal 0.250218 0.250218 -0.935298
  outer loop
   vertex -0.00787094 -0.0108334 0.00250336
   vertex -0.0108334 -0.00787094 0.00250336
   vertex -0.0062992 -0.0062992 0.00413687
  endloop
 endfacet
 facet normal 0.184374 0.275935 -0.943327
  outer loop
   vertex -0.0034091 -0.0082303 0.00413687
   vertex -0.00787094 -0.0108334 0.00250336
   vertex -0.0062992 -0.0062992 0.00413687
  endloop
 endfacet
 facet normal 0.313547 0.159761 -0.936037
  outer loop
   vertex -0.0108334 -0.00787094 0.00250336
   vertex -0.0127354 -0.004138 0.00250336
   vertex -0.0082303 -0.0034091 0.00413687
  endloop
 endfacet
 facet normal 0.275935 0.184374 -0.943327
  outer loop
   vertex -0.0062992 -0.0062992 0.00413687
   vertex -0.0108334 -0.00787094 0.00250336
   vertex -0.0082303 -0.0034091 0.00413687
  endloop
 endfacet
 facet normal 0.0541506 0.341896 -0.938176
  outer loop
   vertex 4.09976e-18 -0.0133908 0.00250336
   vertex -0.004138 -0.0127354 0.00250336
   vertex -1.63645e-18 -0.00890841 0.00413687
  endloop
 endfacet
 facet normal -0.52401 0.0689872 -0.848913
  outer loop
   vertex 0.00890841 -2.18193e-18 0.00413687
   vertex 0.00581342 -0.0015577 0.00592074
   vertex 0.00601849 -1.4741e-18 0.00592074
  endloop
 endfacet
 facet normal -0.53627 0.106671 -0.837279
  outer loop
   vertex 0.00890841 -2.18193e-18 0.00413687
   vertex 0.0082303 -0.0034091 0.00413687
   vertex 0.00581342 -0.0015577 0.00592074
  endloop
 endfacet
 facet normal 0.53627 0.106671 -0.837279
  outer loop
   vertex -0.00890841 1.09097e-18 0.00413687
   vertex -0.00581342 -0.0015577 0.00592074
   vertex -0.0082303 -0.0034091 0.00413687
  endloop
 endfacet
 facet normal 0.52401 0.0689872 -0.848913
  outer loop
   vertex -0.00890841 1.09097e-18 0.00413687
   vertex -0.00601849 7.37053e-19 0.00592074
   vertex -0.00581342 -0.0015577 0.00592074
  endloop
 endfacet
 facet normal -0.921667 0.299468 -0.246675
  outer loop
   vertex 0.00338456 -3.83507e-18 0.0120291
   vertex 0.00393238 -0.00105368 0.0087031
   vertex 0.00273817 -0.00198939 0.0120291
  endloop
 endfacet
 facet normal -0.971314 0.127875 -0.200492
  outer loop
   vertex 0.00338456 -3.83507e-18 0.0120291
   vertex 0.0040711 -9.97131e-19 0.0087031
   vertex 0.00393238 -0.00105368 0.0087031
  endloop
 endfacet
 facet normal 0.778497 0.597362 -0.192615
  outer loop
   vertex -0.00273817 -0.00198939 0.0120291
   vertex -0.0028787 -0.0028787 0.0087031
   vertex -0.00352567 -0.00203555 0.0087031
  endloop
 endfacet
 facet normal 0.454628 0.303773 -0.837279
  outer loop
   vertex -0.00521217 -0.00300924 0.00592074
   vertex -0.0062992 -0.0062992 0.00413687
   vertex -0.0082303 -0.0034091 0.00413687
  endloop
 endfacet
 facet normal 0.479083 0.198443 -0.855044
  outer loop
   vertex -0.00521217 -0.00300924 0.00592074
   vertex -0.0082303 -0.0034091 0.00413687
   vertex -0.00581342 -0.0015577 0.00592074
  endloop
 endfacet
 facet normal 0.375319 0.906098 -0.195247
  outer loop
   vertex -0.00104589 -0.00321891 0.0120291
   vertex -0.00105368 -0.00393238 0.0087031
   vertex -0.00203555 -0.00352567 0.0087031
  endloop
 endfacet
 facet normal 0.570301 0.784952 -0.24209
  outer loop
   vertex -0.00104589 -0.00321891 0.0120291
   vertex -0.00203555 -0.00352567 0.0087031
   vertex -0.00273817 -0.00198939 0.0120291
  endloop
 endfacet
 facet normal 0.59224 0.771822 -0.231391
  outer loop
   vertex -0.00273817 -0.00198939 0.0120291
   vertex -0.00203555 -0.00352567 0.0087031
   vertex -0.0028787 -0.0028787 0.0087031
  endloop
 endfacet
 facet normal 0.303773 0.454628 -0.837279
  outer loop
   vertex -0.00300924 -0.00521217 0.00592074
   vertex -0.0034091 -0.0082303 0.00413687
   vertex -0.0062992 -0.0062992 0.00413687
  endloop
 endfacet
 facet normal 0.32175 0.419313 -0.848913
  outer loop
   vertex -0.00300924 -0.00521217 0.00592074
   vertex -0.0062992 -0.0062992 0.00413687
   vertex -0.00425572 -0.00425572 0.00592074
  endloop
 endfacet
 facet normal 0.106671 0.53627 -0.837279
  outer loop
   vertex -0.0015577 -0.00581342 0.00592074
   vertex -1.63645e-18 -0.00890841 0.00413687
   vertex -0.0034091 -0.0082303 0.00413687
  endloop
 endfacet
 facet normal 0.198443 0.479083 -0.855044
  outer loop
   vertex -0.0015577 -0.00581342 0.00592074
   vertex -0.0034091 -0.0082303 0.00413687
   vertex -0.00300924 -0.00521217 0.00592074
  endloop
 endfacet
 facet normal -0.375319 0.906098 -0.195247
  outer loop
   vertex 0.00104589 -0.00321891 0.0120291
   vertex 0.00203555 -0.00352567 0.0087031
   vertex 0.00105368 -0.00393238 0.0087031
  endloop
 endfacet
 facet normal 0 0.977757 -0.20974
  outer loop
   vertex 0.00104589 -0.00321891 0.0120291
   vertex 0.00105368 -0.00393238 0.0087031
   vertex -0.00104589 -0.00321891 0.0120291
  endloop
 endfacet
 facet normal -0.12519 0.950913 -0.283007
  outer loop
   vertex -0.00104589 -0.00321891 0.0120291
   vertex 0.00105368 -0.00393238 0.0087031
   vertex -7.47849e-19 -0.0040711 0.0087031
  endloop
 endfacet
 facet normal 0.127662 0.969696 -0.208309
  outer loop
   vertex -0.00104589 -0.00321891 0.0120291
   vertex -7.47849e-19 -0.0040711 0.0087031
   vertex -0.00105368 -0.00393238 0.0087031
  endloop
 endfacet
 facet normal -0.106671 0.53627 -0.837279
  outer loop
   vertex 0.0015577 -0.00581342 0.00592074
   vertex 0.0034091 -0.0082303 0.00413687
   vertex -1.63645e-18 -0.00890841 0.00413687
  endloop
 endfacet
 facet normal -0.0689872 0.52401 -0.848913
  outer loop
   vertex 0.0015577 -0.00581342 0.00592074
   vertex -1.63645e-18 -0.00890841 0.00413687
   vertex -1.10558e-18 -0.00601849 0.00592074
  endloop
 endfacet
 facet normal -0.303773 0.454628 -0.837279
  outer loop
   vertex 0.00300924 -0.00521217 0.00592074
   vertex 0.0062992 -0.0062992 0.00413687
   vertex 0.0034091 -0.0082303 0.00413687
  endloop
 endfacet
 facet normal -0.198443 0.479083 -0.855044
  outer loop
   vertex 0.00300924 -0.00521217 0.00592074
   vertex 0.0034091 -0.0082303 0.00413687
   vertex 0.0015577 -0.00581342 0.00592074
  endloop
 endfacet
 facet normal -0.778497 0.597362 -0.192615
  outer loop
   vertex 0.00273817 -0.00198939 0.0120291
   vertex 0.00352567 -0.00203555 0.0087031
   vertex 0.0028787 -0.0028787 0.0087031
  endloop
 endfacet
 facet normal -0.571406 0.786473 -0.234428
  outer loop
   vertex 0.00273817 -0.00198939 0.0120291
   vertex 0.0028787 -0.0028787 0.0087031
   vertex 0.00104589 -0.00321891 0.0120291
  endloop
 endfacet
 facet normal -0.589982 0.76888 -0.246464
  outer loop
   vertex 0.00104589 -0.00321891 0.0120291
   vertex 0.0028787 -0.0028787 0.0087031
   vertex 0.00203555 -0.00352567 0.0087031
  endloop
 endfacet
 facet normal -0.454628 0.303773 -0.837279
  outer loop
   vertex 0.00521217 -0.00300924 0.00592074
   vertex 0.0082303 -0.0034091 0.00413687
   vertex 0.0062992 -0.0062992 0.00413687
  endloop
 endfacet
 facet normal -0.419313 0.32175 -0.848913
  outer loop
   vertex 0.00521217 -0.00300924 0.00592074
   vertex 0.0062992 -0.0062992 0.00413687
   vertex 0.00425572 -0.00425572 0.00592074
  endloop
 endfacet
 facet normal -0.901527 0.373425 -0.218637
  outer loop
   vertex 0.00273817 -0.00198939 0.0120291
   vertex 0.00393238 -0.00105368 0.0087031
   vertex 0.00352567 -0.00203555 0.0087031
  endloop
 endfacet
 facet normal -0.479083 0.198443 -0.855044
  outer loop
   vertex 0.00581342 -0.0015577 0.00592074
   vertex 0.0082303 -0.0034091 0.00413687
   vertex 0.00521217 -0.00300924 0.00592074
  endloop
 endfacet
 facet normal 0.419313 0.32175 -0.848913
  outer loop
   vertex -0.0062992 -0.0062992 0.00413687
   vertex -0.00521217 -0.00300924 0.00592074
   vertex -0.00425572 -0.00425572 0.00592074
  endloop
 endfacet
 facet normal 0.0689872 0.52401 -0.848913
  outer loop
   vertex -1.63645e-18 -0.00890841 0.00413687
   vertex -0.0015577 -0.00581342 0.00592074
   vertex -1.10558e-18 -0.00601849 0.00592074
  endloop
 endfacet
 facet normal -0.32175 0.419313 -0.848913
  outer loop
   vertex 0.0062992 -0.0062992 0.00413687
   vertex 0.00300924 -0.00521217 0.00592074
   vertex 0.00425572 -0.00425572 0.00592074
  endloop
 endfacet
 facet normal 0.926964 0.301189 -0.223657
  outer loop
   vertex -0.00338456 1.91753e-18 0.0120291
   vertex -0.00273817 -0.00198939 0.0120291
   vertex -0.00352567 -0.00203555 0.0087031
  endloop
 endfacet
 facet normal 0.891173 0.369136 -0.263723
  outer loop
   vertex -0.00338456 1.91753e-18 0.0120291
   vertex -0.00352567 -0.00203555 0.0087031
   vertex -0.00393238 -0.00105368 0.0087031
  endloop
 endfacet
 facet normal 0.971314 0.127875 -0.200492
  outer loop
   vertex -0.00338456 1.91753e-18 0.0120291
   vertex -0.00393238 -0.00105368 0.0087031
   vertex -0.0040711 4.98566e-19 0.0087031
  endloop
 endfacet
 facet normal 0.814543 0.107236 -0.570105
  outer loop
   vertex -0.00601849 7.37053e-19 0.00592074
   vertex -0.0040711 4.98566e-19 0.0087031
   vertex -0.00581342 -0.0015577 0.00592074
  endloop
 endfacet
 facet normal 0.814543 0.107236 -0.570105
  outer loop
   vertex -0.00581342 -0.0015577 0.00592074
   vertex -0.0040711 4.98566e-19 0.0087031
   vertex -0.00393238 -0.00105368 0.0087031
  endloop
 endfacet
 facet normal 0.759033 0.314402 -0.570105
  outer loop
   vertex -0.00581342 -0.0015577 0.00592074
   vertex -0.00393238 -0.00105368 0.0087031
   vertex -0.00521217 -0.00300924 0.00592074
  endloop
 endfacet
 facet normal 0.759033 0.314402 -0.570105
  outer loop
   vertex -0.00521217 -0.00300924 0.00592074
   vertex -0.00393238 -0.00105368 0.0087031
   vertex -0.00352567 -0.00203555 0.0087031
  endloop
 endfacet
 facet normal 0.651797 0.500141 -0.570105
  outer loop
   vertex -0.00521217 -0.00300924 0.00592074
   vertex -0.00352567 -0.00203555 0.0087031
   vertex -0.00425572 -0.00425572 0.00592074
  endloop
 endfacet
 facet normal 0.651797 0.500141 -0.570105
  outer loop
   vertex -0.00425572 -0.00425572 0.00592074
   vertex -0.00352567 -0.00203555 0.0087031
   vertex -0.0028787 -0.0028787 0.0087031
  endloop
 endfacet
 facet normal 0.500141 0.651797 -0.570105
  outer loop
   vertex -0.00425572 -0.00425572 0.00592074
   vertex -0.0028787 -0.0028787 0.0087031
   vertex -0.00300924 -0.00521217 0.00592074
  endloop
 endfacet
 facet normal 0.500141 0.651797 -0.570105
  outer loop
   vertex -0.00300924 -0.00521217 0.00592074
   vertex -0.0028787 -0.0028787 0.0087031
   vertex -0.00203555 -0.00352567 0.0087031
  endloop
 endfacet
 facet normal 0.314402 0.759033 -0.570105
  outer loop
   vertex -0.00300924 -0.00521217 0.00592074
   vertex -0.00203555 -0.00352567 0.0087031
   vertex -0.0015577 -0.00581342 0.00592074
  endloop
 endfacet
 facet normal 0.314402 0.759033 -0.570105
  outer loop
   vertex -0.0015577 -0.00581342 0.00592074
   vertex -0.00203555 -0.00352567 0.0087031
   vertex -0.00105368 -0.00393238 0.0087031
  endloop
 endfacet
 facet normal 0.107236 0.814543 -0.570105
  outer loop
   vertex -0.0015577 -0.00581342 0.00592074
   vertex -0.00105368 -0.00393238 0.0087031
   vertex -1.10558e-18 -0.00601849 0.00592074
  endloop
 endfacet
 facet normal 0.107236 0.814543 -0.570105
  outer loop
   vertex -1.10558e-18 -0.00601849 0.00592074
   vertex -0.00105368 -0.00393238 0.0087031
   vertex -7.47849e-19 -0.0040711 0.0087031
  endloop
 endfacet
 facet normal -0.107236 0.814543 -0.570105
  outer loop
   vertex -1.10558e-18 -0.00601849 0.00592074
   vertex -7.47849e-19 -0.0040711 0.0087031
   vertex 0.0015577 -0.00581342 0.00592074
  endloop
 endfacet
 facet normal -0.107236 0.814543 -0.570105
  outer loop
   vertex 0.0015577 -0.00581342 0.00592074
   vertex -7.47849e-19 -0.0040711 0.0087031
   vertex 0.00105368 -0.00393238 0.0087031
  endloop
 endfacet
 facet normal -0.314402 0.759033 -0.570105
  outer loop
   vertex 0.0015577 -0.00581342 0.00592074
   vertex 0.00105368 -0.00393238 0.0087031
   vertex 0.00300924 -0.00521217 0.00592074
  endloop
 endfacet
 facet normal -0.314402 0.759033 -0.570105
  outer loop
   vertex 0.00300924 -0.00521217 0.00592074
   vertex 0.00105368 -0.00393238 0.0087031
   vertex 0.00203555 -0.00352567 0.0087031
  endloop
 endfacet
 facet normal -0.500141 0.651797 -0.570105
  outer loop
   vertex 0.00300924 -0.00521217 0.00592074
   vertex 0.00203555 -0.00352567 0.0087031
   vertex 0.00425572 -0.00425572 0.00592074
  endloop
 endfacet
 facet normal -0.500141 0.651797 -0.570105
  outer loop
   vertex 0.00425572 -0.00425572 0.00592074
   vertex 0.00203555 -0.00352567 0.0087031
   vertex 0.0028787 -0.0028787 0.0087031
  endloop
 endfacet
 facet normal -0.651797 0.500141 -0.570105
  outer loop
   vertex 0.00425572 -0.00425572 0.00592074
   vertex 0.0028787 -0.0028787 0.0087031
   vertex 0.00521217 -0.00300924 0.00592074
  endloop
 endfacet
 facet normal -0.651797 0.500141 -0.570105
  outer loop
   vertex 0.00521217 -0.00300924 0.00592074
   vertex 0.0028787 -0.0028787 0.0087031
   vertex 0.00352567 -0.00203555 0.0087031
  endloop
 endfacet
 facet normal -0.759033 0.314402 -0.570105
  outer loop
   vertex 0.00521217 -0.00300924 0.00592074
   vertex 0.00352567 -0.00203555 0.0087031
   vertex 0.00581342 -0.0015577 0.00592074
  endloop
 endfacet
 facet normal -0.759033 0.314402 -0.570105
  outer loop
   vertex 0.00581342 -0.0015577 0.00592074
   vertex 0.00352567 -0.00203555 0.0087031
   vertex 0.00393238 -0.00105368 0.0087031
  endloop
 endfacet
 facet normal -0.814543 0.107236 -0.570105
  outer loop
   vertex 0.00581342 -0.0015577 0.00592074
   vertex 0.00393238 -0.00105368 0.0087031
   vertex 0.00601849 -1.4741e-18 0.00592074
  endloop
 endfacet
 facet normal -0.814543 0.107236 -0.570105
  outer loop
   vertex 0.00601849 -1.4741e-18 0.00592074
   vertex 0.00393238 -0.00105368 0.0087031
   vertex 0.0040711 -9.97131e-19 0.0087031
  endloop
 endfacet
 facet normal -0.587785 0.809017 0
  outer loop
   vertex 0.00104589 -0.00321891 0.0120291
   vertex 0.00273817 -0.00198939 0.055
   vertex 0.00273817 -0.00198939 0.0120291
  endloop
 endfacet
 facet normal -0.951057 0.309017 0
  outer loop
   vertex 0.00273817 -0.00198939 0.0120291
   vertex 0.00273817 -0.00198939 0.055
   vertex 0.00338456 -3.83507e-18 0.055
  endloop
 endfacet
 facet normal -0.951057 0.309017 0
  outer loop
   vertex 0.00273817 -0.00198939 0.0120291
   vertex 0.00338456 -3.83507e-18 0.055
   vertex 0.00338456 -3.83507e-18 0.0120291
  endloop
 endfacet
 facet normal -0.587785 0.809017 0
  outer loop
   vertex 0.00273817 -0.00198939 0.055
   vertex 0.00104589 -0.00321891 0.0120291
   vertex 0.00104589 -0.00321891 0.055
  endloop
 endfacet
 facet normal 0 1 0
  outer loop
   vertex 0.00104589 -0.00321891 0.055
   vertex 0.00104589 -0.00321891 0.0120291
   vertex -0.00104589 -0.00321891 0.0120291
  endloop
 endfacet
 facet normal 0 1 0
  outer loop
   vertex 0.00104589 -0.00321891 0.055
   vertex -0.00104589 -0.00321891 0.0120291
   vertex -0.00104589 -0.00321891 0.055
  endloop
 endfacet
 facet normal 0.587785 0.809017 0
  outer loop
   vertex -0.00104589 -0.00321891 0.055
   vertex -0.00104589 -0.00321891 0.0120291
   vertex -0.00273817 -0.00198939 0.0120291
  endloop
 endfacet
 facet normal 0.587785 0.809017 0
  outer loop
   vertex -0.00104589 -0.00321891 0.055
   vertex -0.00273817 -0.00198939 0.0120291
   vertex -0.00273817 -0.00198939 0.055
  endloop
 endfacet
 facet normal 0.951057 0.309017 0
  outer loop
   vertex -0.00273817 -0.00198939 0.055
   vertex -0.00273817 -0.00198939 0.0120291
   vertex -0.00338456 1.91753e-18 0.0120291
  endloop
 endfacet
 facet normal 0.951057 0.309017 0
  outer loop
   vertex -0.00273817 -0.00198939 0.055
   vertex -0.00338456 1.91753e-18 0.0120291
   vertex -0.00338456 1.91753e-18 0.055
  endloop
 endfacet
endsolid CATIASTL
