solid CATIASTL
 facet normal 0 -0 1
  outer loop
   vertex 0.0175 -0.0415 -0.148923
   vertex 0.0255963 -0.0407026 -0.148923
   vertex 0.00940375 -0.0407026 -0.148923
  endloop
 endfacet
 facet normal 0 0 1
  outer loop
   vertex 0.0175 0.0415 -0.148923
   vertex 0.00940375 0.0407026 -0.148923
   vertex 0.0255963 0.0407026 -0.148923
  endloop
 endfacet
 facet normal 0 0 1
  outer loop
   vertex 0.0255963 0.0407026 -0.148923
   vertex 0.00940375 0.0407026 -0.148923
   vertex 0.00161864 0.038341 -0.148923
  endloop
 endfacet
 facet normal 0 0 1
  outer loop
   vertex 0.0255963 0.0407026 -0.148923
   vertex 0.00161864 0.038341 -0.148923
   vertex 0.0333814 0.038341 -0.148923
  endloop
 endfacet
 facet normal 0 0 1
  outer loop
   vertex 0.0333814 0.038341 -0.148923
   vertex 0.00161864 0.038341 -0.148923
   vertex -0.00555617 0.034506 -0.148923
  endloop
 endfacet
 facet normal 0 0 1
  outer loop
   vertex 0.0333814 0.038341 -0.148923
   vertex -0.00555617 0.034506 -0.148923
   vertex 0.0405562 0.034506 -0.148923
  endloop
 endfacet
 facet normal 0 0 1
  outer loop
   vertex 0.0405562 0.034506 -0.148923
   vertex -0.00555617 0.034506 -0.148923
   vertex -0.0118449 0.0293449 -0.148923
  endloop
 endfacet
 facet normal 0 0 1
  outer loop
   vertex 0.0405562 0.034506 -0.148923
   vertex -0.0118449 0.0293449 -0.148923
   vertex 0.0468449 0.0293449 -0.148923
  endloop
 endfacet
 facet normal 0 0 1
  outer loop
   vertex 0.0468449 0.0293449 -0.148923
   vertex -0.0118449 0.0293449 -0.148923
   vertex -0.017006 0.0230562 -0.148923
  endloop
 endfacet
 facet normal 0 0 1
  outer loop
   vertex 0.0468449 0.0293449 -0.148923
   vertex -0.017006 0.0230562 -0.148923
   vertex 0.052006 0.0230562 -0.148923
  endloop
 endfacet
 facet normal 0 0 1
  outer loop
   vertex 0.052006 0.0230562 -0.148923
   vertex -0.017006 0.0230562 -0.148923
   vertex -0.020841 0.0158814 -0.148923
  endloop
 endfacet
 facet normal 0 0 1
  outer loop
   vertex 0.052006 0.0230562 -0.148923
   vertex -0.020841 0.0158814 -0.148923
   vertex 0.055841 0.0158814 -0.148923
  endloop
 endfacet
 facet normal 0 0 1
  outer loop
   vertex 0.055841 0.0158814 -0.148923
   vertex -0.020841 0.0158814 -0.148923
   vertex -0.0232026 0.00809625 -0.148923
  endloop
 endfacet
 facet normal 0 0 1
  outer loop
   vertex 0.055841 0.0158814 -0.148923
   vertex -0.0232026 0.00809625 -0.148923
   vertex 0.0582026 0.00809625 -0.148923
  endloop
 endfacet
 facet normal 0 0 1
  outer loop
   vertex 0.0582026 0.00809625 -0.148923
   vertex -0.0232026 0.00809625 -0.148923
   vertex -0.024 1.33474e-17 -0.148923
  endloop
 endfacet
 facet normal 0 0 1
  outer loop
   vertex 0.0582026 0.00809625 -0.148923
   vertex -0.024 1.33474e-17 -0.148923
   vertex 0.059 -2.66948e-17 -0.148923
  endloop
 endfacet
 facet normal 0 0 1
  outer loop
   vertex 0.059 -2.66948e-17 -0.148923
   vertex -0.024 1.33474e-17 -0.148923
   vertex -0.0232026 -0.00809625 -0.148923
  endloop
 endfacet
 facet normal 0 0 1
  outer loop
   vertex 0.059 -2.66948e-17 -0.148923
   vertex -0.0232026 -0.00809625 -0.148923
   vertex 0.0582026 -0.00809625 -0.148923
  endloop
 endfacet
 facet normal 0 0 1
  outer loop
   vertex 0.0582026 -0.00809625 -0.148923
   vertex -0.0232026 -0.00809625 -0.148923
   vertex -0.020841 -0.0158814 -0.148923
  endloop
 endfacet
 facet normal 0 0 1
  outer loop
   vertex 0.0582026 -0.00809625 -0.148923
   vertex -0.020841 -0.0158814 -0.148923
   vertex 0.055841 -0.0158814 -0.148923
  endloop
 endfacet
 facet normal 0 0 1
  outer loop
   vertex 0.055841 -0.0158814 -0.148923
   vertex -0.020841 -0.0158814 -0.148923
   vertex -0.017006 -0.0230562 -0.148923
  endloop
 endfacet
 facet normal 0 0 1
  outer loop
   vertex 0.055841 -0.0158814 -0.148923
   vertex -0.017006 -0.0230562 -0.148923
   vertex 0.052006 -0.0230562 -0.148923
  endloop
 endfacet
 facet normal 0 0 1
  outer loop
   vertex 0.052006 -0.0230562 -0.148923
   vertex -0.017006 -0.0230562 -0.148923
   vertex -0.0118449 -0.0293449 -0.148923
  endloop
 endfacet
 facet normal 0 0 1
  outer loop
   vertex 0.052006 -0.0230562 -0.148923
   vertex -0.0118449 -0.0293449 -0.148923
   vertex 0.0468449 -0.0293449 -0.148923
  endloop
 endfacet
 facet normal 0 0 1
  outer loop
   vertex 0.0468449 -0.0293449 -0.148923
   vertex -0.0118449 -0.0293449 -0.148923
   vertex -0.00555617 -0.034506 -0.148923
  endloop
 endfacet
 facet normal 0 0 1
  outer loop
   vertex 0.0468449 -0.0293449 -0.148923
   vertex -0.00555617 -0.034506 -0.148923
   vertex 0.0405562 -0.034506 -0.148923
  endloop
 endfacet
 facet normal 0 0 1
  outer loop
   vertex 0.0405562 -0.034506 -0.148923
   vertex -0.00555617 -0.034506 -0.148923
   vertex 0.00161864 -0.038341 -0.148923
  endloop
 endfacet
 facet normal 0 0 1
  outer loop
   vertex 0.0405562 -0.034506 -0.148923
   vertex 0.00161864 -0.038341 -0.148923
   vertex 0.0333814 -0.038341 -0.148923
  endloop
 endfacet
 facet normal 0 0 1
  outer loop
   vertex 0.0333814 -0.038341 -0.148923
   vertex 0.00161864 -0.038341 -0.148923
   vertex 0.00940375 -0.0407026 -0.148923
  endloop
 endfacet
 facet normal 0 0 1
  outer loop
   vertex 0.0333814 -0.038341 -0.148923
   vertex 0.00940375 -0.0407026 -0.148923
   vertex 0.0255963 -0.0407026 -0.148923
  endloop
 endfacet
endsolid CATIASTL
