solid CATIA STL
  facet normal  0.000000e+000  0.000000e+000  9.999999e-001
    outer loop
      vertex  1.750000e+001 -4.150000e+001 -1.489235e+002
      vertex  2.559625e+001 -4.070259e+001 -1.489235e+002
      vertex  9.403751e+000 -4.070259e+001 -1.489235e+002
    endloop
  endfacet
  facet normal  0.000000e+000  0.000000e+000  9.999999e-001
    outer loop
      vertex  1.750000e+001  4.150000e+001 -1.489235e+002
      vertex  9.403751e+000  4.070259e+001 -1.489235e+002
      vertex  2.559625e+001  4.070259e+001 -1.489235e+002
    endloop
  endfacet
  facet normal  0.000000e+000  0.000000e+000  1.000000e+000
    outer loop
      vertex  2.559625e+001  4.070259e+001 -1.489235e+002
      vertex  9.403751e+000  4.070259e+001 -1.489235e+002
      vertex  1.618638e+000  3.834100e+001 -1.489235e+002
    endloop
  endfacet
  facet normal  0.000000e+000  0.000000e+000  1.000000e+000
    outer loop
      vertex  2.559625e+001  4.070259e+001 -1.489235e+002
      vertex  1.618638e+000  3.834100e+001 -1.489235e+002
      vertex  3.338136e+001  3.834100e+001 -1.489235e+002
    endloop
  endfacet
  facet normal  0.000000e+000  0.000000e+000  1.000000e+000
    outer loop
      vertex  3.338136e+001  3.834100e+001 -1.489235e+002
      vertex  1.618638e+000  3.834100e+001 -1.489235e+002
      vertex -5.556165e+000  3.450599e+001 -1.489235e+002
    endloop
  endfacet
  facet normal  0.000000e+000  0.000000e+000  1.000000e+000
    outer loop
      vertex  3.338136e+001  3.834100e+001 -1.489235e+002
      vertex -5.556165e+000  3.450599e+001 -1.489235e+002
      vertex  4.055616e+001  3.450599e+001 -1.489235e+002
    endloop
  endfacet
  facet normal  0.000000e+000  0.000000e+000  1.000000e+000
    outer loop
      vertex  4.055616e+001  3.450599e+001 -1.489235e+002
      vertex -5.556165e+000  3.450599e+001 -1.489235e+002
      vertex -1.184493e+001  2.934493e+001 -1.489235e+002
    endloop
  endfacet
  facet normal  0.000000e+000  0.000000e+000  1.000000e+000
    outer loop
      vertex  4.055616e+001  3.450599e+001 -1.489235e+002
      vertex -1.184493e+001  2.934493e+001 -1.489235e+002
      vertex  4.684493e+001  2.934493e+001 -1.489235e+002
    endloop
  endfacet
  facet normal  0.000000e+000  0.000000e+000  1.000000e+000
    outer loop
      vertex  4.684493e+001  2.934493e+001 -1.489235e+002
      vertex -1.184493e+001  2.934493e+001 -1.489235e+002
      vertex -1.700599e+001  2.305616e+001 -1.489235e+002
    endloop
  endfacet
  facet normal  0.000000e+000  0.000000e+000  9.999999e-001
    outer loop
      vertex  4.684493e+001  2.934493e+001 -1.489235e+002
      vertex -1.700599e+001  2.305616e+001 -1.489235e+002
      vertex  5.200599e+001  2.305616e+001 -1.489235e+002
    endloop
  endfacet
  facet normal  0.000000e+000  0.000000e+000  9.999999e-001
    outer loop
      vertex  5.200599e+001  2.305616e+001 -1.489235e+002
      vertex -1.700599e+001  2.305616e+001 -1.489235e+002
      vertex -2.084100e+001  1.588136e+001 -1.489235e+002
    endloop
  endfacet
  facet normal  0.000000e+000  0.000000e+000  1.000000e+000
    outer loop
      vertex  5.200599e+001  2.305616e+001 -1.489235e+002
      vertex -2.084100e+001  1.588136e+001 -1.489235e+002
      vertex  5.584100e+001  1.588136e+001 -1.489235e+002
    endloop
  endfacet
  facet normal  0.000000e+000  0.000000e+000  1.000000e+000
    outer loop
      vertex  5.584100e+001  1.588136e+001 -1.489235e+002
      vertex -2.084100e+001  1.588136e+001 -1.489235e+002
      vertex -2.320259e+001  8.096249e+000 -1.489235e+002
    endloop
  endfacet
  facet normal  0.000000e+000  0.000000e+000  1.000000e+000
    outer loop
      vertex  5.584100e+001  1.588136e+001 -1.489235e+002
      vertex -2.320259e+001  8.096249e+000 -1.489235e+002
      vertex  5.820259e+001  8.096249e+000 -1.489235e+002
    endloop
  endfacet
  facet normal  0.000000e+000  0.000000e+000  1.000000e+000
    outer loop
      vertex  5.820259e+001  8.096249e+000 -1.489235e+002
      vertex -2.320259e+001  8.096249e+000 -1.489235e+002
      vertex -2.400000e+001  1.334742e-014 -1.489235e+002
    endloop
  endfacet
  facet normal  -0.000000e+000  0.000000e+000  1.000000e+000
    outer loop
      vertex  5.820259e+001  8.096249e+000 -1.489235e+002
      vertex -2.400000e+001  1.334742e-014 -1.489235e+002
      vertex  5.900000e+001 -2.669484e-014 -1.489235e+002
    endloop
  endfacet
  facet normal  0.000000e+000  0.000000e+000  1.000000e+000
    outer loop
      vertex  5.900000e+001 -2.669484e-014 -1.489235e+002
      vertex -2.400000e+001  1.334742e-014 -1.489235e+002
      vertex -2.320259e+001 -8.096249e+000 -1.489235e+002
    endloop
  endfacet
  facet normal  0.000000e+000  0.000000e+000  1.000000e+000
    outer loop
      vertex  5.900000e+001 -2.669484e-014 -1.489235e+002
      vertex -2.320259e+001 -8.096249e+000 -1.489235e+002
      vertex  5.820259e+001 -8.096249e+000 -1.489235e+002
    endloop
  endfacet
  facet normal  0.000000e+000  0.000000e+000  1.000000e+000
    outer loop
      vertex  5.820259e+001 -8.096249e+000 -1.489235e+002
      vertex -2.320259e+001 -8.096249e+000 -1.489235e+002
      vertex -2.084100e+001 -1.588136e+001 -1.489235e+002
    endloop
  endfacet
  facet normal  0.000000e+000  0.000000e+000  1.000000e+000
    outer loop
      vertex  5.820259e+001 -8.096249e+000 -1.489235e+002
      vertex -2.084100e+001 -1.588136e+001 -1.489235e+002
      vertex  5.584100e+001 -1.588136e+001 -1.489235e+002
    endloop
  endfacet
  facet normal  0.000000e+000  0.000000e+000  1.000000e+000
    outer loop
      vertex  5.584100e+001 -1.588136e+001 -1.489235e+002
      vertex -2.084100e+001 -1.588136e+001 -1.489235e+002
      vertex -1.700599e+001 -2.305616e+001 -1.489235e+002
    endloop
  endfacet
  facet normal  0.000000e+000  0.000000e+000  9.999999e-001
    outer loop
      vertex  5.584100e+001 -1.588136e+001 -1.489235e+002
      vertex -1.700599e+001 -2.305616e+001 -1.489235e+002
      vertex  5.200599e+001 -2.305616e+001 -1.489235e+002
    endloop
  endfacet
  facet normal  0.000000e+000  0.000000e+000  9.999999e-001
    outer loop
      vertex  5.200599e+001 -2.305616e+001 -1.489235e+002
      vertex -1.700599e+001 -2.305616e+001 -1.489235e+002
      vertex -1.184493e+001 -2.934493e+001 -1.489235e+002
    endloop
  endfacet
  facet normal  0.000000e+000  0.000000e+000  1.000000e+000
    outer loop
      vertex  5.200599e+001 -2.305616e+001 -1.489235e+002
      vertex -1.184493e+001 -2.934493e+001 -1.489235e+002
      vertex  4.684493e+001 -2.934493e+001 -1.489235e+002
    endloop
  endfacet
  facet normal  0.000000e+000  0.000000e+000  1.000000e+000
    outer loop
      vertex  4.684493e+001 -2.934493e+001 -1.489235e+002
      vertex -1.184493e+001 -2.934493e+001 -1.489235e+002
      vertex -5.556165e+000 -3.450599e+001 -1.489235e+002
    endloop
  endfacet
  facet normal  0.000000e+000  0.000000e+000  1.000000e+000
    outer loop
      vertex  4.684493e+001 -2.934493e+001 -1.489235e+002
      vertex -5.556165e+000 -3.450599e+001 -1.489235e+002
      vertex  4.055616e+001 -3.450599e+001 -1.489235e+002
    endloop
  endfacet
  facet normal  0.000000e+000  0.000000e+000  1.000000e+000
    outer loop
      vertex  4.055616e+001 -3.450599e+001 -1.489235e+002
      vertex -5.556165e+000 -3.450599e+001 -1.489235e+002
      vertex  1.618638e+000 -3.834100e+001 -1.489235e+002
    endloop
  endfacet
  facet normal  0.000000e+000  0.000000e+000  1.000000e+000
    outer loop
      vertex  4.055616e+001 -3.450599e+001 -1.489235e+002
      vertex  1.618638e+000 -3.834100e+001 -1.489235e+002
      vertex  3.338136e+001 -3.834100e+001 -1.489235e+002
    endloop
  endfacet
  facet normal  0.000000e+000  0.000000e+000  1.000000e+000
    outer loop
      vertex  3.338136e+001 -3.834100e+001 -1.489235e+002
      vertex  1.618638e+000 -3.834100e+001 -1.489235e+002
      vertex  9.403751e+000 -4.070259e+001 -1.489235e+002
    endloop
  endfacet
  facet normal  0.000000e+000  0.000000e+000  1.000000e+000
    outer loop
      vertex  3.338136e+001 -3.834100e+001 -1.489235e+002
      vertex  9.403751e+000 -4.070259e+001 -1.489235e+002
      vertex  2.559625e+001 -4.070259e+001 -1.489235e+002
    endloop
  endfacet
endsolid CATIA STL
