solid CATIA STL
  facet normal -1.000000e+000  0.000000e+000  0.000000e+000
    outer loop
      vertex -3.500000e+001  5.000000e+001  6.500000e+001
      vertex -3.500000e+001  5.000000e+001  1.000000e+001
      vertex -3.500000e+001  0.000000e+000  6.500000e+001
    endloop
  endfacet
  facet normal -1.000000e+000  0.000000e+000  0.000000e+000
    outer loop
      vertex -3.500000e+001  0.000000e+000  6.500000e+001
      vertex -3.500000e+001  5.000000e+001  1.000000e+001
      vertex -3.500000e+001  0.000000e+000  1.000000e+001
    endloop
  endfacet
endsolid CATIA STL
