solid CATIA STL
  facet normal  0.000000e+000  0.000000e+000  1.000000e+000
    outer loop
      vertex -4.337787e+000  1.335034e+001  0.000000e+000
      vertex  4.337787e+000  1.335034e+001  0.000000e+000
      vertex  1.676540e-014  1.403737e+001  0.000000e+000
    endloop
  endfacet
  facet normal  -0.000000e+000  0.000000e+000  1.000000e+000
    outer loop
      vertex  4.337787e+000  1.335034e+001  0.000000e+000
      vertex -4.337787e+000  1.335034e+001  0.000000e+000
      vertex  8.250961e+000  1.135647e+001  0.000000e+000
    endloop
  endfacet
  facet normal  0.000000e+000  0.000000e+000  1.000000e+000
    outer loop
      vertex  8.250961e+000  1.135647e+001  0.000000e+000
      vertex -4.337787e+000  1.335034e+001  0.000000e+000
      vertex -8.250961e+000  1.135647e+001  0.000000e+000
    endloop
  endfacet
  facet normal  -0.000000e+000  0.000000e+000  1.000000e+000
    outer loop
      vertex  8.250961e+000  1.135647e+001  0.000000e+000
      vertex -8.250961e+000  1.135647e+001  0.000000e+000
      vertex  1.135647e+001  8.250961e+000  0.000000e+000
    endloop
  endfacet
  facet normal  0.000000e+000  0.000000e+000  1.000000e+000
    outer loop
      vertex  1.135647e+001  8.250961e+000  0.000000e+000
      vertex -8.250961e+000  1.135647e+001  0.000000e+000
      vertex -1.135647e+001  8.250961e+000  0.000000e+000
    endloop
  endfacet
  facet normal  -0.000000e+000  0.000000e+000  1.000000e+000
    outer loop
      vertex  1.135647e+001  8.250961e+000  0.000000e+000
      vertex -1.135647e+001  8.250961e+000  0.000000e+000
      vertex  1.335034e+001  4.337787e+000  0.000000e+000
    endloop
  endfacet
  facet normal  0.000000e+000  0.000000e+000  1.000000e+000
    outer loop
      vertex  1.335034e+001  4.337787e+000  0.000000e+000
      vertex -1.135647e+001  8.250961e+000  0.000000e+000
      vertex -1.335034e+001  4.337787e+000  0.000000e+000
    endloop
  endfacet
  facet normal  -0.000000e+000  0.000000e+000  1.000000e+000
    outer loop
      vertex  1.335034e+001  4.337787e+000  0.000000e+000
      vertex -1.335034e+001  4.337787e+000  0.000000e+000
      vertex  1.403737e+001 -1.590586e-014  0.000000e+000
    endloop
  endfacet
  facet normal  0.000000e+000  0.000000e+000  1.000000e+000
    outer loop
      vertex  1.403737e+001 -1.590586e-014  0.000000e+000
      vertex -1.335034e+001  4.337787e+000  0.000000e+000
      vertex -1.403737e+001 -4.514764e-015  0.000000e+000
    endloop
  endfacet
  facet normal  0.000000e+000  0.000000e+000  1.000000e+000
    outer loop
      vertex  1.403737e+001 -1.590586e-014  0.000000e+000
      vertex -1.403737e+001 -4.514764e-015  0.000000e+000
      vertex  1.335034e+001 -4.337787e+000  0.000000e+000
    endloop
  endfacet
  facet normal  0.000000e+000  0.000000e+000  1.000000e+000
    outer loop
      vertex  1.335034e+001 -4.337787e+000  0.000000e+000
      vertex -1.403737e+001 -4.514764e-015  0.000000e+000
      vertex -1.335034e+001 -4.337787e+000  0.000000e+000
    endloop
  endfacet
  facet normal  -0.000000e+000  0.000000e+000  1.000000e+000
    outer loop
      vertex  1.335034e+001 -4.337787e+000  0.000000e+000
      vertex -1.335034e+001 -4.337787e+000  0.000000e+000
      vertex  1.135647e+001 -8.250961e+000  0.000000e+000
    endloop
  endfacet
  facet normal  0.000000e+000  0.000000e+000  1.000000e+000
    outer loop
      vertex  1.135647e+001 -8.250961e+000  0.000000e+000
      vertex -1.335034e+001 -4.337787e+000  0.000000e+000
      vertex -1.135647e+001 -8.250961e+000  0.000000e+000
    endloop
  endfacet
  facet normal  -0.000000e+000  0.000000e+000  1.000000e+000
    outer loop
      vertex  1.135647e+001 -8.250961e+000  0.000000e+000
      vertex -1.135647e+001 -8.250961e+000  0.000000e+000
      vertex  8.250961e+000 -1.135647e+001  0.000000e+000
    endloop
  endfacet
  facet normal  0.000000e+000  0.000000e+000  1.000000e+000
    outer loop
      vertex  8.250961e+000 -1.135647e+001  0.000000e+000
      vertex -1.135647e+001 -8.250961e+000  0.000000e+000
      vertex -8.250961e+000 -1.135647e+001  0.000000e+000
    endloop
  endfacet
  facet normal  -0.000000e+000  0.000000e+000  1.000000e+000
    outer loop
      vertex  8.250961e+000 -1.135647e+001  0.000000e+000
      vertex -8.250961e+000 -1.135647e+001  0.000000e+000
      vertex  4.337787e+000 -1.335034e+001  0.000000e+000
    endloop
  endfacet
  facet normal  0.000000e+000  0.000000e+000  1.000000e+000
    outer loop
      vertex  4.337787e+000 -1.335034e+001  0.000000e+000
      vertex -8.250961e+000 -1.135647e+001  0.000000e+000
      vertex -4.337787e+000 -1.335034e+001  0.000000e+000
    endloop
  endfacet
  facet normal  -0.000000e+000  0.000000e+000  1.000000e+000
    outer loop
      vertex  4.337787e+000 -1.335034e+001  0.000000e+000
      vertex -4.337787e+000 -1.335034e+001  0.000000e+000
      vertex -2.578624e-015 -1.403737e+001  0.000000e+000
    endloop
  endfacet
  facet normal -1.112990e-001 -7.027140e-001  7.027131e-001
    outer loop
      vertex  3.041114e-014  1.460306e+001  5.656855e-001
      vertex  4.337787e+000  1.335034e+001  0.000000e+000
      vertex  4.512593e+000  1.388833e+001  5.656855e-001
    endloop
  endfacet
  facet normal -3.230022e-001 -6.339273e-001  7.027130e-001
    outer loop
      vertex  4.512593e+000  1.388833e+001  5.656855e-001
      vertex  4.337787e+000  1.335034e+001  0.000000e+000
      vertex  8.250961e+000  1.135647e+001  0.000000e+000
    endloop
  endfacet
  facet normal -3.230019e-001 -6.339270e-001  7.027135e-001
    outer loop
      vertex  4.512593e+000  1.388833e+001  5.656855e-001
      vertex  8.250961e+000  1.135647e+001  0.000000e+000
      vertex  8.583463e+000  1.181412e+001  5.656855e-001
    endloop
  endfacet
  facet normal -5.030873e-001 -5.030873e-001  7.027135e-001
    outer loop
      vertex  8.583463e+000  1.181412e+001  5.656855e-001
      vertex  8.250961e+000  1.135647e+001  0.000000e+000
      vertex  1.135647e+001  8.250961e+000  0.000000e+000
    endloop
  endfacet
  facet normal -5.030874e-001 -5.030874e-001  7.027135e-001
    outer loop
      vertex  8.583463e+000  1.181412e+001  5.656855e-001
      vertex  1.135647e+001  8.250961e+000  0.000000e+000
      vertex  1.181412e+001  8.583463e+000  5.656855e-001
    endloop
  endfacet
  facet normal -6.339270e-001 -3.230020e-001  7.027135e-001
    outer loop
      vertex  1.181412e+001  8.583463e+000  5.656855e-001
      vertex  1.135647e+001  8.250961e+000  0.000000e+000
      vertex  1.335034e+001  4.337787e+000  0.000000e+000
    endloop
  endfacet
  facet normal -6.339275e-001 -3.230021e-001  7.027131e-001
    outer loop
      vertex  1.181412e+001  8.583463e+000  5.656855e-001
      vertex  1.335034e+001  4.337787e+000  0.000000e+000
      vertex  1.388833e+001  4.512593e+000  5.656855e-001
    endloop
  endfacet
  facet normal -7.027139e-001 -1.112989e-001  7.027130e-001
    outer loop
      vertex  1.388833e+001  4.512593e+000  5.656855e-001
      vertex  1.335034e+001  4.337787e+000  0.000000e+000
      vertex  1.403737e+001 -1.590586e-014  0.000000e+000
    endloop
  endfacet
  facet normal -7.027136e-001 -1.112989e-001  7.027133e-001
    outer loop
      vertex  1.388833e+001  4.512593e+000  5.656855e-001
      vertex  1.403737e+001 -1.590586e-014  0.000000e+000
      vertex  1.460306e+001 -1.654684e-014  5.656855e-001
    endloop
  endfacet
  facet normal -1.112988e-001 -7.027136e-001  7.027134e-001
    outer loop
      vertex  4.337787e+000  1.335034e+001  0.000000e+000
      vertex  3.041114e-014  1.460306e+001  5.656855e-001
      vertex  1.676540e-014  1.403737e+001  0.000000e+000
    endloop
  endfacet
  facet normal  1.112989e-001 -7.027136e-001  7.027133e-001
    outer loop
      vertex  1.676540e-014  1.403737e+001  0.000000e+000
      vertex  3.041114e-014  1.460306e+001  5.656855e-001
      vertex -4.512593e+000  1.388833e+001  5.656855e-001
    endloop
  endfacet
  facet normal  1.112989e-001 -7.027139e-001  7.027130e-001
    outer loop
      vertex  1.676540e-014  1.403737e+001  0.000000e+000
      vertex -4.512593e+000  1.388833e+001  5.656855e-001
      vertex -4.337787e+000  1.335034e+001  0.000000e+000
    endloop
  endfacet
  facet normal  3.230021e-001 -6.339275e-001  7.027131e-001
    outer loop
      vertex -4.337787e+000  1.335034e+001  0.000000e+000
      vertex -4.512593e+000  1.388833e+001  5.656855e-001
      vertex -8.583463e+000  1.181412e+001  5.656855e-001
    endloop
  endfacet
  facet normal  3.230020e-001 -6.339270e-001  7.027135e-001
    outer loop
      vertex -4.337787e+000  1.335034e+001  0.000000e+000
      vertex -8.583463e+000  1.181412e+001  5.656855e-001
      vertex -8.250961e+000  1.135647e+001  0.000000e+000
    endloop
  endfacet
  facet normal  5.030874e-001 -5.030874e-001  7.027135e-001
    outer loop
      vertex -8.250961e+000  1.135647e+001  0.000000e+000
      vertex -8.583463e+000  1.181412e+001  5.656855e-001
      vertex -1.181412e+001  8.583463e+000  5.656855e-001
    endloop
  endfacet
  facet normal  5.030873e-001 -5.030873e-001  7.027135e-001
    outer loop
      vertex -8.250961e+000  1.135647e+001  0.000000e+000
      vertex -1.181412e+001  8.583463e+000  5.656855e-001
      vertex -1.135647e+001  8.250961e+000  0.000000e+000
    endloop
  endfacet
  facet normal  6.339270e-001 -3.230019e-001  7.027135e-001
    outer loop
      vertex -1.135647e+001  8.250961e+000  0.000000e+000
      vertex -1.181412e+001  8.583463e+000  5.656855e-001
      vertex -1.388833e+001  4.512593e+000  5.656855e-001
    endloop
  endfacet
  facet normal  6.339273e-001 -3.230022e-001  7.027130e-001
    outer loop
      vertex -1.135647e+001  8.250961e+000  0.000000e+000
      vertex -1.388833e+001  4.512593e+000  5.656855e-001
      vertex -1.335034e+001  4.337787e+000  0.000000e+000
    endloop
  endfacet
  facet normal  7.027140e-001 -1.112990e-001  7.027131e-001
    outer loop
      vertex -1.335034e+001  4.337787e+000  0.000000e+000
      vertex -1.388833e+001  4.512593e+000  5.656855e-001
      vertex -1.460306e+001  1.788359e-015  5.656855e-001
    endloop
  endfacet
  facet normal  7.027136e-001 -1.112988e-001  7.027134e-001
    outer loop
      vertex -1.335034e+001  4.337787e+000  0.000000e+000
      vertex -1.460306e+001  1.788359e-015  5.656855e-001
      vertex -1.403737e+001 -4.514764e-015  0.000000e+000
    endloop
  endfacet
  facet normal  1.564345e-001 -9.876884e-001  0.000000e+000
    outer loop
      vertex  3.041114e-014  1.460306e+001  5.656855e-001
      vertex -4.512593e+000  1.388833e+001  1.339999e+000
      vertex -4.512593e+000  1.388833e+001  5.656855e-001
    endloop
  endfacet
  facet normal  4.539904e-001 -8.910066e-001  0.000000e+000
    outer loop
      vertex -4.512593e+000  1.388833e+001  5.656855e-001
      vertex -4.512593e+000  1.388833e+001  1.339999e+000
      vertex -8.583463e+000  1.181412e+001  1.339999e+000
    endloop
  endfacet
  facet normal  4.539904e-001 -8.910066e-001  0.000000e+000
    outer loop
      vertex -4.512593e+000  1.388833e+001  5.656855e-001
      vertex -8.583463e+000  1.181412e+001  1.339999e+000
      vertex -8.583463e+000  1.181412e+001  5.656855e-001
    endloop
  endfacet
  facet normal  7.071068e-001 -7.071068e-001  0.000000e+000
    outer loop
      vertex -8.583463e+000  1.181412e+001  5.656855e-001
      vertex -8.583463e+000  1.181412e+001  1.339999e+000
      vertex -1.181412e+001  8.583463e+000  1.339999e+000
    endloop
  endfacet
  facet normal  7.071068e-001 -7.071068e-001  0.000000e+000
    outer loop
      vertex -8.583463e+000  1.181412e+001  5.656855e-001
      vertex -1.181412e+001  8.583463e+000  1.339999e+000
      vertex -1.181412e+001  8.583463e+000  5.656855e-001
    endloop
  endfacet
  facet normal  8.910066e-001 -4.539904e-001  0.000000e+000
    outer loop
      vertex -1.181412e+001  8.583463e+000  5.656855e-001
      vertex -1.181412e+001  8.583463e+000  1.339999e+000
      vertex -1.388833e+001  4.512593e+000  1.339999e+000
    endloop
  endfacet
  facet normal  8.910066e-001 -4.539904e-001  0.000000e+000
    outer loop
      vertex -1.181412e+001  8.583463e+000  5.656855e-001
      vertex -1.388833e+001  4.512593e+000  1.339999e+000
      vertex -1.388833e+001  4.512593e+000  5.656855e-001
    endloop
  endfacet
  facet normal  9.876884e-001 -1.564345e-001  0.000000e+000
    outer loop
      vertex -1.388833e+001  4.512593e+000  5.656855e-001
      vertex -1.388833e+001  4.512593e+000  1.339999e+000
      vertex -1.460306e+001 -3.130532e-014  1.339999e+000
    endloop
  endfacet
  facet normal  9.876884e-001 -1.564345e-001 -6.685910e-015
    outer loop
      vertex -1.388833e+001  4.512593e+000  5.656855e-001
      vertex -1.460306e+001 -3.130532e-014  1.339999e+000
      vertex -1.460306e+001  1.788359e-015  5.656855e-001
    endloop
  endfacet
  facet normal  1.564345e-001 -9.876884e-001  9.306262e-015
    outer loop
      vertex -4.512593e+000  1.388833e+001  1.339999e+000
      vertex  3.041114e-014  1.460306e+001  5.656855e-001
      vertex -1.565266e-014  1.460306e+001  1.339999e+000
    endloop
  endfacet
  facet normal -1.564345e-001 -9.876884e-001 -9.306262e-015
    outer loop
      vertex -1.565266e-014  1.460306e+001  1.339999e+000
      vertex  3.041114e-014  1.460306e+001  5.656855e-001
      vertex  4.512593e+000  1.388833e+001  5.656855e-001
    endloop
  endfacet
  facet normal -1.564345e-001 -9.876884e-001  0.000000e+000
    outer loop
      vertex -1.565266e-014  1.460306e+001  1.339999e+000
      vertex  4.512593e+000  1.388833e+001  5.656855e-001
      vertex  4.512593e+000  1.388833e+001  1.339999e+000
    endloop
  endfacet
  facet normal -4.539904e-001 -8.910066e-001  -0.000000e+000
    outer loop
      vertex  4.512593e+000  1.388833e+001  1.339999e+000
      vertex  4.512593e+000  1.388833e+001  5.656855e-001
      vertex  8.583463e+000  1.181412e+001  5.656855e-001
    endloop
  endfacet
  facet normal -4.539904e-001 -8.910066e-001  0.000000e+000
    outer loop
      vertex  4.512593e+000  1.388833e+001  1.339999e+000
      vertex  8.583463e+000  1.181412e+001  5.656855e-001
      vertex  8.583463e+000  1.181412e+001  1.339999e+000
    endloop
  endfacet
  facet normal -7.071068e-001 -7.071068e-001  -0.000000e+000
    outer loop
      vertex  8.583463e+000  1.181412e+001  1.339999e+000
      vertex  8.583463e+000  1.181412e+001  5.656855e-001
      vertex  1.181412e+001  8.583463e+000  5.656855e-001
    endloop
  endfacet
  facet normal -7.071068e-001 -7.071068e-001  0.000000e+000
    outer loop
      vertex  8.583463e+000  1.181412e+001  1.339999e+000
      vertex  1.181412e+001  8.583463e+000  5.656855e-001
      vertex  1.181412e+001  8.583463e+000  1.339999e+000
    endloop
  endfacet
  facet normal -8.910066e-001 -4.539904e-001  -0.000000e+000
    outer loop
      vertex  1.181412e+001  8.583463e+000  1.339999e+000
      vertex  1.181412e+001  8.583463e+000  5.656855e-001
      vertex  1.388833e+001  4.512593e+000  5.656855e-001
    endloop
  endfacet
  facet normal -8.910066e-001 -4.539904e-001  0.000000e+000
    outer loop
      vertex  1.181412e+001  8.583463e+000  1.339999e+000
      vertex  1.388833e+001  4.512593e+000  5.656855e-001
      vertex  1.388833e+001  4.512593e+000  1.339999e+000
    endloop
  endfacet
  facet normal -9.876884e-001 -1.564345e-001  -0.000000e+000
    outer loop
      vertex  1.388833e+001  4.512593e+000  1.339999e+000
      vertex  1.388833e+001  4.512593e+000  5.656855e-001
      vertex  1.460306e+001 -1.654684e-014  5.656855e-001
    endloop
  endfacet
  facet normal -9.876884e-001 -1.564345e-001  6.685910e-015
    outer loop
      vertex  1.388833e+001  4.512593e+000  1.339999e+000
      vertex  1.460306e+001 -1.654684e-014  5.656855e-001
      vertex  1.460306e+001  1.654684e-014  1.339999e+000
    endloop
  endfacet
  facet normal  1.090147e-001 -6.882914e-001 -7.171965e-001
    outer loop
      vertex -1.565266e-014  1.460306e+001  1.339999e+000
      vertex -4.137997e+000  1.273545e+001  2.503363e+000
      vertex -4.512593e+000  1.388833e+001  1.339999e+000
    endloop
  endfacet
  facet normal  3.163728e-001 -6.209167e-001 -7.171965e-001
    outer loop
      vertex -4.512593e+000  1.388833e+001  1.339999e+000
      vertex -4.137997e+000  1.273545e+001  2.503363e+000
      vertex -7.870938e+000  1.083342e+001  2.503363e+000
    endloop
  endfacet
  facet normal  3.163727e-001 -6.209166e-001 -7.171965e-001
    outer loop
      vertex -4.512593e+000  1.388833e+001  1.339999e+000
      vertex -7.870938e+000  1.083342e+001  2.503363e+000
      vertex -8.583463e+000  1.181412e+001  1.339999e+000
    endloop
  endfacet
  facet normal  4.927621e-001 -4.927621e-001 -7.171965e-001
    outer loop
      vertex -8.583463e+000  1.181412e+001  1.339999e+000
      vertex -7.870938e+000  1.083342e+001  2.503363e+000
      vertex -1.083342e+001  7.870938e+000  2.503363e+000
    endloop
  endfacet
  facet normal  4.927621e-001 -4.927622e-001 -7.171965e-001
    outer loop
      vertex -8.583463e+000  1.181412e+001  1.339999e+000
      vertex -1.083342e+001  7.870938e+000  2.503363e+000
      vertex -1.181412e+001  8.583463e+000  1.339999e+000
    endloop
  endfacet
  facet normal  6.209166e-001 -3.163728e-001 -7.171965e-001
    outer loop
      vertex -1.181412e+001  8.583463e+000  1.339999e+000
      vertex -1.083342e+001  7.870938e+000  2.503363e+000
      vertex -1.273545e+001  4.137997e+000  2.503363e+000
    endloop
  endfacet
  facet normal  6.209167e-001 -3.163728e-001 -7.171965e-001
    outer loop
      vertex -1.181412e+001  8.583463e+000  1.339999e+000
      vertex -1.273545e+001  4.137997e+000  2.503363e+000
      vertex -1.388833e+001  4.512593e+000  1.339999e+000
    endloop
  endfacet
  facet normal  6.882913e-001 -1.090147e-001 -7.171965e-001
    outer loop
      vertex -1.388833e+001  4.512593e+000  1.339999e+000
      vertex -1.273545e+001  4.137997e+000  2.503363e+000
      vertex -1.339084e+001 -4.919715e-015  2.503363e+000
    endloop
  endfacet
  facet normal  6.882914e-001 -1.090147e-001 -7.171965e-001
    outer loop
      vertex -1.388833e+001  4.512593e+000  1.339999e+000
      vertex -1.339084e+001 -4.919715e-015  2.503363e+000
      vertex -1.460306e+001 -3.130532e-014  1.339999e+000
    endloop
  endfacet
  facet normal  1.090147e-001 -6.882915e-001 -7.171964e-001
    outer loop
      vertex -4.137997e+000  1.273545e+001  2.503363e+000
      vertex -1.565266e-014  1.460306e+001  1.339999e+000
      vertex -2.459857e-015  1.339084e+001  2.503363e+000
    endloop
  endfacet
  facet normal -1.090147e-001 -6.882914e-001 -7.171965e-001
    outer loop
      vertex -2.459857e-015  1.339084e+001  2.503363e+000
      vertex -1.565266e-014  1.460306e+001  1.339999e+000
      vertex  4.512593e+000  1.388833e+001  1.339999e+000
    endloop
  endfacet
  facet normal -1.090147e-001 -6.882913e-001 -7.171965e-001
    outer loop
      vertex -2.459857e-015  1.339084e+001  2.503363e+000
      vertex  4.512593e+000  1.388833e+001  1.339999e+000
      vertex  4.137997e+000  1.273545e+001  2.503363e+000
    endloop
  endfacet
  facet normal -3.163728e-001 -6.209167e-001 -7.171965e-001
    outer loop
      vertex  4.137997e+000  1.273545e+001  2.503363e+000
      vertex  4.512593e+000  1.388833e+001  1.339999e+000
      vertex  8.583463e+000  1.181412e+001  1.339999e+000
    endloop
  endfacet
  facet normal -3.163728e-001 -6.209166e-001 -7.171965e-001
    outer loop
      vertex  4.137997e+000  1.273545e+001  2.503363e+000
      vertex  8.583463e+000  1.181412e+001  1.339999e+000
      vertex  7.870938e+000  1.083342e+001  2.503363e+000
    endloop
  endfacet
  facet normal -4.927622e-001 -4.927621e-001 -7.171965e-001
    outer loop
      vertex  7.870938e+000  1.083342e+001  2.503363e+000
      vertex  8.583463e+000  1.181412e+001  1.339999e+000
      vertex  1.181412e+001  8.583463e+000  1.339999e+000
    endloop
  endfacet
  facet normal -4.927621e-001 -4.927621e-001 -7.171965e-001
    outer loop
      vertex  7.870938e+000  1.083342e+001  2.503363e+000
      vertex  1.181412e+001  8.583463e+000  1.339999e+000
      vertex  1.083342e+001  7.870938e+000  2.503363e+000
    endloop
  endfacet
  facet normal -6.209166e-001 -3.163727e-001 -7.171965e-001
    outer loop
      vertex  1.083342e+001  7.870938e+000  2.503363e+000
      vertex  1.181412e+001  8.583463e+000  1.339999e+000
      vertex  1.388833e+001  4.512593e+000  1.339999e+000
    endloop
  endfacet
  facet normal -6.209167e-001 -3.163728e-001 -7.171965e-001
    outer loop
      vertex  1.083342e+001  7.870938e+000  2.503363e+000
      vertex  1.388833e+001  4.512593e+000  1.339999e+000
      vertex  1.273545e+001  4.137997e+000  2.503363e+000
    endloop
  endfacet
  facet normal -6.882914e-001 -1.090147e-001 -7.171965e-001
    outer loop
      vertex  1.273545e+001  4.137997e+000  2.503363e+000
      vertex  1.388833e+001  4.512593e+000  1.339999e+000
      vertex  1.460306e+001  1.654684e-014  1.339999e+000
    endloop
  endfacet
  facet normal -6.882915e-001 -1.090147e-001 -7.171964e-001
    outer loop
      vertex  1.273545e+001  4.137997e+000  2.503363e+000
      vertex  1.460306e+001  1.654684e-014  1.339999e+000
      vertex  1.339084e+001  1.517326e-014  2.503363e+000
    endloop
  endfacet
  facet normal -3.307108e-001 -6.578250e-002 -9.414367e-001
    outer loop
      vertex  8.230302e+000  3.409103e+000  4.136874e+000
      vertex  1.273545e+001  4.137997e+000  2.503363e+000
      vertex  8.908415e+000 -2.181932e-015  4.136874e+000
    endloop
  endfacet
  facet normal -3.418958e-001 -5.415098e-002 -9.381765e-001
    outer loop
      vertex  1.273545e+001  4.137997e+000  2.503363e+000
      vertex  1.339084e+001  1.517326e-014  2.503363e+000
      vertex  8.908415e+000 -2.181932e-015  4.136874e+000
    endloop
  endfacet
  facet normal  3.418958e-001 -5.415099e-002 -9.381764e-001
    outer loop
      vertex -1.339084e+001 -4.919715e-015  2.503363e+000
      vertex -1.273545e+001  4.137997e+000  2.503363e+000
      vertex -8.908415e+000  1.090966e-015  4.136874e+000
    endloop
  endfacet
  facet normal  3.307107e-001 -6.578248e-002 -9.414367e-001
    outer loop
      vertex -1.273545e+001  4.137997e+000  2.503363e+000
      vertex -8.230302e+000  3.409103e+000  4.136874e+000
      vertex -8.908415e+000  1.090966e-015  4.136874e+000
    endloop
  endfacet
  facet normal  3.135478e-001 -1.597606e-001 -9.360364e-001
    outer loop
      vertex -1.273545e+001  4.137997e+000  2.503363e+000
      vertex -1.083342e+001  7.870938e+000  2.503363e+000
      vertex -8.230302e+000  3.409103e+000  4.136874e+000
    endloop
  endfacet
  facet normal  2.502180e-001 -2.502180e-001 -9.352977e-001
    outer loop
      vertex -1.083342e+001  7.870938e+000  2.503363e+000
      vertex -7.870938e+000  1.083342e+001  2.503363e+000
      vertex -6.299201e+000  6.299201e+000  4.136874e+000
    endloop
  endfacet
  facet normal  2.759349e-001 -1.843738e-001 -9.433272e-001
    outer loop
      vertex -8.230302e+000  3.409103e+000  4.136874e+000
      vertex -1.083342e+001  7.870938e+000  2.503363e+000
      vertex -6.299201e+000  6.299201e+000  4.136874e+000
    endloop
  endfacet
  facet normal  1.597606e-001 -3.135478e-001 -9.360365e-001
    outer loop
      vertex -7.870938e+000  1.083342e+001  2.503363e+000
      vertex -4.137997e+000  1.273545e+001  2.503363e+000
      vertex -3.409103e+000  8.230302e+000  4.136874e+000
    endloop
  endfacet
  facet normal  1.843738e-001 -2.759349e-001 -9.433272e-001
    outer loop
      vertex -6.299201e+000  6.299201e+000  4.136874e+000
      vertex -7.870938e+000  1.083342e+001  2.503363e+000
      vertex -3.409103e+000  8.230302e+000  4.136874e+000
    endloop
  endfacet
  facet normal  5.415098e-002 -3.418958e-001 -9.381765e-001
    outer loop
      vertex -4.137997e+000  1.273545e+001  2.503363e+000
      vertex -2.459857e-015  1.339084e+001  2.503363e+000
      vertex  2.727415e-015  8.908415e+000  4.136874e+000
    endloop
  endfacet
  facet normal  6.578250e-002 -3.307108e-001 -9.414367e-001
    outer loop
      vertex -3.409103e+000  8.230302e+000  4.136874e+000
      vertex -4.137997e+000  1.273545e+001  2.503363e+000
      vertex  2.727415e-015  8.908415e+000  4.136874e+000
    endloop
  endfacet
  facet normal -1.597606e-001 -3.135478e-001 -9.360364e-001
    outer loop
      vertex  4.137997e+000  1.273545e+001  2.503363e+000
      vertex  7.870938e+000  1.083342e+001  2.503363e+000
      vertex  3.409103e+000  8.230302e+000  4.136874e+000
    endloop
  endfacet
  facet normal -6.578250e-002 -3.307108e-001 -9.414367e-001
    outer loop
      vertex  2.727415e-015  8.908415e+000  4.136874e+000
      vertex  4.137997e+000  1.273545e+001  2.503363e+000
      vertex  3.409103e+000  8.230302e+000  4.136874e+000
    endloop
  endfacet
  facet normal -2.502180e-001 -2.502180e-001 -9.352977e-001
    outer loop
      vertex  7.870938e+000  1.083342e+001  2.503363e+000
      vertex  1.083342e+001  7.870938e+000  2.503363e+000
      vertex  6.299201e+000  6.299201e+000  4.136874e+000
    endloop
  endfacet
  facet normal -1.843738e-001 -2.759349e-001 -9.433272e-001
    outer loop
      vertex  3.409103e+000  8.230302e+000  4.136874e+000
      vertex  7.870938e+000  1.083342e+001  2.503363e+000
      vertex  6.299201e+000  6.299201e+000  4.136874e+000
    endloop
  endfacet
  facet normal -3.135478e-001 -1.597606e-001 -9.360365e-001
    outer loop
      vertex  1.083342e+001  7.870938e+000  2.503363e+000
      vertex  1.273545e+001  4.137997e+000  2.503363e+000
      vertex  8.230302e+000  3.409103e+000  4.136874e+000
    endloop
  endfacet
  facet normal -2.759349e-001 -1.843738e-001 -9.433272e-001
    outer loop
      vertex  6.299201e+000  6.299201e+000  4.136874e+000
      vertex  1.083342e+001  7.870938e+000  2.503363e+000
      vertex  8.230302e+000  3.409103e+000  4.136874e+000
    endloop
  endfacet
  facet normal -5.415099e-002 -3.418958e-001 -9.381764e-001
    outer loop
      vertex -2.459857e-015  1.339084e+001  2.503363e+000
      vertex  4.137997e+000  1.273545e+001  2.503363e+000
      vertex  2.727415e-015  8.908415e+000  4.136874e+000
    endloop
  endfacet
  facet normal  5.240105e-001 -6.898718e-002 -8.489133e-001
    outer loop
      vertex -8.908415e+000  1.090966e-015  4.136874e+000
      vertex -5.813416e+000  1.557700e+000  5.920743e+000
      vertex -6.018491e+000  7.370526e-016  5.920743e+000
    endloop
  endfacet
  facet normal  5.362705e-001 -1.066709e-001 -8.372785e-001
    outer loop
      vertex -8.908415e+000  1.090966e-015  4.136874e+000
      vertex -8.230302e+000  3.409103e+000  4.136874e+000
      vertex -5.813416e+000  1.557700e+000  5.920743e+000
    endloop
  endfacet
  facet normal -5.362705e-001 -1.066709e-001 -8.372785e-001
    outer loop
      vertex  8.908415e+000 -2.181932e-015  4.136874e+000
      vertex  5.813416e+000  1.557700e+000  5.920743e+000
      vertex  8.230302e+000  3.409103e+000  4.136874e+000
    endloop
  endfacet
  facet normal -5.240105e-001 -6.898718e-002 -8.489133e-001
    outer loop
      vertex  8.908415e+000 -2.181932e-015  4.136874e+000
      vertex  6.018491e+000 -1.474105e-015  5.920743e+000
      vertex  5.813416e+000  1.557700e+000  5.920743e+000
    endloop
  endfacet
  facet normal  9.216672e-001 -2.994679e-001 -2.466750e-001
    outer loop
      vertex -3.384559e+000  1.917535e-015  1.202914e+001
      vertex -3.932379e+000  1.053678e+000  8.703100e+000
      vertex -2.738166e+000  1.989394e+000  1.202914e+001
    endloop
  endfacet
  facet normal  9.713138e-001 -1.278759e-001 -2.004923e-001
    outer loop
      vertex -3.384559e+000  1.917535e-015  1.202914e+001
      vertex -4.071098e+000  4.985657e-016  8.703100e+000
      vertex -3.932379e+000  1.053678e+000  8.703100e+000
    endloop
  endfacet
  facet normal -7.784974e-001 -5.973619e-001 -1.926150e-001
    outer loop
      vertex  2.738166e+000  1.989394e+000  1.202914e+001
      vertex  2.878701e+000  2.878701e+000  8.703100e+000
      vertex  3.525674e+000  2.035549e+000  8.703100e+000
    endloop
  endfacet
  facet normal -4.546282e-001 -3.037728e-001 -8.372785e-001
    outer loop
      vertex  5.212166e+000  3.009245e+000  5.920743e+000
      vertex  6.299201e+000  6.299201e+000  4.136874e+000
      vertex  8.230302e+000  3.409103e+000  4.136874e+000
    endloop
  endfacet
  facet normal -4.790830e-001 -1.984427e-001 -8.550438e-001
    outer loop
      vertex  5.212166e+000  3.009245e+000  5.920743e+000
      vertex  8.230302e+000  3.409103e+000  4.136874e+000
      vertex  5.813416e+000  1.557700e+000  5.920743e+000
    endloop
  endfacet
  facet normal -3.753183e-001 -9.060985e-001 -1.952474e-001
    outer loop
      vertex  1.045886e+000  3.218907e+000  1.202914e+001
      vertex  1.053678e+000  3.932379e+000  8.703100e+000
      vertex  2.035549e+000  3.525674e+000  8.703100e+000
    endloop
  endfacet
  facet normal -5.703008e-001 -7.849516e-001 -2.420908e-001
    outer loop
      vertex  1.045886e+000  3.218907e+000  1.202914e+001
      vertex  2.035549e+000  3.525674e+000  8.703100e+000
      vertex  2.738166e+000  1.989394e+000  1.202914e+001
    endloop
  endfacet
  facet normal -5.922400e-001 -7.718223e-001 -2.313919e-001
    outer loop
      vertex  2.738166e+000  1.989394e+000  1.202914e+001
      vertex  2.035549e+000  3.525674e+000  8.703100e+000
      vertex  2.878701e+000  2.878701e+000  8.703100e+000
    endloop
  endfacet
  facet normal -3.037728e-001 -4.546282e-001 -8.372785e-001
    outer loop
      vertex  3.009245e+000  5.212166e+000  5.920743e+000
      vertex  3.409103e+000  8.230302e+000  4.136874e+000
      vertex  6.299201e+000  6.299201e+000  4.136874e+000
    endloop
  endfacet
  facet normal -3.217500e-001 -4.193127e-001 -8.489133e-001
    outer loop
      vertex  3.009245e+000  5.212166e+000  5.920743e+000
      vertex  6.299201e+000  6.299201e+000  4.136874e+000
      vertex  4.255716e+000  4.255716e+000  5.920743e+000
    endloop
  endfacet
  facet normal -1.066709e-001 -5.362705e-001 -8.372785e-001
    outer loop
      vertex  1.557700e+000  5.813416e+000  5.920743e+000
      vertex  2.727415e-015  8.908415e+000  4.136874e+000
      vertex  3.409103e+000  8.230302e+000  4.136874e+000
    endloop
  endfacet
  facet normal -1.984427e-001 -4.790830e-001 -8.550438e-001
    outer loop
      vertex  1.557700e+000  5.813416e+000  5.920743e+000
      vertex  3.409103e+000  8.230302e+000  4.136874e+000
      vertex  3.009245e+000  5.212166e+000  5.920743e+000
    endloop
  endfacet
  facet normal  3.753183e-001 -9.060985e-001 -1.952474e-001
    outer loop
      vertex -1.045886e+000  3.218907e+000  1.202914e+001
      vertex -2.035549e+000  3.525674e+000  8.703100e+000
      vertex -1.053678e+000  3.932379e+000  8.703100e+000
    endloop
  endfacet
  facet normal  0.000000e+000 -9.777573e-001 -2.097397e-001
    outer loop
      vertex -1.045886e+000  3.218907e+000  1.202914e+001
      vertex -1.053678e+000  3.932379e+000  8.703100e+000
      vertex  1.045886e+000  3.218907e+000  1.202914e+001
    endloop
  endfacet
  facet normal  1.251900e-001 -9.509124e-001 -2.830076e-001
    outer loop
      vertex  1.045886e+000  3.218907e+000  1.202914e+001
      vertex -1.053678e+000  3.932379e+000  8.703100e+000
      vertex  1.246414e-015  4.071098e+000  8.703100e+000
    endloop
  endfacet
  facet normal -1.276629e-001 -9.696955e-001 -2.083095e-001
    outer loop
      vertex  1.045886e+000  3.218907e+000  1.202914e+001
      vertex  1.246414e-015  4.071098e+000  8.703100e+000
      vertex  1.053678e+000  3.932379e+000  8.703100e+000
    endloop
  endfacet
  facet normal  1.066709e-001 -5.362705e-001 -8.372785e-001
    outer loop
      vertex -1.557700e+000  5.813416e+000  5.920743e+000
      vertex -3.409103e+000  8.230302e+000  4.136874e+000
      vertex  2.727415e-015  8.908415e+000  4.136874e+000
    endloop
  endfacet
  facet normal  6.898718e-002 -5.240105e-001 -8.489133e-001
    outer loop
      vertex -1.557700e+000  5.813416e+000  5.920743e+000
      vertex  2.727415e-015  8.908415e+000  4.136874e+000
      vertex  1.842631e-015  6.018491e+000  5.920743e+000
    endloop
  endfacet
  facet normal  3.037728e-001 -4.546282e-001 -8.372785e-001
    outer loop
      vertex -3.009245e+000  5.212166e+000  5.920743e+000
      vertex -6.299201e+000  6.299201e+000  4.136874e+000
      vertex -3.409103e+000  8.230302e+000  4.136874e+000
    endloop
  endfacet
  facet normal  1.984427e-001 -4.790830e-001 -8.550438e-001
    outer loop
      vertex -3.009245e+000  5.212166e+000  5.920743e+000
      vertex -3.409103e+000  8.230302e+000  4.136874e+000
      vertex -1.557700e+000  5.813416e+000  5.920743e+000
    endloop
  endfacet
  facet normal  7.784974e-001 -5.973619e-001 -1.926150e-001
    outer loop
      vertex -2.738166e+000  1.989394e+000  1.202914e+001
      vertex -3.525674e+000  2.035549e+000  8.703100e+000
      vertex -2.878701e+000  2.878701e+000  8.703100e+000
    endloop
  endfacet
  facet normal  5.714056e-001 -7.864724e-001 -2.344286e-001
    outer loop
      vertex -2.738166e+000  1.989394e+000  1.202914e+001
      vertex -2.878701e+000  2.878701e+000  8.703100e+000
      vertex -1.045886e+000  3.218907e+000  1.202914e+001
    endloop
  endfacet
  facet normal  5.899822e-001 -7.688799e-001 -2.464647e-001
    outer loop
      vertex -1.045886e+000  3.218907e+000  1.202914e+001
      vertex -2.878701e+000  2.878701e+000  8.703100e+000
      vertex -2.035549e+000  3.525674e+000  8.703100e+000
    endloop
  endfacet
  facet normal  4.546282e-001 -3.037728e-001 -8.372785e-001
    outer loop
      vertex -5.212166e+000  3.009245e+000  5.920743e+000
      vertex -8.230302e+000  3.409103e+000  4.136874e+000
      vertex -6.299201e+000  6.299201e+000  4.136874e+000
    endloop
  endfacet
  facet normal  4.193127e-001 -3.217500e-001 -8.489133e-001
    outer loop
      vertex -5.212166e+000  3.009245e+000  5.920743e+000
      vertex -6.299201e+000  6.299201e+000  4.136874e+000
      vertex -4.255716e+000  4.255716e+000  5.920743e+000
    endloop
  endfacet
  facet normal  9.015273e-001 -3.734249e-001 -2.186374e-001
    outer loop
      vertex -2.738166e+000  1.989394e+000  1.202914e+001
      vertex -3.932379e+000  1.053678e+000  8.703100e+000
      vertex -3.525674e+000  2.035549e+000  8.703100e+000
    endloop
  endfacet
  facet normal  4.790830e-001 -1.984427e-001 -8.550438e-001
    outer loop
      vertex -5.813416e+000  1.557700e+000  5.920743e+000
      vertex -8.230302e+000  3.409103e+000  4.136874e+000
      vertex -5.212166e+000  3.009245e+000  5.920743e+000
    endloop
  endfacet
  facet normal -4.193127e-001 -3.217500e-001 -8.489133e-001
    outer loop
      vertex  6.299201e+000  6.299201e+000  4.136874e+000
      vertex  5.212166e+000  3.009245e+000  5.920743e+000
      vertex  4.255716e+000  4.255716e+000  5.920743e+000
    endloop
  endfacet
  facet normal -6.898718e-002 -5.240105e-001 -8.489133e-001
    outer loop
      vertex  2.727415e-015  8.908415e+000  4.136874e+000
      vertex  1.557700e+000  5.813416e+000  5.920743e+000
      vertex  1.842631e-015  6.018491e+000  5.920743e+000
    endloop
  endfacet
  facet normal  3.217500e-001 -4.193127e-001 -8.489133e-001
    outer loop
      vertex -6.299201e+000  6.299201e+000  4.136874e+000
      vertex -3.009245e+000  5.212166e+000  5.920743e+000
      vertex -4.255716e+000  4.255716e+000  5.920743e+000
    endloop
  endfacet
  facet normal -9.269641e-001 -3.011889e-001 -2.236576e-001
    outer loop
      vertex  3.384559e+000 -3.835070e-015  1.202914e+001
      vertex  2.738166e+000  1.989394e+000  1.202914e+001
      vertex  3.525674e+000  2.035549e+000  8.703100e+000
    endloop
  endfacet
  facet normal -8.911728e-001 -3.691359e-001 -2.637230e-001
    outer loop
      vertex  3.384559e+000 -3.835070e-015  1.202914e+001
      vertex  3.525674e+000  2.035549e+000  8.703100e+000
      vertex  3.932379e+000  1.053678e+000  8.703100e+000
    endloop
  endfacet
  facet normal -9.713138e-001 -1.278759e-001 -2.004923e-001
    outer loop
      vertex  3.384559e+000 -3.835070e-015  1.202914e+001
      vertex  3.932379e+000  1.053678e+000  8.703100e+000
      vertex  4.071098e+000 -9.971314e-016  8.703100e+000
    endloop
  endfacet
  facet normal -8.145431e-001 -1.072364e-001 -5.701050e-001
    outer loop
      vertex  6.018491e+000 -1.474105e-015  5.920743e+000
      vertex  4.071098e+000 -9.971314e-016  8.703100e+000
      vertex  5.813416e+000  1.557700e+000  5.920743e+000
    endloop
  endfacet
  facet normal -8.145431e-001 -1.072367e-001 -5.701051e-001
    outer loop
      vertex  5.813416e+000  1.557700e+000  5.920743e+000
      vertex  4.071098e+000 -9.971314e-016  8.703100e+000
      vertex  3.932379e+000  1.053678e+000  8.703100e+000
    endloop
  endfacet
  facet normal -7.590333e-001 -3.144019e-001 -5.701051e-001
    outer loop
      vertex  5.813416e+000  1.557700e+000  5.920743e+000
      vertex  3.932379e+000  1.053678e+000  8.703100e+000
      vertex  5.212166e+000  3.009245e+000  5.920743e+000
    endloop
  endfacet
  facet normal -7.590334e-001 -3.144019e-001 -5.701051e-001
    outer loop
      vertex  5.212166e+000  3.009245e+000  5.920743e+000
      vertex  3.932379e+000  1.053678e+000  8.703100e+000
      vertex  3.525674e+000  2.035549e+000  8.703100e+000
    endloop
  endfacet
  facet normal -6.517967e-001 -5.001412e-001 -5.701051e-001
    outer loop
      vertex  5.212166e+000  3.009245e+000  5.920743e+000
      vertex  3.525674e+000  2.035549e+000  8.703100e+000
      vertex  4.255716e+000  4.255716e+000  5.920743e+000
    endloop
  endfacet
  facet normal -6.517968e-001 -5.001411e-001 -5.701051e-001
    outer loop
      vertex  4.255716e+000  4.255716e+000  5.920743e+000
      vertex  3.525674e+000  2.035549e+000  8.703100e+000
      vertex  2.878701e+000  2.878701e+000  8.703100e+000
    endloop
  endfacet
  facet normal -5.001413e-001 -6.517967e-001 -5.701051e-001
    outer loop
      vertex  4.255716e+000  4.255716e+000  5.920743e+000
      vertex  2.878701e+000  2.878701e+000  8.703100e+000
      vertex  3.009245e+000  5.212166e+000  5.920743e+000
    endloop
  endfacet
  facet normal -5.001412e-001 -6.517968e-001 -5.701051e-001
    outer loop
      vertex  3.009245e+000  5.212166e+000  5.920743e+000
      vertex  2.878701e+000  2.878701e+000  8.703100e+000
      vertex  2.035549e+000  3.525674e+000  8.703100e+000
    endloop
  endfacet
  facet normal -3.144019e-001 -7.590333e-001 -5.701051e-001
    outer loop
      vertex  3.009245e+000  5.212166e+000  5.920743e+000
      vertex  2.035549e+000  3.525674e+000  8.703100e+000
      vertex  1.557700e+000  5.813416e+000  5.920743e+000
    endloop
  endfacet
  facet normal -3.144019e-001 -7.590334e-001 -5.701051e-001
    outer loop
      vertex  1.557700e+000  5.813416e+000  5.920743e+000
      vertex  2.035549e+000  3.525674e+000  8.703100e+000
      vertex  1.053678e+000  3.932379e+000  8.703100e+000
    endloop
  endfacet
  facet normal -1.072364e-001 -8.145431e-001 -5.701051e-001
    outer loop
      vertex  1.557700e+000  5.813416e+000  5.920743e+000
      vertex  1.053678e+000  3.932379e+000  8.703100e+000
      vertex  1.842631e-015  6.018491e+000  5.920743e+000
    endloop
  endfacet
  facet normal -1.072367e-001 -8.145431e-001 -5.701050e-001
    outer loop
      vertex  1.842631e-015  6.018491e+000  5.920743e+000
      vertex  1.053678e+000  3.932379e+000  8.703100e+000
      vertex  1.246414e-015  4.071098e+000  8.703100e+000
    endloop
  endfacet
  facet normal  1.072364e-001 -8.145431e-001 -5.701050e-001
    outer loop
      vertex  1.842631e-015  6.018491e+000  5.920743e+000
      vertex  1.246414e-015  4.071098e+000  8.703100e+000
      vertex -1.557700e+000  5.813416e+000  5.920743e+000
    endloop
  endfacet
  facet normal  1.072367e-001 -8.145431e-001 -5.701051e-001
    outer loop
      vertex -1.557700e+000  5.813416e+000  5.920743e+000
      vertex  1.246414e-015  4.071098e+000  8.703100e+000
      vertex -1.053678e+000  3.932379e+000  8.703100e+000
    endloop
  endfacet
  facet normal  3.144019e-001 -7.590333e-001 -5.701051e-001
    outer loop
      vertex -1.557700e+000  5.813416e+000  5.920743e+000
      vertex -1.053678e+000  3.932379e+000  8.703100e+000
      vertex -3.009245e+000  5.212166e+000  5.920743e+000
    endloop
  endfacet
  facet normal  3.144019e-001 -7.590334e-001 -5.701051e-001
    outer loop
      vertex -3.009245e+000  5.212166e+000  5.920743e+000
      vertex -1.053678e+000  3.932379e+000  8.703100e+000
      vertex -2.035549e+000  3.525674e+000  8.703100e+000
    endloop
  endfacet
  facet normal  5.001412e-001 -6.517967e-001 -5.701051e-001
    outer loop
      vertex -3.009245e+000  5.212166e+000  5.920743e+000
      vertex -2.035549e+000  3.525674e+000  8.703100e+000
      vertex -4.255716e+000  4.255716e+000  5.920743e+000
    endloop
  endfacet
  facet normal  5.001411e-001 -6.517968e-001 -5.701051e-001
    outer loop
      vertex -4.255716e+000  4.255716e+000  5.920743e+000
      vertex -2.035549e+000  3.525674e+000  8.703100e+000
      vertex -2.878701e+000  2.878701e+000  8.703100e+000
    endloop
  endfacet
  facet normal  6.517967e-001 -5.001413e-001 -5.701051e-001
    outer loop
      vertex -4.255716e+000  4.255716e+000  5.920743e+000
      vertex -2.878701e+000  2.878701e+000  8.703100e+000
      vertex -5.212166e+000  3.009245e+000  5.920743e+000
    endloop
  endfacet
  facet normal  6.517968e-001 -5.001412e-001 -5.701051e-001
    outer loop
      vertex -5.212166e+000  3.009245e+000  5.920743e+000
      vertex -2.878701e+000  2.878701e+000  8.703100e+000
      vertex -3.525674e+000  2.035549e+000  8.703100e+000
    endloop
  endfacet
  facet normal  7.590333e-001 -3.144019e-001 -5.701051e-001
    outer loop
      vertex -5.212166e+000  3.009245e+000  5.920743e+000
      vertex -3.525674e+000  2.035549e+000  8.703100e+000
      vertex -5.813416e+000  1.557700e+000  5.920743e+000
    endloop
  endfacet
  facet normal  7.590334e-001 -3.144019e-001 -5.701051e-001
    outer loop
      vertex -5.813416e+000  1.557700e+000  5.920743e+000
      vertex -3.525674e+000  2.035549e+000  8.703100e+000
      vertex -3.932379e+000  1.053678e+000  8.703100e+000
    endloop
  endfacet
  facet normal  8.145431e-001 -1.072364e-001 -5.701051e-001
    outer loop
      vertex -5.813416e+000  1.557700e+000  5.920743e+000
      vertex -3.932379e+000  1.053678e+000  8.703100e+000
      vertex -6.018491e+000  7.370526e-016  5.920743e+000
    endloop
  endfacet
  facet normal  8.145431e-001 -1.072367e-001 -5.701050e-001
    outer loop
      vertex -6.018491e+000  7.370526e-016  5.920743e+000
      vertex -3.932379e+000  1.053678e+000  8.703100e+000
      vertex -4.071098e+000  4.985657e-016  8.703100e+000
    endloop
  endfacet
  facet normal  5.877852e-001 -8.090169e-001  0.000000e+000
    outer loop
      vertex -1.045886e+000  3.218907e+000  1.202914e+001
      vertex -2.738166e+000  1.989394e+000  5.500000e+001
      vertex -2.738166e+000  1.989394e+000  1.202914e+001
    endloop
  endfacet
  facet normal  9.510565e-001 -3.090170e-001  0.000000e+000
    outer loop
      vertex -2.738166e+000  1.989394e+000  1.202914e+001
      vertex -2.738166e+000  1.989394e+000  5.500000e+001
      vertex -3.384559e+000  1.917535e-015  5.500000e+001
    endloop
  endfacet
  facet normal  9.510565e-001 -3.090170e-001  0.000000e+000
    outer loop
      vertex -2.738166e+000  1.989394e+000  1.202914e+001
      vertex -3.384559e+000  1.917535e-015  5.500000e+001
      vertex -3.384559e+000  1.917535e-015  1.202914e+001
    endloop
  endfacet
  facet normal  5.877852e-001 -8.090169e-001  0.000000e+000
    outer loop
      vertex -2.738166e+000  1.989394e+000  5.500000e+001
      vertex -1.045886e+000  3.218907e+000  1.202914e+001
      vertex -1.045886e+000  3.218907e+000  5.500000e+001
    endloop
  endfacet
  facet normal  0.000000e+000 -1.000000e+000  0.000000e+000
    outer loop
      vertex -1.045886e+000  3.218907e+000  5.500000e+001
      vertex -1.045886e+000  3.218907e+000  1.202914e+001
      vertex  1.045886e+000  3.218907e+000  1.202914e+001
    endloop
  endfacet
  facet normal  0.000000e+000 -1.000000e+000  0.000000e+000
    outer loop
      vertex -1.045886e+000  3.218907e+000  5.500000e+001
      vertex  1.045886e+000  3.218907e+000  1.202914e+001
      vertex  1.045886e+000  3.218907e+000  5.500000e+001
    endloop
  endfacet
  facet normal -5.877852e-001 -8.090169e-001  -0.000000e+000
    outer loop
      vertex  1.045886e+000  3.218907e+000  5.500000e+001
      vertex  1.045886e+000  3.218907e+000  1.202914e+001
      vertex  2.738166e+000  1.989394e+000  1.202914e+001
    endloop
  endfacet
  facet normal -5.877852e-001 -8.090169e-001  0.000000e+000
    outer loop
      vertex  1.045886e+000  3.218907e+000  5.500000e+001
      vertex  2.738166e+000  1.989394e+000  1.202914e+001
      vertex  2.738166e+000  1.989394e+000  5.500000e+001
    endloop
  endfacet
  facet normal -9.510565e-001 -3.090170e-001  -0.000000e+000
    outer loop
      vertex  2.738166e+000  1.989394e+000  5.500000e+001
      vertex  2.738166e+000  1.989394e+000  1.202914e+001
      vertex  3.384559e+000 -3.835070e-015  1.202914e+001
    endloop
  endfacet
  facet normal -9.510565e-001 -3.090170e-001  0.000000e+000
    outer loop
      vertex  2.738166e+000  1.989394e+000  5.500000e+001
      vertex  3.384559e+000 -3.835070e-015  1.202914e+001
      vertex  3.384559e+000 -3.835070e-015  5.500000e+001
    endloop
  endfacet
  facet normal  1.112990e-001  7.027140e-001  7.027131e-001
    outer loop
      vertex -2.862278e-014 -1.460306e+001  5.656855e-001
      vertex -4.337787e+000 -1.335034e+001  0.000000e+000
      vertex -4.512593e+000 -1.388833e+001  5.656855e-001
    endloop
  endfacet
  facet normal  3.230022e-001  6.339273e-001  7.027130e-001
    outer loop
      vertex -4.512593e+000 -1.388833e+001  5.656855e-001
      vertex -4.337787e+000 -1.335034e+001  0.000000e+000
      vertex -8.250961e+000 -1.135647e+001  0.000000e+000
    endloop
  endfacet
  facet normal  3.230019e-001  6.339270e-001  7.027135e-001
    outer loop
      vertex -4.512593e+000 -1.388833e+001  5.656855e-001
      vertex -8.250961e+000 -1.135647e+001  0.000000e+000
      vertex -8.583463e+000 -1.181412e+001  5.656855e-001
    endloop
  endfacet
  facet normal  5.030873e-001  5.030873e-001  7.027135e-001
    outer loop
      vertex -8.583463e+000 -1.181412e+001  5.656855e-001
      vertex -8.250961e+000 -1.135647e+001  0.000000e+000
      vertex -1.135647e+001 -8.250961e+000  0.000000e+000
    endloop
  endfacet
  facet normal  5.030874e-001  5.030874e-001  7.027135e-001
    outer loop
      vertex -8.583463e+000 -1.181412e+001  5.656855e-001
      vertex -1.135647e+001 -8.250961e+000  0.000000e+000
      vertex -1.181412e+001 -8.583463e+000  5.656855e-001
    endloop
  endfacet
  facet normal  6.339270e-001  3.230020e-001  7.027135e-001
    outer loop
      vertex -1.181412e+001 -8.583463e+000  5.656855e-001
      vertex -1.135647e+001 -8.250961e+000  0.000000e+000
      vertex -1.335034e+001 -4.337787e+000  0.000000e+000
    endloop
  endfacet
  facet normal  6.339275e-001  3.230021e-001  7.027131e-001
    outer loop
      vertex -1.181412e+001 -8.583463e+000  5.656855e-001
      vertex -1.335034e+001 -4.337787e+000  0.000000e+000
      vertex -1.388833e+001 -4.512593e+000  5.656855e-001
    endloop
  endfacet
  facet normal  7.027139e-001  1.112989e-001  7.027130e-001
    outer loop
      vertex -1.388833e+001 -4.512593e+000  5.656855e-001
      vertex -1.335034e+001 -4.337787e+000  0.000000e+000
      vertex -1.403737e+001 -4.514764e-015  0.000000e+000
    endloop
  endfacet
  facet normal  7.027136e-001  1.112989e-001  7.027133e-001
    outer loop
      vertex -1.388833e+001 -4.512593e+000  5.656855e-001
      vertex -1.403737e+001 -4.514764e-015  0.000000e+000
      vertex -1.460306e+001  1.788359e-015  5.656855e-001
    endloop
  endfacet
  facet normal  1.112988e-001  7.027136e-001  7.027134e-001
    outer loop
      vertex -4.337787e+000 -1.335034e+001  0.000000e+000
      vertex -2.862278e-014 -1.460306e+001  5.656855e-001
      vertex -2.578624e-015 -1.403737e+001  0.000000e+000
    endloop
  endfacet
  facet normal -1.112989e-001  7.027136e-001  7.027133e-001
    outer loop
      vertex -2.578624e-015 -1.403737e+001  0.000000e+000
      vertex -2.862278e-014 -1.460306e+001  5.656855e-001
      vertex  4.512593e+000 -1.388833e+001  5.656855e-001
    endloop
  endfacet
  facet normal -1.112989e-001  7.027139e-001  7.027130e-001
    outer loop
      vertex -2.578624e-015 -1.403737e+001  0.000000e+000
      vertex  4.512593e+000 -1.388833e+001  5.656855e-001
      vertex  4.337787e+000 -1.335034e+001  0.000000e+000
    endloop
  endfacet
  facet normal -3.230021e-001  6.339275e-001  7.027131e-001
    outer loop
      vertex  4.337787e+000 -1.335034e+001  0.000000e+000
      vertex  4.512593e+000 -1.388833e+001  5.656855e-001
      vertex  8.583463e+000 -1.181412e+001  5.656855e-001
    endloop
  endfacet
  facet normal -3.230020e-001  6.339270e-001  7.027135e-001
    outer loop
      vertex  4.337787e+000 -1.335034e+001  0.000000e+000
      vertex  8.583463e+000 -1.181412e+001  5.656855e-001
      vertex  8.250961e+000 -1.135647e+001  0.000000e+000
    endloop
  endfacet
  facet normal -5.030874e-001  5.030874e-001  7.027135e-001
    outer loop
      vertex  8.250961e+000 -1.135647e+001  0.000000e+000
      vertex  8.583463e+000 -1.181412e+001  5.656855e-001
      vertex  1.181412e+001 -8.583463e+000  5.656855e-001
    endloop
  endfacet
  facet normal -5.030873e-001  5.030873e-001  7.027135e-001
    outer loop
      vertex  8.250961e+000 -1.135647e+001  0.000000e+000
      vertex  1.181412e+001 -8.583463e+000  5.656855e-001
      vertex  1.135647e+001 -8.250961e+000  0.000000e+000
    endloop
  endfacet
  facet normal -6.339270e-001  3.230019e-001  7.027135e-001
    outer loop
      vertex  1.135647e+001 -8.250961e+000  0.000000e+000
      vertex  1.181412e+001 -8.583463e+000  5.656855e-001
      vertex  1.388833e+001 -4.512593e+000  5.656855e-001
    endloop
  endfacet
  facet normal -6.339273e-001  3.230022e-001  7.027130e-001
    outer loop
      vertex  1.135647e+001 -8.250961e+000  0.000000e+000
      vertex  1.388833e+001 -4.512593e+000  5.656855e-001
      vertex  1.335034e+001 -4.337787e+000  0.000000e+000
    endloop
  endfacet
  facet normal -7.027140e-001  1.112990e-001  7.027131e-001
    outer loop
      vertex  1.335034e+001 -4.337787e+000  0.000000e+000
      vertex  1.388833e+001 -4.512593e+000  5.656855e-001
      vertex  1.460306e+001 -1.654684e-014  5.656855e-001
    endloop
  endfacet
  facet normal -7.027136e-001  1.112988e-001  7.027134e-001
    outer loop
      vertex  1.335034e+001 -4.337787e+000  0.000000e+000
      vertex  1.460306e+001 -1.654684e-014  5.656855e-001
      vertex  1.403737e+001 -1.590586e-014  0.000000e+000
    endloop
  endfacet
  facet normal -1.564345e-001  9.876884e-001  0.000000e+000
    outer loop
      vertex -2.862278e-014 -1.460306e+001  5.656855e-001
      vertex  4.512593e+000 -1.388833e+001  1.339999e+000
      vertex  4.512593e+000 -1.388833e+001  5.656855e-001
    endloop
  endfacet
  facet normal -4.539904e-001  8.910066e-001  0.000000e+000
    outer loop
      vertex  4.512593e+000 -1.388833e+001  5.656855e-001
      vertex  4.512593e+000 -1.388833e+001  1.339999e+000
      vertex  8.583463e+000 -1.181412e+001  1.339999e+000
    endloop
  endfacet
  facet normal -4.539904e-001  8.910066e-001  0.000000e+000
    outer loop
      vertex  4.512593e+000 -1.388833e+001  5.656855e-001
      vertex  8.583463e+000 -1.181412e+001  1.339999e+000
      vertex  8.583463e+000 -1.181412e+001  5.656855e-001
    endloop
  endfacet
  facet normal -7.071068e-001  7.071068e-001  0.000000e+000
    outer loop
      vertex  8.583463e+000 -1.181412e+001  5.656855e-001
      vertex  8.583463e+000 -1.181412e+001  1.339999e+000
      vertex  1.181412e+001 -8.583463e+000  1.339999e+000
    endloop
  endfacet
  facet normal -7.071068e-001  7.071068e-001  0.000000e+000
    outer loop
      vertex  8.583463e+000 -1.181412e+001  5.656855e-001
      vertex  1.181412e+001 -8.583463e+000  1.339999e+000
      vertex  1.181412e+001 -8.583463e+000  5.656855e-001
    endloop
  endfacet
  facet normal -8.910066e-001  4.539904e-001  0.000000e+000
    outer loop
      vertex  1.181412e+001 -8.583463e+000  5.656855e-001
      vertex  1.181412e+001 -8.583463e+000  1.339999e+000
      vertex  1.388833e+001 -4.512593e+000  1.339999e+000
    endloop
  endfacet
  facet normal -8.910066e-001  4.539904e-001  0.000000e+000
    outer loop
      vertex  1.181412e+001 -8.583463e+000  5.656855e-001
      vertex  1.388833e+001 -4.512593e+000  1.339999e+000
      vertex  1.388833e+001 -4.512593e+000  5.656855e-001
    endloop
  endfacet
  facet normal -9.876884e-001  1.564345e-001  0.000000e+000
    outer loop
      vertex  1.388833e+001 -4.512593e+000  5.656855e-001
      vertex  1.388833e+001 -4.512593e+000  1.339999e+000
      vertex  1.460306e+001  1.654684e-014  1.339999e+000
    endloop
  endfacet
  facet normal -9.876884e-001  1.564345e-001 -6.685910e-015
    outer loop
      vertex  1.388833e+001 -4.512593e+000  5.656855e-001
      vertex  1.460306e+001  1.654684e-014  1.339999e+000
      vertex  1.460306e+001 -1.654684e-014  5.656855e-001
    endloop
  endfacet
  facet normal -1.564345e-001  9.876884e-001  1.192661e-014
    outer loop
      vertex  4.512593e+000 -1.388833e+001  1.339999e+000
      vertex -2.862278e-014 -1.460306e+001  5.656855e-001
      vertex  3.041114e-014 -1.460306e+001  1.339999e+000
    endloop
  endfacet
  facet normal  1.564345e-001  9.876884e-001 -1.192661e-014
    outer loop
      vertex  3.041114e-014 -1.460306e+001  1.339999e+000
      vertex -2.862278e-014 -1.460306e+001  5.656855e-001
      vertex -4.512593e+000 -1.388833e+001  5.656855e-001
    endloop
  endfacet
  facet normal  1.564345e-001  9.876884e-001  -0.000000e+000
    outer loop
      vertex  3.041114e-014 -1.460306e+001  1.339999e+000
      vertex -4.512593e+000 -1.388833e+001  5.656855e-001
      vertex -4.512593e+000 -1.388833e+001  1.339999e+000
    endloop
  endfacet
  facet normal  4.539904e-001  8.910066e-001  0.000000e+000
    outer loop
      vertex -4.512593e+000 -1.388833e+001  1.339999e+000
      vertex -4.512593e+000 -1.388833e+001  5.656855e-001
      vertex -8.583463e+000 -1.181412e+001  5.656855e-001
    endloop
  endfacet
  facet normal  4.539904e-001  8.910066e-001  -0.000000e+000
    outer loop
      vertex -4.512593e+000 -1.388833e+001  1.339999e+000
      vertex -8.583463e+000 -1.181412e+001  5.656855e-001
      vertex -8.583463e+000 -1.181412e+001  1.339999e+000
    endloop
  endfacet
  facet normal  7.071068e-001  7.071068e-001  0.000000e+000
    outer loop
      vertex -8.583463e+000 -1.181412e+001  1.339999e+000
      vertex -8.583463e+000 -1.181412e+001  5.656855e-001
      vertex -1.181412e+001 -8.583463e+000  5.656855e-001
    endloop
  endfacet
  facet normal  7.071068e-001  7.071068e-001  -0.000000e+000
    outer loop
      vertex -8.583463e+000 -1.181412e+001  1.339999e+000
      vertex -1.181412e+001 -8.583463e+000  5.656855e-001
      vertex -1.181412e+001 -8.583463e+000  1.339999e+000
    endloop
  endfacet
  facet normal  8.910066e-001  4.539904e-001  0.000000e+000
    outer loop
      vertex -1.181412e+001 -8.583463e+000  1.339999e+000
      vertex -1.181412e+001 -8.583463e+000  5.656855e-001
      vertex -1.388833e+001 -4.512593e+000  5.656855e-001
    endloop
  endfacet
  facet normal  8.910066e-001  4.539904e-001  -0.000000e+000
    outer loop
      vertex -1.181412e+001 -8.583463e+000  1.339999e+000
      vertex -1.388833e+001 -4.512593e+000  5.656855e-001
      vertex -1.388833e+001 -4.512593e+000  1.339999e+000
    endloop
  endfacet
  facet normal  9.876884e-001  1.564345e-001  0.000000e+000
    outer loop
      vertex -1.388833e+001 -4.512593e+000  1.339999e+000
      vertex -1.388833e+001 -4.512593e+000  5.656855e-001
      vertex -1.460306e+001  1.788359e-015  5.656855e-001
    endloop
  endfacet
  facet normal  9.876884e-001  1.564345e-001  6.685910e-015
    outer loop
      vertex -1.388833e+001 -4.512593e+000  1.339999e+000
      vertex -1.460306e+001  1.788359e-015  5.656855e-001
      vertex -1.460306e+001 -3.130532e-014  1.339999e+000
    endloop
  endfacet
  facet normal -1.090147e-001  6.882914e-001 -7.171965e-001
    outer loop
      vertex  3.041114e-014 -1.460306e+001  1.339999e+000
      vertex  4.137997e+000 -1.273545e+001  2.503363e+000
      vertex  4.512593e+000 -1.388833e+001  1.339999e+000
    endloop
  endfacet
  facet normal -3.163728e-001  6.209167e-001 -7.171965e-001
    outer loop
      vertex  4.512593e+000 -1.388833e+001  1.339999e+000
      vertex  4.137997e+000 -1.273545e+001  2.503363e+000
      vertex  7.870938e+000 -1.083342e+001  2.503363e+000
    endloop
  endfacet
  facet normal -3.163727e-001  6.209166e-001 -7.171965e-001
    outer loop
      vertex  4.512593e+000 -1.388833e+001  1.339999e+000
      vertex  7.870938e+000 -1.083342e+001  2.503363e+000
      vertex  8.583463e+000 -1.181412e+001  1.339999e+000
    endloop
  endfacet
  facet normal -4.927621e-001  4.927621e-001 -7.171965e-001
    outer loop
      vertex  8.583463e+000 -1.181412e+001  1.339999e+000
      vertex  7.870938e+000 -1.083342e+001  2.503363e+000
      vertex  1.083342e+001 -7.870938e+000  2.503363e+000
    endloop
  endfacet
  facet normal -4.927621e-001  4.927622e-001 -7.171965e-001
    outer loop
      vertex  8.583463e+000 -1.181412e+001  1.339999e+000
      vertex  1.083342e+001 -7.870938e+000  2.503363e+000
      vertex  1.181412e+001 -8.583463e+000  1.339999e+000
    endloop
  endfacet
  facet normal -6.209166e-001  3.163728e-001 -7.171965e-001
    outer loop
      vertex  1.181412e+001 -8.583463e+000  1.339999e+000
      vertex  1.083342e+001 -7.870938e+000  2.503363e+000
      vertex  1.273545e+001 -4.137997e+000  2.503363e+000
    endloop
  endfacet
  facet normal -6.209167e-001  3.163728e-001 -7.171965e-001
    outer loop
      vertex  1.181412e+001 -8.583463e+000  1.339999e+000
      vertex  1.273545e+001 -4.137997e+000  2.503363e+000
      vertex  1.388833e+001 -4.512593e+000  1.339999e+000
    endloop
  endfacet
  facet normal -6.882913e-001  1.090147e-001 -7.171965e-001
    outer loop
      vertex  1.388833e+001 -4.512593e+000  1.339999e+000
      vertex  1.273545e+001 -4.137997e+000  2.503363e+000
      vertex  1.339084e+001  1.517326e-014  2.503363e+000
    endloop
  endfacet
  facet normal -6.882914e-001  1.090147e-001 -7.171965e-001
    outer loop
      vertex  1.388833e+001 -4.512593e+000  1.339999e+000
      vertex  1.339084e+001  1.517326e-014  2.503363e+000
      vertex  1.460306e+001  1.654684e-014  1.339999e+000
    endloop
  endfacet
  facet normal -1.090147e-001  6.882915e-001 -7.171964e-001
    outer loop
      vertex  4.137997e+000 -1.273545e+001  2.503363e+000
      vertex  3.041114e-014 -1.460306e+001  1.339999e+000
      vertex  4.099762e-015 -1.339084e+001  2.503363e+000
    endloop
  endfacet
  facet normal  1.090147e-001  6.882914e-001 -7.171965e-001
    outer loop
      vertex  4.099762e-015 -1.339084e+001  2.503363e+000
      vertex  3.041114e-014 -1.460306e+001  1.339999e+000
      vertex -4.512593e+000 -1.388833e+001  1.339999e+000
    endloop
  endfacet
  facet normal  1.090147e-001  6.882913e-001 -7.171965e-001
    outer loop
      vertex  4.099762e-015 -1.339084e+001  2.503363e+000
      vertex -4.512593e+000 -1.388833e+001  1.339999e+000
      vertex -4.137997e+000 -1.273545e+001  2.503363e+000
    endloop
  endfacet
  facet normal  3.163728e-001  6.209167e-001 -7.171965e-001
    outer loop
      vertex -4.137997e+000 -1.273545e+001  2.503363e+000
      vertex -4.512593e+000 -1.388833e+001  1.339999e+000
      vertex -8.583463e+000 -1.181412e+001  1.339999e+000
    endloop
  endfacet
  facet normal  3.163728e-001  6.209166e-001 -7.171965e-001
    outer loop
      vertex -4.137997e+000 -1.273545e+001  2.503363e+000
      vertex -8.583463e+000 -1.181412e+001  1.339999e+000
      vertex -7.870938e+000 -1.083342e+001  2.503363e+000
    endloop
  endfacet
  facet normal  4.927622e-001  4.927621e-001 -7.171965e-001
    outer loop
      vertex -7.870938e+000 -1.083342e+001  2.503363e+000
      vertex -8.583463e+000 -1.181412e+001  1.339999e+000
      vertex -1.181412e+001 -8.583463e+000  1.339999e+000
    endloop
  endfacet
  facet normal  4.927621e-001  4.927621e-001 -7.171965e-001
    outer loop
      vertex -7.870938e+000 -1.083342e+001  2.503363e+000
      vertex -1.181412e+001 -8.583463e+000  1.339999e+000
      vertex -1.083342e+001 -7.870938e+000  2.503363e+000
    endloop
  endfacet
  facet normal  6.209166e-001  3.163727e-001 -7.171965e-001
    outer loop
      vertex -1.083342e+001 -7.870938e+000  2.503363e+000
      vertex -1.181412e+001 -8.583463e+000  1.339999e+000
      vertex -1.388833e+001 -4.512593e+000  1.339999e+000
    endloop
  endfacet
  facet normal  6.209167e-001  3.163728e-001 -7.171965e-001
    outer loop
      vertex -1.083342e+001 -7.870938e+000  2.503363e+000
      vertex -1.388833e+001 -4.512593e+000  1.339999e+000
      vertex -1.273545e+001 -4.137997e+000  2.503363e+000
    endloop
  endfacet
  facet normal  6.882914e-001  1.090147e-001 -7.171965e-001
    outer loop
      vertex -1.273545e+001 -4.137997e+000  2.503363e+000
      vertex -1.388833e+001 -4.512593e+000  1.339999e+000
      vertex -1.460306e+001 -3.130532e-014  1.339999e+000
    endloop
  endfacet
  facet normal  6.882915e-001  1.090147e-001 -7.171964e-001
    outer loop
      vertex -1.273545e+001 -4.137997e+000  2.503363e+000
      vertex -1.460306e+001 -3.130532e-014  1.339999e+000
      vertex -1.339084e+001 -4.919715e-015  2.503363e+000
    endloop
  endfacet
  facet normal  3.307108e-001  6.578250e-002 -9.414367e-001
    outer loop
      vertex -8.230302e+000 -3.409103e+000  4.136874e+000
      vertex -1.273545e+001 -4.137997e+000  2.503363e+000
      vertex -8.908415e+000  1.090966e-015  4.136874e+000
    endloop
  endfacet
  facet normal  3.418958e-001  5.415098e-002 -9.381765e-001
    outer loop
      vertex -1.273545e+001 -4.137997e+000  2.503363e+000
      vertex -1.339084e+001 -4.919715e-015  2.503363e+000
      vertex -8.908415e+000  1.090966e-015  4.136874e+000
    endloop
  endfacet
  facet normal -3.418958e-001  5.415099e-002 -9.381764e-001
    outer loop
      vertex  1.339084e+001  1.517326e-014  2.503363e+000
      vertex  1.273545e+001 -4.137997e+000  2.503363e+000
      vertex  8.908415e+000 -2.181932e-015  4.136874e+000
    endloop
  endfacet
  facet normal -3.307107e-001  6.578248e-002 -9.414367e-001
    outer loop
      vertex  1.273545e+001 -4.137997e+000  2.503363e+000
      vertex  8.230302e+000 -3.409103e+000  4.136874e+000
      vertex  8.908415e+000 -2.181932e-015  4.136874e+000
    endloop
  endfacet
  facet normal -3.135478e-001  1.597606e-001 -9.360364e-001
    outer loop
      vertex  1.273545e+001 -4.137997e+000  2.503363e+000
      vertex  1.083342e+001 -7.870938e+000  2.503363e+000
      vertex  8.230302e+000 -3.409103e+000  4.136874e+000
    endloop
  endfacet
  facet normal -2.502180e-001  2.502180e-001 -9.352977e-001
    outer loop
      vertex  1.083342e+001 -7.870938e+000  2.503363e+000
      vertex  7.870938e+000 -1.083342e+001  2.503363e+000
      vertex  6.299201e+000 -6.299201e+000  4.136874e+000
    endloop
  endfacet
  facet normal -2.759349e-001  1.843738e-001 -9.433272e-001
    outer loop
      vertex  8.230302e+000 -3.409103e+000  4.136874e+000
      vertex  1.083342e+001 -7.870938e+000  2.503363e+000
      vertex  6.299201e+000 -6.299201e+000  4.136874e+000
    endloop
  endfacet
  facet normal -1.597606e-001  3.135478e-001 -9.360365e-001
    outer loop
      vertex  7.870938e+000 -1.083342e+001  2.503363e+000
      vertex  4.137997e+000 -1.273545e+001  2.503363e+000
      vertex  3.409103e+000 -8.230302e+000  4.136874e+000
    endloop
  endfacet
  facet normal -1.843738e-001  2.759349e-001 -9.433272e-001
    outer loop
      vertex  6.299201e+000 -6.299201e+000  4.136874e+000
      vertex  7.870938e+000 -1.083342e+001  2.503363e+000
      vertex  3.409103e+000 -8.230302e+000  4.136874e+000
    endloop
  endfacet
  facet normal -5.415098e-002  3.418958e-001 -9.381765e-001
    outer loop
      vertex  4.137997e+000 -1.273545e+001  2.503363e+000
      vertex  4.099762e-015 -1.339084e+001  2.503363e+000
      vertex -1.636449e-015 -8.908415e+000  4.136874e+000
    endloop
  endfacet
  facet normal -6.578250e-002  3.307108e-001 -9.414367e-001
    outer loop
      vertex  3.409103e+000 -8.230302e+000  4.136874e+000
      vertex  4.137997e+000 -1.273545e+001  2.503363e+000
      vertex -1.636449e-015 -8.908415e+000  4.136874e+000
    endloop
  endfacet
  facet normal  1.597606e-001  3.135478e-001 -9.360364e-001
    outer loop
      vertex -4.137997e+000 -1.273545e+001  2.503363e+000
      vertex -7.870938e+000 -1.083342e+001  2.503363e+000
      vertex -3.409103e+000 -8.230302e+000  4.136874e+000
    endloop
  endfacet
  facet normal  6.578250e-002  3.307108e-001 -9.414367e-001
    outer loop
      vertex -1.636449e-015 -8.908415e+000  4.136874e+000
      vertex -4.137997e+000 -1.273545e+001  2.503363e+000
      vertex -3.409103e+000 -8.230302e+000  4.136874e+000
    endloop
  endfacet
  facet normal  2.502180e-001  2.502180e-001 -9.352977e-001
    outer loop
      vertex -7.870938e+000 -1.083342e+001  2.503363e+000
      vertex -1.083342e+001 -7.870938e+000  2.503363e+000
      vertex -6.299201e+000 -6.299201e+000  4.136874e+000
    endloop
  endfacet
  facet normal  1.843738e-001  2.759349e-001 -9.433272e-001
    outer loop
      vertex -3.409103e+000 -8.230302e+000  4.136874e+000
      vertex -7.870938e+000 -1.083342e+001  2.503363e+000
      vertex -6.299201e+000 -6.299201e+000  4.136874e+000
    endloop
  endfacet
  facet normal  3.135478e-001  1.597606e-001 -9.360365e-001
    outer loop
      vertex -1.083342e+001 -7.870938e+000  2.503363e+000
      vertex -1.273545e+001 -4.137997e+000  2.503363e+000
      vertex -8.230302e+000 -3.409103e+000  4.136874e+000
    endloop
  endfacet
  facet normal  2.759349e-001  1.843738e-001 -9.433272e-001
    outer loop
      vertex -6.299201e+000 -6.299201e+000  4.136874e+000
      vertex -1.083342e+001 -7.870938e+000  2.503363e+000
      vertex -8.230302e+000 -3.409103e+000  4.136874e+000
    endloop
  endfacet
  facet normal  5.415099e-002  3.418958e-001 -9.381764e-001
    outer loop
      vertex  4.099762e-015 -1.339084e+001  2.503363e+000
      vertex -4.137997e+000 -1.273545e+001  2.503363e+000
      vertex -1.636449e-015 -8.908415e+000  4.136874e+000
    endloop
  endfacet
  facet normal -5.240105e-001  6.898718e-002 -8.489133e-001
    outer loop
      vertex  8.908415e+000 -2.181932e-015  4.136874e+000
      vertex  5.813416e+000 -1.557700e+000  5.920743e+000
      vertex  6.018491e+000 -1.474105e-015  5.920743e+000
    endloop
  endfacet
  facet normal -5.362705e-001  1.066709e-001 -8.372785e-001
    outer loop
      vertex  8.908415e+000 -2.181932e-015  4.136874e+000
      vertex  8.230302e+000 -3.409103e+000  4.136874e+000
      vertex  5.813416e+000 -1.557700e+000  5.920743e+000
    endloop
  endfacet
  facet normal  5.362705e-001  1.066709e-001 -8.372785e-001
    outer loop
      vertex -8.908415e+000  1.090966e-015  4.136874e+000
      vertex -5.813416e+000 -1.557700e+000  5.920743e+000
      vertex -8.230302e+000 -3.409103e+000  4.136874e+000
    endloop
  endfacet
  facet normal  5.240105e-001  6.898718e-002 -8.489133e-001
    outer loop
      vertex -8.908415e+000  1.090966e-015  4.136874e+000
      vertex -6.018491e+000  7.370526e-016  5.920743e+000
      vertex -5.813416e+000 -1.557700e+000  5.920743e+000
    endloop
  endfacet
  facet normal -9.216672e-001  2.994679e-001 -2.466750e-001
    outer loop
      vertex  3.384559e+000 -3.835070e-015  1.202914e+001
      vertex  3.932379e+000 -1.053678e+000  8.703100e+000
      vertex  2.738166e+000 -1.989394e+000  1.202914e+001
    endloop
  endfacet
  facet normal -9.713138e-001  1.278759e-001 -2.004923e-001
    outer loop
      vertex  3.384559e+000 -3.835070e-015  1.202914e+001
      vertex  4.071098e+000 -9.971314e-016  8.703100e+000
      vertex  3.932379e+000 -1.053678e+000  8.703100e+000
    endloop
  endfacet
  facet normal  7.784974e-001  5.973619e-001 -1.926150e-001
    outer loop
      vertex -2.738166e+000 -1.989394e+000  1.202914e+001
      vertex -2.878701e+000 -2.878701e+000  8.703100e+000
      vertex -3.525674e+000 -2.035549e+000  8.703100e+000
    endloop
  endfacet
  facet normal  4.546282e-001  3.037728e-001 -8.372785e-001
    outer loop
      vertex -5.212166e+000 -3.009245e+000  5.920743e+000
      vertex -6.299201e+000 -6.299201e+000  4.136874e+000
      vertex -8.230302e+000 -3.409103e+000  4.136874e+000
    endloop
  endfacet
  facet normal  4.790830e-001  1.984427e-001 -8.550438e-001
    outer loop
      vertex -5.212166e+000 -3.009245e+000  5.920743e+000
      vertex -8.230302e+000 -3.409103e+000  4.136874e+000
      vertex -5.813416e+000 -1.557700e+000  5.920743e+000
    endloop
  endfacet
  facet normal  3.753183e-001  9.060985e-001 -1.952474e-001
    outer loop
      vertex -1.045886e+000 -3.218907e+000  1.202914e+001
      vertex -1.053678e+000 -3.932379e+000  8.703100e+000
      vertex -2.035549e+000 -3.525674e+000  8.703100e+000
    endloop
  endfacet
  facet normal  5.703008e-001  7.849516e-001 -2.420908e-001
    outer loop
      vertex -1.045886e+000 -3.218907e+000  1.202914e+001
      vertex -2.035549e+000 -3.525674e+000  8.703100e+000
      vertex -2.738166e+000 -1.989394e+000  1.202914e+001
    endloop
  endfacet
  facet normal  5.922400e-001  7.718223e-001 -2.313919e-001
    outer loop
      vertex -2.738166e+000 -1.989394e+000  1.202914e+001
      vertex -2.035549e+000 -3.525674e+000  8.703100e+000
      vertex -2.878701e+000 -2.878701e+000  8.703100e+000
    endloop
  endfacet
  facet normal  3.037728e-001  4.546282e-001 -8.372785e-001
    outer loop
      vertex -3.009245e+000 -5.212166e+000  5.920743e+000
      vertex -3.409103e+000 -8.230302e+000  4.136874e+000
      vertex -6.299201e+000 -6.299201e+000  4.136874e+000
    endloop
  endfacet
  facet normal  3.217500e-001  4.193127e-001 -8.489133e-001
    outer loop
      vertex -3.009245e+000 -5.212166e+000  5.920743e+000
      vertex -6.299201e+000 -6.299201e+000  4.136874e+000
      vertex -4.255716e+000 -4.255716e+000  5.920743e+000
    endloop
  endfacet
  facet normal  1.066709e-001  5.362705e-001 -8.372785e-001
    outer loop
      vertex -1.557700e+000 -5.813416e+000  5.920743e+000
      vertex -1.636449e-015 -8.908415e+000  4.136874e+000
      vertex -3.409103e+000 -8.230302e+000  4.136874e+000
    endloop
  endfacet
  facet normal  1.984427e-001  4.790830e-001 -8.550438e-001
    outer loop
      vertex -1.557700e+000 -5.813416e+000  5.920743e+000
      vertex -3.409103e+000 -8.230302e+000  4.136874e+000
      vertex -3.009245e+000 -5.212166e+000  5.920743e+000
    endloop
  endfacet
  facet normal -3.753183e-001  9.060985e-001 -1.952474e-001
    outer loop
      vertex  1.045886e+000 -3.218907e+000  1.202914e+001
      vertex  2.035549e+000 -3.525674e+000  8.703100e+000
      vertex  1.053678e+000 -3.932379e+000  8.703100e+000
    endloop
  endfacet
  facet normal  0.000000e+000  9.777573e-001 -2.097397e-001
    outer loop
      vertex  1.045886e+000 -3.218907e+000  1.202914e+001
      vertex  1.053678e+000 -3.932379e+000  8.703100e+000
      vertex -1.045886e+000 -3.218907e+000  1.202914e+001
    endloop
  endfacet
  facet normal -1.251900e-001  9.509124e-001 -2.830076e-001
    outer loop
      vertex -1.045886e+000 -3.218907e+000  1.202914e+001
      vertex  1.053678e+000 -3.932379e+000  8.703100e+000
      vertex -7.478485e-016 -4.071098e+000  8.703100e+000
    endloop
  endfacet
  facet normal  1.276629e-001  9.696955e-001 -2.083095e-001
    outer loop
      vertex -1.045886e+000 -3.218907e+000  1.202914e+001
      vertex -7.478485e-016 -4.071098e+000  8.703100e+000
      vertex -1.053678e+000 -3.932379e+000  8.703100e+000
    endloop
  endfacet
  facet normal -1.066709e-001  5.362705e-001 -8.372785e-001
    outer loop
      vertex  1.557700e+000 -5.813416e+000  5.920743e+000
      vertex  3.409103e+000 -8.230302e+000  4.136874e+000
      vertex -1.636449e-015 -8.908415e+000  4.136874e+000
    endloop
  endfacet
  facet normal -6.898718e-002  5.240105e-001 -8.489133e-001
    outer loop
      vertex  1.557700e+000 -5.813416e+000  5.920743e+000
      vertex -1.636449e-015 -8.908415e+000  4.136874e+000
      vertex -1.105579e-015 -6.018491e+000  5.920743e+000
    endloop
  endfacet
  facet normal -3.037728e-001  4.546282e-001 -8.372785e-001
    outer loop
      vertex  3.009245e+000 -5.212166e+000  5.920743e+000
      vertex  6.299201e+000 -6.299201e+000  4.136874e+000
      vertex  3.409103e+000 -8.230302e+000  4.136874e+000
    endloop
  endfacet
  facet normal -1.984427e-001  4.790830e-001 -8.550438e-001
    outer loop
      vertex  3.009245e+000 -5.212166e+000  5.920743e+000
      vertex  3.409103e+000 -8.230302e+000  4.136874e+000
      vertex  1.557700e+000 -5.813416e+000  5.920743e+000
    endloop
  endfacet
  facet normal -7.784974e-001  5.973619e-001 -1.926150e-001
    outer loop
      vertex  2.738166e+000 -1.989394e+000  1.202914e+001
      vertex  3.525674e+000 -2.035549e+000  8.703100e+000
      vertex  2.878701e+000 -2.878701e+000  8.703100e+000
    endloop
  endfacet
  facet normal -5.714056e-001  7.864724e-001 -2.344286e-001
    outer loop
      vertex  2.738166e+000 -1.989394e+000  1.202914e+001
      vertex  2.878701e+000 -2.878701e+000  8.703100e+000
      vertex  1.045886e+000 -3.218907e+000  1.202914e+001
    endloop
  endfacet
  facet normal -5.899822e-001  7.688799e-001 -2.464647e-001
    outer loop
      vertex  1.045886e+000 -3.218907e+000  1.202914e+001
      vertex  2.878701e+000 -2.878701e+000  8.703100e+000
      vertex  2.035549e+000 -3.525674e+000  8.703100e+000
    endloop
  endfacet
  facet normal -4.546282e-001  3.037728e-001 -8.372785e-001
    outer loop
      vertex  5.212166e+000 -3.009245e+000  5.920743e+000
      vertex  8.230302e+000 -3.409103e+000  4.136874e+000
      vertex  6.299201e+000 -6.299201e+000  4.136874e+000
    endloop
  endfacet
  facet normal -4.193127e-001  3.217500e-001 -8.489133e-001
    outer loop
      vertex  5.212166e+000 -3.009245e+000  5.920743e+000
      vertex  6.299201e+000 -6.299201e+000  4.136874e+000
      vertex  4.255716e+000 -4.255716e+000  5.920743e+000
    endloop
  endfacet
  facet normal -9.015273e-001  3.734249e-001 -2.186374e-001
    outer loop
      vertex  2.738166e+000 -1.989394e+000  1.202914e+001
      vertex  3.932379e+000 -1.053678e+000  8.703100e+000
      vertex  3.525674e+000 -2.035549e+000  8.703100e+000
    endloop
  endfacet
  facet normal -4.790830e-001  1.984427e-001 -8.550438e-001
    outer loop
      vertex  5.813416e+000 -1.557700e+000  5.920743e+000
      vertex  8.230302e+000 -3.409103e+000  4.136874e+000
      vertex  5.212166e+000 -3.009245e+000  5.920743e+000
    endloop
  endfacet
  facet normal  4.193127e-001  3.217500e-001 -8.489133e-001
    outer loop
      vertex -6.299201e+000 -6.299201e+000  4.136874e+000
      vertex -5.212166e+000 -3.009245e+000  5.920743e+000
      vertex -4.255716e+000 -4.255716e+000  5.920743e+000
    endloop
  endfacet
  facet normal  6.898718e-002  5.240105e-001 -8.489133e-001
    outer loop
      vertex -1.636449e-015 -8.908415e+000  4.136874e+000
      vertex -1.557700e+000 -5.813416e+000  5.920743e+000
      vertex -1.105579e-015 -6.018491e+000  5.920743e+000
    endloop
  endfacet
  facet normal -3.217500e-001  4.193127e-001 -8.489133e-001
    outer loop
      vertex  6.299201e+000 -6.299201e+000  4.136874e+000
      vertex  3.009245e+000 -5.212166e+000  5.920743e+000
      vertex  4.255716e+000 -4.255716e+000  5.920743e+000
    endloop
  endfacet
  facet normal  9.269641e-001  3.011889e-001 -2.236576e-001
    outer loop
      vertex -3.384559e+000  1.917535e-015  1.202914e+001
      vertex -2.738166e+000 -1.989394e+000  1.202914e+001
      vertex -3.525674e+000 -2.035549e+000  8.703100e+000
    endloop
  endfacet
  facet normal  8.911728e-001  3.691359e-001 -2.637230e-001
    outer loop
      vertex -3.384559e+000  1.917535e-015  1.202914e+001
      vertex -3.525674e+000 -2.035549e+000  8.703100e+000
      vertex -3.932379e+000 -1.053678e+000  8.703100e+000
    endloop
  endfacet
  facet normal  9.713138e-001  1.278759e-001 -2.004923e-001
    outer loop
      vertex -3.384559e+000  1.917535e-015  1.202914e+001
      vertex -3.932379e+000 -1.053678e+000  8.703100e+000
      vertex -4.071098e+000  4.985657e-016  8.703100e+000
    endloop
  endfacet
  facet normal  8.145431e-001  1.072364e-001 -5.701050e-001
    outer loop
      vertex -6.018491e+000  7.370526e-016  5.920743e+000
      vertex -4.071098e+000  4.985657e-016  8.703100e+000
      vertex -5.813416e+000 -1.557700e+000  5.920743e+000
    endloop
  endfacet
  facet normal  8.145431e-001  1.072367e-001 -5.701051e-001
    outer loop
      vertex -5.813416e+000 -1.557700e+000  5.920743e+000
      vertex -4.071098e+000  4.985657e-016  8.703100e+000
      vertex -3.932379e+000 -1.053678e+000  8.703100e+000
    endloop
  endfacet
  facet normal  7.590333e-001  3.144019e-001 -5.701051e-001
    outer loop
      vertex -5.813416e+000 -1.557700e+000  5.920743e+000
      vertex -3.932379e+000 -1.053678e+000  8.703100e+000
      vertex -5.212166e+000 -3.009245e+000  5.920743e+000
    endloop
  endfacet
  facet normal  7.590334e-001  3.144019e-001 -5.701051e-001
    outer loop
      vertex -5.212166e+000 -3.009245e+000  5.920743e+000
      vertex -3.932379e+000 -1.053678e+000  8.703100e+000
      vertex -3.525674e+000 -2.035549e+000  8.703100e+000
    endloop
  endfacet
  facet normal  6.517967e-001  5.001412e-001 -5.701051e-001
    outer loop
      vertex -5.212166e+000 -3.009245e+000  5.920743e+000
      vertex -3.525674e+000 -2.035549e+000  8.703100e+000
      vertex -4.255716e+000 -4.255716e+000  5.920743e+000
    endloop
  endfacet
  facet normal  6.517968e-001  5.001411e-001 -5.701051e-001
    outer loop
      vertex -4.255716e+000 -4.255716e+000  5.920743e+000
      vertex -3.525674e+000 -2.035549e+000  8.703100e+000
      vertex -2.878701e+000 -2.878701e+000  8.703100e+000
    endloop
  endfacet
  facet normal  5.001413e-001  6.517967e-001 -5.701051e-001
    outer loop
      vertex -4.255716e+000 -4.255716e+000  5.920743e+000
      vertex -2.878701e+000 -2.878701e+000  8.703100e+000
      vertex -3.009245e+000 -5.212166e+000  5.920743e+000
    endloop
  endfacet
  facet normal  5.001412e-001  6.517968e-001 -5.701051e-001
    outer loop
      vertex -3.009245e+000 -5.212166e+000  5.920743e+000
      vertex -2.878701e+000 -2.878701e+000  8.703100e+000
      vertex -2.035549e+000 -3.525674e+000  8.703100e+000
    endloop
  endfacet
  facet normal  3.144019e-001  7.590333e-001 -5.701051e-001
    outer loop
      vertex -3.009245e+000 -5.212166e+000  5.920743e+000
      vertex -2.035549e+000 -3.525674e+000  8.703100e+000
      vertex -1.557700e+000 -5.813416e+000  5.920743e+000
    endloop
  endfacet
  facet normal  3.144019e-001  7.590334e-001 -5.701051e-001
    outer loop
      vertex -1.557700e+000 -5.813416e+000  5.920743e+000
      vertex -2.035549e+000 -3.525674e+000  8.703100e+000
      vertex -1.053678e+000 -3.932379e+000  8.703100e+000
    endloop
  endfacet
  facet normal  1.072364e-001  8.145431e-001 -5.701051e-001
    outer loop
      vertex -1.557700e+000 -5.813416e+000  5.920743e+000
      vertex -1.053678e+000 -3.932379e+000  8.703100e+000
      vertex -1.105579e-015 -6.018491e+000  5.920743e+000
    endloop
  endfacet
  facet normal  1.072367e-001  8.145431e-001 -5.701050e-001
    outer loop
      vertex -1.105579e-015 -6.018491e+000  5.920743e+000
      vertex -1.053678e+000 -3.932379e+000  8.703100e+000
      vertex -7.478485e-016 -4.071098e+000  8.703100e+000
    endloop
  endfacet
  facet normal -1.072364e-001  8.145431e-001 -5.701050e-001
    outer loop
      vertex -1.105579e-015 -6.018491e+000  5.920743e+000
      vertex -7.478485e-016 -4.071098e+000  8.703100e+000
      vertex  1.557700e+000 -5.813416e+000  5.920743e+000
    endloop
  endfacet
  facet normal -1.072367e-001  8.145431e-001 -5.701051e-001
    outer loop
      vertex  1.557700e+000 -5.813416e+000  5.920743e+000
      vertex -7.478485e-016 -4.071098e+000  8.703100e+000
      vertex  1.053678e+000 -3.932379e+000  8.703100e+000
    endloop
  endfacet
  facet normal -3.144019e-001  7.590333e-001 -5.701051e-001
    outer loop
      vertex  1.557700e+000 -5.813416e+000  5.920743e+000
      vertex  1.053678e+000 -3.932379e+000  8.703100e+000
      vertex  3.009245e+000 -5.212166e+000  5.920743e+000
    endloop
  endfacet
  facet normal -3.144019e-001  7.590334e-001 -5.701051e-001
    outer loop
      vertex  3.009245e+000 -5.212166e+000  5.920743e+000
      vertex  1.053678e+000 -3.932379e+000  8.703100e+000
      vertex  2.035549e+000 -3.525674e+000  8.703100e+000
    endloop
  endfacet
  facet normal -5.001412e-001  6.517967e-001 -5.701051e-001
    outer loop
      vertex  3.009245e+000 -5.212166e+000  5.920743e+000
      vertex  2.035549e+000 -3.525674e+000  8.703100e+000
      vertex  4.255716e+000 -4.255716e+000  5.920743e+000
    endloop
  endfacet
  facet normal -5.001411e-001  6.517968e-001 -5.701051e-001
    outer loop
      vertex  4.255716e+000 -4.255716e+000  5.920743e+000
      vertex  2.035549e+000 -3.525674e+000  8.703100e+000
      vertex  2.878701e+000 -2.878701e+000  8.703100e+000
    endloop
  endfacet
  facet normal -6.517967e-001  5.001413e-001 -5.701051e-001
    outer loop
      vertex  4.255716e+000 -4.255716e+000  5.920743e+000
      vertex  2.878701e+000 -2.878701e+000  8.703100e+000
      vertex  5.212166e+000 -3.009245e+000  5.920743e+000
    endloop
  endfacet
  facet normal -6.517968e-001  5.001412e-001 -5.701051e-001
    outer loop
      vertex  5.212166e+000 -3.009245e+000  5.920743e+000
      vertex  2.878701e+000 -2.878701e+000  8.703100e+000
      vertex  3.525674e+000 -2.035549e+000  8.703100e+000
    endloop
  endfacet
  facet normal -7.590333e-001  3.144019e-001 -5.701051e-001
    outer loop
      vertex  5.212166e+000 -3.009245e+000  5.920743e+000
      vertex  3.525674e+000 -2.035549e+000  8.703100e+000
      vertex  5.813416e+000 -1.557700e+000  5.920743e+000
    endloop
  endfacet
  facet normal -7.590334e-001  3.144019e-001 -5.701051e-001
    outer loop
      vertex  5.813416e+000 -1.557700e+000  5.920743e+000
      vertex  3.525674e+000 -2.035549e+000  8.703100e+000
      vertex  3.932379e+000 -1.053678e+000  8.703100e+000
    endloop
  endfacet
  facet normal -8.145431e-001  1.072364e-001 -5.701051e-001
    outer loop
      vertex  5.813416e+000 -1.557700e+000  5.920743e+000
      vertex  3.932379e+000 -1.053678e+000  8.703100e+000
      vertex  6.018491e+000 -1.474105e-015  5.920743e+000
    endloop
  endfacet
  facet normal -8.145431e-001  1.072367e-001 -5.701050e-001
    outer loop
      vertex  6.018491e+000 -1.474105e-015  5.920743e+000
      vertex  3.932379e+000 -1.053678e+000  8.703100e+000
      vertex  4.071098e+000 -9.971314e-016  8.703100e+000
    endloop
  endfacet
  facet normal -5.877852e-001  8.090169e-001  0.000000e+000
    outer loop
      vertex  1.045886e+000 -3.218907e+000  1.202914e+001
      vertex  2.738166e+000 -1.989394e+000  5.500000e+001
      vertex  2.738166e+000 -1.989394e+000  1.202914e+001
    endloop
  endfacet
  facet normal -9.510565e-001  3.090170e-001  0.000000e+000
    outer loop
      vertex  2.738166e+000 -1.989394e+000  1.202914e+001
      vertex  2.738166e+000 -1.989394e+000  5.500000e+001
      vertex  3.384559e+000 -3.835070e-015  5.500000e+001
    endloop
  endfacet
  facet normal -9.510565e-001  3.090170e-001  0.000000e+000
    outer loop
      vertex  2.738166e+000 -1.989394e+000  1.202914e+001
      vertex  3.384559e+000 -3.835070e-015  5.500000e+001
      vertex  3.384559e+000 -3.835070e-015  1.202914e+001
    endloop
  endfacet
  facet normal -5.877852e-001  8.090169e-001  0.000000e+000
    outer loop
      vertex  2.738166e+000 -1.989394e+000  5.500000e+001
      vertex  1.045886e+000 -3.218907e+000  1.202914e+001
      vertex  1.045886e+000 -3.218907e+000  5.500000e+001
    endloop
  endfacet
  facet normal  0.000000e+000  1.000000e+000  0.000000e+000
    outer loop
      vertex  1.045886e+000 -3.218907e+000  5.500000e+001
      vertex  1.045886e+000 -3.218907e+000  1.202914e+001
      vertex -1.045886e+000 -3.218907e+000  1.202914e+001
    endloop
  endfacet
  facet normal  0.000000e+000  1.000000e+000  0.000000e+000
    outer loop
      vertex  1.045886e+000 -3.218907e+000  5.500000e+001
      vertex -1.045886e+000 -3.218907e+000  1.202914e+001
      vertex -1.045886e+000 -3.218907e+000  5.500000e+001
    endloop
  endfacet
  facet normal  5.877852e-001  8.090169e-001  0.000000e+000
    outer loop
      vertex -1.045886e+000 -3.218907e+000  5.500000e+001
      vertex -1.045886e+000 -3.218907e+000  1.202914e+001
      vertex -2.738166e+000 -1.989394e+000  1.202914e+001
    endloop
  endfacet
  facet normal  5.877852e-001  8.090169e-001  -0.000000e+000
    outer loop
      vertex -1.045886e+000 -3.218907e+000  5.500000e+001
      vertex -2.738166e+000 -1.989394e+000  1.202914e+001
      vertex -2.738166e+000 -1.989394e+000  5.500000e+001
    endloop
  endfacet
  facet normal  9.510565e-001  3.090170e-001  0.000000e+000
    outer loop
      vertex -2.738166e+000 -1.989394e+000  5.500000e+001
      vertex -2.738166e+000 -1.989394e+000  1.202914e+001
      vertex -3.384559e+000  1.917535e-015  1.202914e+001
    endloop
  endfacet
  facet normal  9.510565e-001  3.090170e-001  -0.000000e+000
    outer loop
      vertex -2.738166e+000 -1.989394e+000  5.500000e+001
      vertex -3.384559e+000  1.917535e-015  1.202914e+001
      vertex -3.384559e+000  1.917535e-015  5.500000e+001
    endloop
  endfacet
endsolid CATIA STL
