solid CATIA STL
  facet normal -1.000000e+000  0.000000e+000  -0.000000e+000
    outer loop
      vertex -3.500000e+001  3.900000e+001  2.400000e+001
      vertex -3.500000e+001  4.050000e+001  5.159808e+001
      vertex -3.500000e+001  4.050000e+001  2.440192e+001
    endloop
  endfacet
  facet normal -1.000000e+000  0.000000e+000  0.000000e+000
    outer loop
      vertex -3.500000e+001  4.050000e+001  2.440192e+001
      vertex -3.500000e+001  4.050000e+001  5.159808e+001
      vertex -3.500000e+001  4.159808e+001  5.050000e+001
    endloop
  endfacet
  facet normal -1.000000e+000  0.000000e+000  -0.000000e+000
    outer loop
      vertex -3.500000e+001  4.050000e+001  2.440192e+001
      vertex -3.500000e+001  4.159808e+001  5.050000e+001
      vertex -3.500000e+001  4.159808e+001  2.550000e+001
    endloop
  endfacet
  facet normal -1.000000e+000  0.000000e+000  0.000000e+000
    outer loop
      vertex -3.500000e+001  4.159808e+001  2.550000e+001
      vertex -3.500000e+001  4.159808e+001  5.050000e+001
      vertex -3.500000e+001  4.200000e+001  4.900000e+001
    endloop
  endfacet
  facet normal -1.000000e+000  0.000000e+000  -0.000000e+000
    outer loop
      vertex -3.500000e+001  4.159808e+001  2.550000e+001
      vertex -3.500000e+001  4.200000e+001  4.900000e+001
      vertex -3.500000e+001  4.200000e+001  2.700000e+001
    endloop
  endfacet
  facet normal -1.000000e+000  0.000000e+000  0.000000e+000
    outer loop
      vertex -3.500000e+001  4.050000e+001  5.159808e+001
      vertex -3.500000e+001  3.900000e+001  2.400000e+001
      vertex -3.500000e+001  3.900000e+001  5.200000e+001
    endloop
  endfacet
  facet normal -1.000000e+000  0.000000e+000  -0.000000e+000
    outer loop
      vertex -3.500000e+001  3.900000e+001  5.200000e+001
      vertex -3.500000e+001  3.900000e+001  2.400000e+001
      vertex -3.500000e+001  8.000000e+000  2.400000e+001
    endloop
  endfacet
  facet normal -1.000000e+000  0.000000e+000  0.000000e+000
    outer loop
      vertex -3.500000e+001  3.900000e+001  5.200000e+001
      vertex -3.500000e+001  8.000000e+000  2.400000e+001
      vertex -3.500000e+001  8.000000e+000  5.200000e+001
    endloop
  endfacet
  facet normal -1.000000e+000  0.000000e+000  -0.000000e+000
    outer loop
      vertex -3.500000e+001  8.000000e+000  5.200000e+001
      vertex -3.500000e+001  8.000000e+000  2.400000e+001
      vertex -3.500000e+001  6.500000e+000  2.440192e+001
    endloop
  endfacet
  facet normal -1.000000e+000  0.000000e+000  0.000000e+000
    outer loop
      vertex -3.500000e+001  8.000000e+000  5.200000e+001
      vertex -3.500000e+001  6.500000e+000  2.440192e+001
      vertex -3.500000e+001  6.500000e+000  5.159808e+001
    endloop
  endfacet
  facet normal -1.000000e+000  0.000000e+000  -0.000000e+000
    outer loop
      vertex -3.500000e+001  6.500000e+000  5.159808e+001
      vertex -3.500000e+001  6.500000e+000  2.440192e+001
      vertex -3.500000e+001  5.401924e+000  2.550000e+001
    endloop
  endfacet
  facet normal -1.000000e+000  0.000000e+000  0.000000e+000
    outer loop
      vertex -3.500000e+001  6.500000e+000  5.159808e+001
      vertex -3.500000e+001  5.401924e+000  2.550000e+001
      vertex -3.500000e+001  5.401924e+000  5.050000e+001
    endloop
  endfacet
  facet normal -1.000000e+000  0.000000e+000  -0.000000e+000
    outer loop
      vertex -3.500000e+001  5.401924e+000  5.050000e+001
      vertex -3.500000e+001  5.401924e+000  2.550000e+001
      vertex -3.500000e+001  5.000000e+000  2.700000e+001
    endloop
  endfacet
  facet normal -1.000000e+000  0.000000e+000  0.000000e+000
    outer loop
      vertex -3.500000e+001  5.401924e+000  5.050000e+001
      vertex -3.500000e+001  5.000000e+000  2.700000e+001
      vertex -3.500000e+001  5.000000e+000  4.900000e+001
    endloop
  endfacet
endsolid CATIA STL
